SplineFontDB: 3.2
FontName: MononokiFork-Bold-Italic
FullName: Mononoki Fork Bold Italic
FamilyName: MononokiFork
Weight: Bold
Copyright: Modifications:\nCopyright (c) 2020, Marvin Dostal\n\nOriginal author:\nCopyright (c) 2013-2017, Matthias Tellen matthias.tellen@googlemail.com\n\nLicensed under SIL OPEN FONT LICENSE Version 1.1 - 26 February 2007
Version: 2.0
ItalicAngle: -9
UnderlinePosition: 0
UnderlineWidth: 0
Ascent: 819
Descent: 205
InvalidEm: 1
UFOAscent: 750
UFODescent: -250
LayerCount: 2
Layer: 0 0 "Back" 1
Layer: 1 0 "Fore" 0
FSType: 0
OS2Version: 3
OS2_WeightWidthSlopeOnly: 0
OS2_UseTypoMetrics: 0
CreationTime: 1593379981
ModificationTime: 1611064691
PfmFamily: 17
TTFWeight: 700
TTFWidth: 5
LineGap: 0
VLineGap: 0
OS2TypoAscent: 0
OS2TypoAOffset: 1
OS2TypoDescent: 0
OS2TypoDOffset: 1
OS2TypoLinegap: 0
OS2WinAscent: 900
OS2WinAOffset: 0
OS2WinDescent: 250
OS2WinDOffset: 0
HheadAscent: 0
HheadAOffset: 1
HheadDescent: 0
HheadDOffset: 1
OS2CapHeight: 700
OS2XHeight: 500
OS2Vendor: 'PfEd'
Lookup: 260 0 0 "'mark' Mark Positioning lookup 0" { "'mark' Mark Positioning lookup 0-2"  } ['mark' ('DFLT' <'dflt' > 'cyrl' <'dflt' > 'grek' <'dflt' > 'latn' <'dflt' > 'mong' <'dflt' > ) ]
MarkAttachClasses: 1
DEI: 91125
LangName: 1033
Encoding: UnicodeBmp
UnicodeInterp: none
NameList: Adobe Glyph List
DisplaySize: -48
AntiAlias: 1
FitToEm: 0
WinInfo: 672 21 15
BeginPrivate: 3
BlueValues 31 [-15 0 500 516 700 716 750 766]
StemSnapH 5 [102]
StemSnapV 5 [110]
EndPrivate
Grid
-650 272 m 25
 1300 272 l 1049
-651 349 m 1
 1300 349 l 1049
EndSplineSet
AnchorClass2: "mark-topright" "'mark' Mark Positioning lookup 0-2" "mark-top" "'mark' Mark Positioning lookup 0-2" "mark-bottom" "'mark' Mark Positioning lookup 0-2" "mark-ogonek" "'mark' Mark Positioning lookup 0-2" "mark-centerright" "'mark' Mark Positioning lookup 0-2" "bottomright"""  "topright"""  "center"""  "topleft"""  "bottom"""  "top"""  "ogonek""" 
BeginChars: 65591 752

StartChar: A
Encoding: 65 65 0
GlifName: A_
Width: 575
VWidth: 0
Flags: W
AnchorPoint: "mark-top" 330 700 basechar 0
AnchorPoint: "mark-bottom" 248 0 basechar 0
AnchorPoint: "mark-ogonek" 487 0 basechar 0
LayerCount: 2
Fore
SplineSet
77.6110869609 28.1680199424 m 2
 69.8911061531 9.96465610601 53.5472278569 0 34 0 c 2
 -1 0 l 2
 -8.42461547403 0 -15.4460707422 1.37698000909 -21.474360118 5.30077722493 c 0
 -29.3885159342 10.2755926069 -33.3467478799 18.809749917 -33.3467478799 27.277554213 c 0
 -33.3467478799 32.8990804626 -31.9306588667 38.3315635003 -29.5787182023 43.8477272665 c 2
 212.444297012 616.585224493 l 2
 238.260387176 676.836622725 291.217042411 710 355 710 c 0
 417.917599214 710 475.733860812 677.089599312 481.448070339 613.059354866 c 2
 535.434241051 40.3761234583 l 2
 535.632602488 38.6945608123 535.734058681 37.0224430562 535.734058681 35.3606229291 c 0
 535.734058681 13.9453259972 518.117397369 0 497 0 c 2
 461 0 l 2
 452.668992533 0 444.557187233 1.68352416948 437.780084943 6.64005467669 c 0
 429.095854 12.6192887576 425.267864738 22.0837665602 424.538989381 31.9229725059 c 2
 407.584115709 207.5 l 1
 155.394025842 207.5 l 1
 77.6110869609 28.1680199424 l 2
371.563976878 593.850350039 m 2
 370.43226729 603.120057488 362.168190528 609 349 609 c 0
 335.115413673 609 321.43961036 601.590941825 317.72699305 590.897892289 c 2
 196.66414328 308.5 l 1
 398.32334864 308.5 l 1
 371.563976878 593.850350039 l 2
EndSplineSet
PickledDataWithLists: "(dp0
Vcom.schriftgestaltung.Glyphs.lastChange
p1
V2016-06-09 18:44:34 +0000
p2
s."
EndChar

StartChar: A.hex
Encoding: 65537 -1 1
GlifName: A_.hex
Width: 575
VWidth: 0
Flags: W
LayerCount: 2
Fore
SplineSet
113.871981446 892.05741299 m 0
 122.73117335 884.876804815 126.5 873.93135984 126.5 862.5 c 2
 126.5 816.5 l 2
 126.5 804.711960809 122.807914482 793.571005345 113.681479294 786.461992673 c 0
 106.587996051 780.936542567 97.8952918412 779 89 779 c 2
 54 779 l 2
 42.2119608085 779 31.071005345 782.692085518 23.9619926725 791.818520706 c 0
 18.4365425671 798.912003949 16.5 807.604708159 16.5 816.5 c 2
 16.5 862.5 l 2
 16.5 873.93135984 20.2688266499 884.876804815 29.1280185537 892.05741299 c 0
 36.0808100669 897.69283348 44.8360512123 900 54 900 c 2
 89 900 l 2
 98.1639487877 900 106.919189933 897.69283348 113.871981446 892.05741299 c 0
406.55741299 887.371981446 m 0
 412.19283348 880.419189933 414.5 871.663948788 414.5 862.5 c 2
 414.5 816.5 l 2
 414.5 804.711960809 410.807914482 793.571005345 401.681479294 786.461992673 c 0
 394.587996051 780.936542567 385.895291841 779 377 779 c 2
 342 779 l 2
 330.211960809 779 319.071005345 782.692085518 311.961992673 791.818520706 c 0
 306.436542567 798.912003949 304.5 807.604708159 304.5 816.5 c 2
 304.5 862.5 l 2
 304.5 871.663948788 306.80716652 880.419189933 312.44258701 887.371981446 c 0
 319.623195185 896.23117335 330.56864016 900 342 900 c 2
 377 900 l 2
 388.43135984 900 399.376804815 896.23117335 406.55741299 887.371981446 c 0
EndSplineSet
Refer: 0 65 N 1 0 0 1 0 0 2
PickledDataWithLists: "(dp0
Vcom.schriftgestaltung.Glyphs.lastChange
p1
V2016-06-09 18:35:33 +0000
p2
s."
EndChar

StartChar: AE
Encoding: 198 198 2
GlifName: A_E_
Width: 575
VWidth: 0
Flags: W
LayerCount: 2
Fore
SplineSet
360.611763988 102 m 1
 466 102 l 2
 474.265976039 102 482.12817628 100.370843216 488.586942967 95.4811085158 c 0
 496.986937186 89.1217298294 499.869337461 79.2548979906 499.869337461 70.0483645575 c 0
 499.869337461 67.5048032513 499.750127712 64.6929675655 499.290916512 62.2132270882 c 2
 494.353087804 35.548952065 l 2
 492.8711471 24.3621936884 487.875397372 14.0854823972 478.715010356 7.50112020155 c 0
 471.417251197 2.25558969734 462.507283718 0 453 0 c 2
 273 0 l 2
 264.887674064 0 257.066104718 1.76175757322 250.666817898 6.65646584612 c 0
 242.399219794 12.4962842839 239.166666667 21.5749040185 239.166666667 30.4564300667 c 0
 239.166666667 32.5387265217 239.337390643 34.665419365 239.622516155 36.7718677201 c 2
 260.35940332 157.5 l 1
 134.422763523 157.5 l 1
 77.7269766914 27.9334518576 l 1
 70.8133849639 9.23922991326 53.0474797187 3.5527136788e-15 34 0 c 2
 -1 0 l 2
 -8.42461547403 0 -15.4460707422 1.37698000909 -21.474360118 5.30077722493 c 0
 -29.3885159342 10.2731403716 -33.3467478799 18.8030909401 -33.3467478799 27.266721202 c 0
 -33.3467478799 32.8854764331 -31.9306588667 38.3152816374 -29.5787182023 43.8287263214 c 2
 212.444297012 616.283904098 l 2
 238.712359302 677.559926834 291.159776987 700 359 700 c 2
 553 700 l 2
 560.652323885 700 568.121327036 698.645448157 574.589085066 694.349301455 c 0
 583.112190505 688.687909802 587.121463857 678.990765916 587.121463857 669.069942486 c 0
 587.121463857 666.237610599 586.843188884 663.381419086 586.334584922 660.459113992 c 2
 582.385668966 634.791160284 l 2
 580.91632329 622.771898489 575.392369528 612.336889992 566.027908147 605.979365752 c 0
 558.648957732 600.969803085 549.944529892 599 541 599 c 2
 442.677708525 599 l 1
 411.636984543 415.5 l 1
 499 415.5 l 2
 506.872513468 415.5 514.454154348 413.869357656 520.83349708 409.411568657 c 0
 529.128573952 403.615093381 533.121463857 394.051640864 533.121463857 384.260814262 c 0
 533.121463857 381.502990479 532.843622359 378.735754319 532.331950865 375.935095634 c 0
 529.372145873 355.956411941 528.630542303 337.473918514 516.948225194 325.328144228 c 0
 509.244058654 317.318340438 498.528050849 313.5 487 313.5 c 2
 395.696101338 313.5 l 1
 360.611763988 102 l 1
317.683480826 602.538339499 m 2
 175.684276989 258.5 l 1
 276.337264884 258.5 l 1
 333.952179949 619.057855565 l 1
 325.577660775 615.937938436 320.360373512 610.122868777 317.683480826 602.538339499 c 2
EndSplineSet
PickledDataWithLists: "(dp0
Vcom.schriftgestaltung.Glyphs.lastChange
p1
V2016-06-09 18:35:33 +0000
p2
s."
EndChar

StartChar: B
Encoding: 66 66 13
GlifName: B_
Width: 575
VWidth: 0
Flags: W
AnchorPoint: "mark-top" 330 700 basechar 0
AnchorPoint: "mark-bottom" 248 0 basechar 0
LayerCount: 2
Fore
SplineSet
429.393872866 370.57464627 m 1
 487.304956246 341.491850677 519.5 286.400947663 519.5 217.724137931 c 0
 519.5 74.922676364 384.911524674 0 224 0 c 2
 87 0 l 2
 78.9743345313 0 71.3590394701 1.5138100365 64.9294417868 5.94880363844 c 0
 56.5035255107 11.5257192536 52.825 20.7405259183 52.825 29.7748653104 c 0
 52.825 32.5938154404 53.1315350117 35.412400806 53.6804264528 38.270062048 c 2
 146.359736524 599 l 1
 123 599 l 2
 114.974334531 599 107.35903947 600.513810037 100.929441787 604.948803638 c 0
 92.5035255107 610.760813443 88.825 620.364069146 88.825 629.77925 c 0
 88.825 632.707149227 89.129475968 635.634670866 89.6748948809 638.602504725 c 0
 91.0112154572 647.28858847 92.1638175856 656.032813838 93.6904097482 664.68350276 c 0
 95.7339126339 676.263352445 100.958165344 686.499360815 110.166665533 692.927936419 c 0
 117.42183149 697.992863597 126.05214588 700 135 700 c 2
 315 700 l 2
 369.589759597 700 417.752955979 691.940395725 455.278847741 672.799016973 c 0
 502.689363494 648.615643941 531.5 606.352367831 531.5 546 c 0
 531.5 475.143869483 492.337682276 408.684831647 429.393872866 370.57464627 c 1
225.636984543 415.5 m 1
 268 415.5 l 2
 367.417786941 415.5 429.5 455.379616028 429.5 519.889030612 c 0
 429.5 549.602000042 417.189299959 569.330171694 392.328927061 582.335259179 c 0
 372.021610354 592.958528245 342.150137319 599 303 599 c 2
 256.677708525 599 l 1
 225.636984543 415.5 l 1
174.611763988 102 m 1
 237 102 l 2
 345.934734571 102 418.5 141.482100971 418.5 220.496651786 c 0
 418.5 260.428913588 400.38314977 283.191831564 370.505898835 297.118720475 c 0
 346.167587964 308.463705077 313.097821686 313.5 276 313.5 c 2
 209.696101338 313.5 l 1
 174.611763988 102 l 1
EndSplineSet
PickledDataWithLists: "(dp0
Vcom.schriftgestaltung.Glyphs.lastChange
p1
V2016-06-09 18:35:33 +0000
p2
s."
EndChar

StartChar: B.hex
Encoding: 65538 -1 14
GlifName: B_.hex
Width: 575
VWidth: 0
Flags: W
LayerCount: 2
Fore
SplineSet
218.55741299 887.371981446 m 0
 224.19283348 880.419189933 226.5 871.663948788 226.5 862.5 c 2
 226.5 816.5 l 2
 226.5 804.711960809 222.807914482 793.571005345 213.681479294 786.461992673 c 0
 206.587996051 780.936542567 197.895291841 779 189 779 c 2
 154 779 l 2
 142.211960809 779 131.071005345 782.692085518 123.961992673 791.818520706 c 0
 118.436542567 798.912003949 116.5 807.604708159 116.5 816.5 c 2
 116.5 862.5 l 2
 116.5 871.663948788 118.80716652 880.419189933 124.44258701 887.371981446 c 0
 131.623195185 896.23117335 142.56864016 900 154 900 c 2
 189 900 l 2
 200.43135984 900 211.376804815 896.23117335 218.55741299 887.371981446 c 0
506.55741299 887.371981446 m 0
 512.19283348 880.419189933 514.5 871.663948788 514.5 862.5 c 2
 514.5 816.5 l 2
 514.5 804.711960809 510.807914482 793.571005345 501.681479294 786.461992673 c 0
 494.587996051 780.936542567 485.895291841 779 477 779 c 2
 442 779 l 2
 430.211960809 779 419.071005345 782.692085518 411.961992673 791.818520706 c 0
 406.436542567 798.912003949 404.5 807.604708159 404.5 816.5 c 2
 404.5 862.5 l 2
 404.5 871.663948788 406.80716652 880.419189933 412.44258701 887.371981446 c 0
 419.623195185 896.23117335 430.56864016 900 442 900 c 2
 477 900 l 2
 488.43135984 900 499.376804815 896.23117335 506.55741299 887.371981446 c 0
650.55741299 887.371981446 m 0
 656.19283348 880.419189933 658.5 871.663948788 658.5 862.5 c 2
 658.5 816.5 l 2
 658.5 804.711960809 654.807914482 793.571005345 645.681479294 786.461992673 c 0
 638.587996051 780.936542567 629.895291841 779 621 779 c 2
 586 779 l 2
 574.211960809 779 563.071005345 782.692085518 555.961992673 791.818520706 c 0
 550.436542567 798.912003949 548.5 807.604708159 548.5 816.5 c 2
 548.5 862.5 l 2
 548.5 871.663948788 550.80716652 880.419189933 556.44258701 887.371981446 c 0
 563.623195185 896.23117335 574.56864016 900 586 900 c 2
 621 900 l 2
 632.43135984 900 643.376804815 896.23117335 650.55741299 887.371981446 c 0
EndSplineSet
Refer: 13 66 N 1 0 0 1 0 0 2
PickledDataWithLists: "(dp0
Vcom.schriftgestaltung.Glyphs.lastChange
p1
V2016-06-09 18:35:33 +0000
p2
s."
EndChar

StartChar: C
Encoding: 67 67 16
GlifName: C_
Width: 575
VWidth: 0
Flags: W
AnchorPoint: "mark-top" 330 700 basechar 0
AnchorPoint: "mark-bottom" 248 0 basechar 0
LayerCount: 2
Fore
SplineSet
205.335955384 386.01481099 m 0
 188.32908301 286.710566173 184.5 256.017132127 184.5 222.828779599 c 0
 184.5 158.368429496 204.743963228 123.309187908 231.218294789 104.302065836 c 0
 252.647580515 88.9170107407 279.976081692 83 308 83 c 0
 337.049787125 83 372.697541477 89.5997968139 417.763639736 105.263559611 c 0
 422.793608753 107.136732012 433.414337335 108.476327192 433.884242578 108.475217796 c 0
 441.950948081 108.456173158 449.837168836 105.369260605 455.436402271 99.340914745 c 0
 459.80077588 94.6420655399 462.533019524 88.9163339674 464.127802742 82.5372010955 c 2
 470.105856573 58.6249857689 l 2
 471.132615812 54.744525636 471.7 50.8285688611 471.7 46.884 c 0
 471.7 30.2190029023 460.787844178 16.9930920367 444.517527212 10.8418941847 c 0
 396.90848629 -8.18833131455 302.068256078 -20.2038093944 296.656071723 -20.2038093944 c 1
 296.745435538 -20.1808750006 296.859890123 -20.0292931564 297 -20 c 1
 249.369447572 -20 199.80577439 -9.54767345138 159.001764721 18.3509481471 c 0
 107.653414624 53.4589730863 72.5 115.22749002 72.5 211.569536424 c 0
 72.5 250.621558111 77.6767044642 284.194596802 94.6573380747 390.431050166 c 0
 117.26320729 527.039365786 174.319808805 611.000008324 242.745094566 658.306519911 c 0
 297.380962523 696.079578391 358.369638676 710 413 710 c 0
 459.866324258 710 505.660551627 699.551478185 551.049778462 678.937091843 c 0
 563.029873426 673.749837953 571.179117511 663.144669821 571.179117628 650.325829137 c 0
 571.179117628 642.764866057 568.753851093 634.984147084 564.805192756 628.215018507 c 2
 550.918009224 604.408418167 l 2
 543.786305874 591.173392443 532.02719497 581.524782204 517.100338323 581.524782204 c 0
 511.690220229 581.524782204 506.407502137 582.757593622 501.336918863 584.897700509 c 0
 460.372091159 600.482688887 404.982802344 605.707859386 399 607 c 1
 357.845769625 607 312.694950625 594.585651334 275.07544785 553.420621929 c 0
 244.84583215 520.341954552 218.869179398 467.6833132 205.335955384 386.01481099 c 0
EndSplineSet
PickledDataWithLists: "(dp0
Vcom.schriftgestaltung.Glyphs.lastChange
p1
V2016-06-09 18:35:33 +0000
p2
s."
EndChar

StartChar: C.hex
Encoding: 65539 -1 17
GlifName: C_.hex
Width: 575
VWidth: 0
Flags: W
LayerCount: 2
Fore
SplineSet
218.55741299 887.371981446 m 0
 224.19283348 880.419189933 226.5 871.663948788 226.5 862.5 c 2
 226.5 816.5 l 2
 226.5 804.711960809 222.807914482 793.571005345 213.681479294 786.461992673 c 0
 206.587996051 780.936542567 197.895291841 779 189 779 c 2
 154 779 l 2
 142.211960809 779 131.071005345 782.692085518 123.961992673 791.818520706 c 0
 118.436542567 798.912003949 116.5 807.604708159 116.5 816.5 c 2
 116.5 862.5 l 2
 116.5 871.663948788 118.80716652 880.419189933 124.44258701 887.371981446 c 0
 131.623195185 896.23117335 142.56864016 900 154 900 c 2
 189 900 l 2
 200.43135984 900 211.376804815 896.23117335 218.55741299 887.371981446 c 0
362.55741299 887.371981446 m 0
 368.19283348 880.419189933 370.5 871.663948788 370.5 862.5 c 2
 370.5 816.5 l 2
 370.5 804.711960809 366.807914482 793.571005345 357.681479294 786.461992673 c 0
 350.587996051 780.936542567 341.895291841 779 333 779 c 2
 298 779 l 2
 286.211960809 779 275.071005345 782.692085518 267.961992673 791.818520706 c 0
 262.436542567 798.912003949 260.5 807.604708159 260.5 816.5 c 2
 260.5 862.5 l 2
 260.5 871.663948788 262.80716652 880.419189933 268.44258701 887.371981446 c 0
 275.623195185 896.23117335 286.56864016 900 298 900 c 2
 333 900 l 2
 344.43135984 900 355.376804815 896.23117335 362.55741299 887.371981446 c 0
EndSplineSet
Refer: 16 67 N 1 0 0 1 0 0 2
PickledDataWithLists: "(dp0
Vcom.schriftgestaltung.Glyphs.lastChange
p1
V2016-06-09 18:35:33 +0000
p2
s."
EndChar

StartChar: D
Encoding: 68 68 23
GlifName: D_
Width: 575
VWidth: 0
Flags: W
AnchorPoint: "mark-top" 330 700 basechar 0
AnchorPoint: "mark-bottom" 248 0 basechar 0
LayerCount: 2
Fore
SplineSet
109.222909108 693.913574254 m 0
 116.379672279 698.684749701 124.593883935 700 133 700 c 2
 185 700 l 2
 282.293211177 700 365.859923061 690.176001405 429.830079293 663.228327804 c 0
 510.486555849 629.251477784 558.5 567.000382903 558.5 468.75862069 c 0
 558.5 429.074002193 554.327567348 401.0984791 540.350317103 319.162874218 c 0
 521.233050662 200.814198401 480.963223394 114.509808015 402.800461355 61.7195318818 c 0
 340.475824783 19.6261527747 255.966676457 0 143 0 c 2
 89 0 l 2
 80.3292317442 0 72.1747214609 2.17017828477 65.5914396396 7.09488834319 c 0
 57.1810462327 13.1314306984 52.9294326642 22.636296003 52.9294326642 32.5514869355 c 0
 52.9294326642 35.104135388 53.1889715397 37.6647590133 53.6806504602 40.2337663678 c 2
 146.35204665 599 l 1
 125 599 l 2
 116.329231744 599 108.174721461 601.170178285 101.59143964 606.094888343 c 0
 93.1810462327 612.386393117 88.9294326642 622.292710661 88.9294326642 632.626684551 c 0
 88.9294326642 635.275926686 89.1867868004 637.933410869 89.6744414689 640.599557546 c 0
 92.9976052109 662.200121869 93.3850963196 683.355032395 109.222909108 693.913574254 c 0
431.677990493 334.111905879 m 1
 446.696561418 422.220855306 448.5 441.864048921 448.5 473 c 0
 448.5 524.035067717 433.155263367 556.039475914 395.105555987 577.627613607 c 0
 365.671592514 594.327464934 320.946050839 604.810422239 257.567800922 608.874292743 c 1
 174.725671061 88.9685122373 l 1
 267.483636329 92.8350300287 326.151422491 113.720488665 365.171332992 157.878873117 c 0
 398.272667135 195.339272697 418.909658125 251.787287704 431.677990493 334.111905879 c 1
EndSplineSet
PickledDataWithLists: "(dp0
Vcom.schriftgestaltung.Glyphs.lastChange
p1
V2016-06-09 18:46:00 +0000
p2
s."
EndChar

StartChar: D.hex
Encoding: 65540 -1 24
GlifName: D_.hex
Width: 575
VWidth: 0
Flags: W
LayerCount: 2
Fore
SplineSet
149.55741299 887.371981446 m 0
 155.19283348 880.419189933 157.5 871.663948788 157.5 862.5 c 2
 157.5 816.5 l 2
 157.5 804.711960809 153.807914482 793.571005345 144.681479294 786.461992673 c 0
 137.587996051 780.936542567 128.895291841 779 120 779 c 2
 85 779 l 2
 73.2119608085 779 62.071005345 782.692085518 54.9619926725 791.818520706 c 0
 49.4365425671 798.912003949 47.5 807.604708159 47.5 816.5 c 2
 47.5 862.5 l 2
 47.5 871.663948788 49.8071665204 880.419189933 55.4425870101 887.371981446 c 0
 62.6231951847 896.23117335 73.5686401598 900 85 900 c 2
 120 900 l 2
 131.43135984 900 142.376804815 896.23117335 149.55741299 887.371981446 c 0
293.55741299 887.371981446 m 0
 299.19283348 880.419189933 301.5 871.663948788 301.5 862.5 c 2
 301.5 816.5 l 2
 301.5 804.711960809 297.807914482 793.571005345 288.681479294 786.461992673 c 0
 281.587996051 780.936542567 272.895291841 779 264 779 c 2
 229 779 l 2
 217.211960809 779 206.071005345 782.692085518 198.961992673 791.818520706 c 0
 193.436542567 798.912003949 191.5 807.604708159 191.5 816.5 c 2
 191.5 862.5 l 2
 191.5 871.663948788 193.80716652 880.419189933 199.44258701 887.371981446 c 0
 206.623195185 896.23117335 217.56864016 900 229 900 c 2
 264 900 l 2
 275.43135984 900 286.376804815 896.23117335 293.55741299 887.371981446 c 0
581.55741299 887.371981446 m 0
 587.19283348 880.419189933 589.5 871.663948788 589.5 862.5 c 2
 589.5 816.5 l 2
 589.5 804.711960809 585.807914482 793.571005345 576.681479294 786.461992673 c 0
 569.587996051 780.936542567 560.895291841 779 552 779 c 2
 517 779 l 2
 505.211960809 779 494.071005345 782.692085518 486.961992673 791.818520706 c 0
 481.436542567 798.912003949 479.5 807.604708159 479.5 816.5 c 2
 479.5 862.5 l 2
 479.5 871.663948788 481.80716652 880.419189933 487.44258701 887.371981446 c 0
 494.623195185 896.23117335 505.56864016 900 517 900 c 2
 552 900 l 2
 563.43135984 900 574.376804815 896.23117335 581.55741299 887.371981446 c 0
EndSplineSet
Refer: 23 68 N 1 0 0 1 0 0 2
PickledDataWithLists: "(dp0
Vcom.schriftgestaltung.Glyphs.lastChange
p1
V2016-06-09 18:35:33 +0000
p2
s."
EndChar

StartChar: E
Encoding: 69 69 27
GlifName: E_
Width: 575
VWidth: 0
Flags: W
AnchorPoint: "mark-top" 330 700 basechar 0
AnchorPoint: "mark-bottom" 248 0 basechar 0
AnchorPoint: "mark-ogonek" 442 0 basechar 0
LayerCount: 2
Fore
SplineSet
486.070558213 96.0511963616 m 0
 494.496474489 90.2391865569 498.175 80.6359308543 498.175 71.22075 c 0
 498.175 68.3047289752 497.87298948 65.3890824805 497.331731352 62.4336139265 c 0
 495.994435433 53.406866472 494.894347782 44.2967899104 493.309590252 35.3164972402 c 0
 491.266087366 23.7366475549 486.041834656 13.5006391851 476.833334467 7.07206358136 c 0
 469.57816851 2.00713640344 460.94785412 0 452 0 c 2
 70 0 l 2
 61.9743345313 0 54.3590394701 1.5138100365 47.9294417868 5.94880363844 c 0
 39.5035255107 11.556734084 35.825 20.8227869368 35.825 29.9073688866 c 0
 35.825 32.7417230717 36.1314759841 35.5757105343 36.6802679067 38.4489798011 c 2
 139.688523934 665.675548872 l 2
 141.732026819 676.848790795 146.958165344 686.725089889 156.166665533 692.927936419 c 0
 163.42183149 697.992863597 172.05214588 700 181 700 c 2
 540 700 l 2
 548.025665469 700 555.64096053 698.486189963 562.070558213 694.051196362 c 0
 570.496474489 688.239186557 574.175 678.635930854 574.175 669.22075 c 0
 574.175 666.292850773 573.870524032 663.365329134 573.325105119 660.397495275 c 0
 571.988784543 651.71141153 570.836182414 642.967186162 569.309590252 634.31649724 c 0
 567.266087366 622.736647555 562.041834656 612.500639185 552.833334467 606.072063581 c 0
 545.57816851 601.007136403 536.94785412 599 528 599 c 2
 239.677708525 599 l 1
 208.636984543 415.5 l 1
 472 415.5 l 2
 480.025665469 415.5 487.64096053 413.986189963 494.070558213 409.551196362 c 0
 502.496474489 403.739186557 506.175 394.135930854 506.175 384.72075 c 0
 506.175 381.804728975 505.87298948 378.889082481 505.331731352 375.933613926 c 0
 503.994435433 366.906866472 502.894347782 357.79678991 501.309590252 348.81649724 c 0
 499.266087366 337.236647555 494.041834656 327.000639185 484.833334467 320.572063581 c 0
 477.57816851 315.507136403 468.94785412 313.5 460 313.5 c 2
 192.696101338 313.5 l 1
 157.611763988 102 l 1
 464 102 l 2
 472.025665469 102 479.64096053 100.486189963 486.070558213 96.0511963616 c 0
EndSplineSet
PickledDataWithLists: "(dp0
Vcom.schriftgestaltung.Glyphs.lastChange
p1
V2016-06-09 18:35:33 +0000
p2
s."
EndChar

StartChar: E.hex
Encoding: 65541 -1 28
GlifName: E_.hex
Width: 575
VWidth: 0
Flags: W
LayerCount: 2
Fore
SplineSet
218.55741299 887.371981446 m 0
 224.19283348 880.419189933 226.5 871.663948788 226.5 862.5 c 2
 226.5 816.5 l 2
 226.5 804.711960809 222.807914482 793.571005345 213.681479294 786.461992673 c 0
 206.587996051 780.936542567 197.895291841 779 189 779 c 2
 154 779 l 2
 142.211960809 779 131.071005345 782.692085518 123.961992673 791.818520706 c 0
 118.436542567 798.912003949 116.5 807.604708159 116.5 816.5 c 2
 116.5 862.5 l 2
 116.5 871.663948788 118.80716652 880.419189933 124.44258701 887.371981446 c 0
 131.623195185 896.23117335 142.56864016 900 154 900 c 2
 189 900 l 2
 200.43135984 900 211.376804815 896.23117335 218.55741299 887.371981446 c 0
362.55741299 887.371981446 m 0
 368.19283348 880.419189933 370.5 871.663948788 370.5 862.5 c 2
 370.5 816.5 l 2
 370.5 804.711960809 366.807914482 793.571005345 357.681479294 786.461992673 c 0
 350.587996051 780.936542567 341.895291841 779 333 779 c 2
 298 779 l 2
 286.211960809 779 275.071005345 782.692085518 267.961992673 791.818520706 c 0
 262.436542567 798.912003949 260.5 807.604708159 260.5 816.5 c 2
 260.5 862.5 l 2
 260.5 871.663948788 262.80716652 880.419189933 268.44258701 887.371981446 c 0
 275.623195185 896.23117335 286.56864016 900 298 900 c 2
 333 900 l 2
 344.43135984 900 355.376804815 896.23117335 362.55741299 887.371981446 c 0
506.55741299 887.371981446 m 0
 512.19283348 880.419189933 514.5 871.663948788 514.5 862.5 c 2
 514.5 816.5 l 2
 514.5 804.711960809 510.807914482 793.571005345 501.681479294 786.461992673 c 0
 494.587996051 780.936542567 485.895291841 779 477 779 c 2
 442 779 l 2
 430.211960809 779 419.071005345 782.692085518 411.961992673 791.818520706 c 0
 406.436542567 798.912003949 404.5 807.604708159 404.5 816.5 c 2
 404.5 862.5 l 2
 404.5 871.663948788 406.80716652 880.419189933 412.44258701 887.371981446 c 0
 419.623195185 896.23117335 430.56864016 900 442 900 c 2
 477 900 l 2
 488.43135984 900 499.376804815 896.23117335 506.55741299 887.371981446 c 0
EndSplineSet
Refer: 27 69 N 1 0 0 1 0 0 2
PickledDataWithLists: "(dp0
Vcom.schriftgestaltung.Glyphs.lastChange
p1
V2016-06-09 18:35:33 +0000
p2
s."
EndChar

StartChar: Eth
Encoding: 208 208 39
GlifName: E_th
Width: 575
VWidth: 0
Flags: W
LayerCount: 2
Fore
SplineSet
240.948225194 311.328144228 m 0
 233.244058654 303.318340438 222.528050849 299.5 211 299.5 c 2
 -12 299.5 l 2
 -19.8725134683 299.5 -27.454154348 301.130642344 -33.8334970801 305.588431343 c 0
 -42.1285739517 311.384906619 -46.1214638571 320.948359136 -46.1214638571 330.739185738 c 0
 -46.1214638571 333.508935483 -45.8412141617 336.288179187 -45.3252997174 339.101239836 c 0
 -42.3152611657 358.666490422 -41.3915233485 377.214169151 -30.0880739455 389.352620289 c 0
 -22.3614336545 397.650038385 -11.527814651 401.5 0 401.5 c 2
 223 401.5 l 2
 230.872513468 401.5 238.454154348 399.869357656 244.83349708 395.411568657 c 0
 253.128573952 389.615093381 257.121463857 380.051640864 257.121463857 370.260814262 c 0
 257.121463857 367.502990479 256.843622359 364.735754319 256.331950865 361.935095634 c 0
 253.372145873 341.956411941 252.630542303 323.473918514 240.948225194 311.328144228 c 0
EndSplineSet
Refer: 23 68 N 1 0 0 1 -10 0 2
PickledDataWithLists: "(dp0
Vcom.schriftgestaltung.Glyphs.lastChange
p1
V2016-06-09 18:35:33 +0000
p2
s."
EndChar

StartChar: Euro
Encoding: 8364 8364 40
GlifName: E_uro
Width: 575
VWidth: 0
Flags: HMW
LayerCount: 2
Fore
SplineSet
469 372.5 m 2
 89 372.5 l 2
 80.8876740636 372.5 73.0661047185 374.261757573 66.6668178983 379.156465846 c 0
 58.3992197941 385.48021441 55.1666666667 395.311155066 55.1666666667 404.92866941 c 0
 55.1666666667 407.332741194 55.2775683207 410.02218596 55.7208114528 412.349212404 c 2
 59.6436104887 432.943907342 l 2
 61.1559258515 444.864101081 66.6687319228 455.204591726 75.9720918527 461.520634248 c 0
 83.3510422677 466.530196915 92.0554701077 468.5 101 468.5 c 2
 109.046541686 468.5 l 1
 120.987653377 518.671688374 140.176311729 572.413230595 175.954982293 617.798036826 c 0
 223.843854511 678.544485814 300.880435957 722.5 424 722.5 c 0
 457.520626177 722.5 512.246855126 720.484802178 572.314114636 709.285821592 c 0
 578.870212726 708.0565532 584.988993368 705.772204404 590.070547136 701.529935268 c 0
 596.641790619 696.04401803 599.954545455 687.915025756 599.954545455 679.731780616 c 0
 599.954545455 674.2759008 598.737122219 669.026257312 596.726162628 663.663698405 c 0
 593.35970494 654.574262647 590.209608192 645.361191692 586.611086961 636.364888614 c 0
 580.065387716 620.000640501 566.118477574 608.818093403 548.63499145 608.818093403 c 0
 545.64289516 608.818093403 542.645545092 609.128670795 539.653771737 609.719819119 c 0
 485.711676422 619.518895643 414.236411242 621.494301525 412 621.5 c 0
 333.573753692 621.69983356 289.306918632 597.554992186 261.115933218 561.979609571 c 0
 241.099493468 536.720027749 228.689947134 504.384841958 219.752565067 468.5 c 1
 481 468.5 l 2
 488.877734348 468.5 496.591029824 467.04377964 503.099208211 462.301469133 c 0
 511.617545577 456.09441727 514.833333333 446.112637332 514.833333333 436.334705075 c 0
 514.833333333 433.870166418 514.737156068 431.055117083 514.279188547 428.650787596 c 2
 510.348158838 408.012881623 l 1
 507.639500338 387.772118928 492.180624554 372.5 469 372.5 c 2
322 79.5 m 0
 349.383827388 79.5 397.751754508 81.4705564452 453.87141363 90.3203348667 c 0
 456.951936145 90.8888417871 463.163378237 91.2454685436 463.354492102 91.2454335052 c 0
 472.316877718 91.2437903605 481.403044967 88.0994848427 487.526924497 80.6799599318 c 0
 496.870404971 69.3596545935 496.098423808 51.7074864058 497.5 33.4869959043 c 1
 497.5 33 l 2
 497.5 24.0453887862 495.508036071 15.3646018333 490.57955505 7.9718803018 c 0
 484.314110394 -1.42628668215 474.147034811 -7.19820919457 462.246935793 -9.29822666825 c 0
 395.235272931 -21.4821653705 341.327471672 -22.5 310 -22.5 c 0
 202.806313196 -22.5 139.302278282 10.9886304778 105.008288789 61.4765153274 c 0
 77.8386341278 101.475897617 70.0512578946 149.978530704 70.0512578946 196.635137297 c 0
 70.0512578946 208.393517922 70.5523130678 220.06180037 71.3906046956 231.5 c 1
 67 231.5 l 2
 59.1274865317 231.5 51.545845652 233.130642344 45.1665029199 237.588431343 c 0
 36.8714260483 243.384906619 32.8785361429 252.948359136 32.8785361429 262.739185738 c 0
 32.8785361429 265.485910167 33.1541456962 268.241971362 33.6618825611 271.031090736 c 0
 34.6671959139 278.068284205 35.4565402191 285.191575428 36.6904097482 292.18350276 c 0
 38.7339126339 303.763352445 43.9581653437 313.999360815 53.1666655328 320.427936419 c 0
 60.4218314904 325.492863597 69.0521458801 327.5 78 327.5 c 2
 458 327.5 l 2
 465.652323885 327.5 473.121327036 326.145448157 479.589085066 321.849301455 c 0
 488.112190505 316.187909802 492.121463857 306.490765916 492.121463857 296.569942486 c 0
 492.121463857 293.760144959 491.847599245 290.926865956 491.346680694 288.028852051 c 0
 490.333735319 280.938234428 489.603020764 273.710947616 488.285821592 266.685885364 c 0
 486.619707679 257.799944494 483.027361022 249.648449603 476.948225194 243.328144228 c 0
 469.244058654 235.318340438 458.528050849 231.5 447 231.5 c 2
 182.601213614 231.5 l 1
 182.059894009 222.888503299 181.786639581 207.214415389 181.786599236 206.957272459 c 0
 181.77810925 152.844818695 194.796047319 121.009628463 220.87947807 102.463174292 c 0
 242.189462382 87.3108482344 274.944351979 79.5 322 79.5 c 0
EndSplineSet
PickledDataWithLists: "(dp0
Vcom.schriftgestaltung.Glyphs.lastChange
p1
V2015-12-22 14:04:06 +0000
p2
s."
EndChar

StartChar: F
Encoding: 70 70 41
GlifName: F_
Width: 575
VWidth: 0
Flags: W
AnchorPoint: "mark-top" 330 700 basechar 0
AnchorPoint: "mark-bottom" 248 0 basechar 0
LayerCount: 2
Fore
SplineSet
156.166665533 692.927936419 m 0
 163.42183149 697.992863597 172.05214588 700 181 700 c 2
 562 700 l 2
 570.025665469 700 577.64096053 698.486189963 584.070558213 694.051196362 c 0
 592.496474489 688.239186557 596.175 678.635930854 596.175 669.22075 c 0
 596.175 666.292850773 595.870524032 663.365329134 595.325105119 660.397495275 c 0
 593.988784543 651.71141153 592.836182414 642.967186162 591.309590252 634.31649724 c 0
 589.266087366 622.736647555 584.041834656 612.500639185 574.833334467 606.072063581 c 0
 567.57816851 601.007136403 558.94785412 599 550 599 c 2
 239.700075676 599 l 1
 203.606325676 380.5 l 1
 488 380.5 l 2
 496.025665469 380.5 503.64096053 378.986189963 510.070558213 374.551196362 c 0
 518.496474489 368.739186557 522.175 359.135930854 522.175 349.72075 c 0
 522.175 346.792850773 521.870524032 343.865329134 521.325105119 340.897495275 c 0
 519.988784543 332.21141153 518.836182414 323.467186162 517.309590252 314.81649724 c 0
 515.266087366 303.236647555 510.041834656 293.000639185 500.833334467 286.572063581 c 0
 493.57816851 281.507136403 484.94785412 279.5 476 279.5 c 2
 187.64954884 279.5 l 1
 146.309590252 34.077392977 l 2
 144.266087366 23.0055598901 139.041834656 13.2186128031 129.833334467 7.07206358136 c 0
 122.57816851 2.00713640344 113.94785412 0 105 0 c 2
 70 0 l 2
 61.9743345313 0 54.3590394701 1.5138100365 47.9294417868 5.94880363844 c 0
 39.5035255107 11.556734084 35.825 20.8227869368 35.825 29.9073688866 c 0
 35.825 32.7417230717 36.1314759841 35.5757105343 36.6802679067 38.4489798011 c 2
 139.688523934 665.675548872 l 2
 141.732026819 676.848790795 146.958165344 686.725089889 156.166665533 692.927936419 c 0
EndSplineSet
PickledDataWithLists: "(dp0
Vcom.schriftgestaltung.Glyphs.lastChange
p1
V2016-06-09 18:35:33 +0000
p2
s."
EndChar

StartChar: F.hex
Encoding: 65542 -1 42
GlifName: F_.hex
Width: 575
VWidth: 0
Flags: W
LayerCount: 2
Fore
SplineSet
218.55741299 887.371981446 m 0
 224.19283348 880.419189933 226.5 871.663948788 226.5 862.5 c 2
 226.5 816.5 l 2
 226.5 804.711960809 222.807914482 793.571005345 213.681479294 786.461992673 c 0
 206.587996051 780.936542567 197.895291841 779 189 779 c 2
 154 779 l 2
 142.211960809 779 131.071005345 782.692085518 123.961992673 791.818520706 c 0
 118.436542567 798.912003949 116.5 807.604708159 116.5 816.5 c 2
 116.5 862.5 l 2
 116.5 871.663948788 118.80716652 880.419189933 124.44258701 887.371981446 c 0
 131.623195185 896.23117335 142.56864016 900 154 900 c 2
 189 900 l 2
 200.43135984 900 211.376804815 896.23117335 218.55741299 887.371981446 c 0
362.55741299 887.371981446 m 0
 368.19283348 880.419189933 370.5 871.663948788 370.5 862.5 c 2
 370.5 816.5 l 2
 370.5 804.711960809 366.807914482 793.571005345 357.681479294 786.461992673 c 0
 350.587996051 780.936542567 341.895291841 779 333 779 c 2
 298 779 l 2
 286.211960809 779 275.071005345 782.692085518 267.961992673 791.818520706 c 0
 262.436542567 798.912003949 260.5 807.604708159 260.5 816.5 c 2
 260.5 862.5 l 2
 260.5 871.663948788 262.80716652 880.419189933 268.44258701 887.371981446 c 0
 275.623195185 896.23117335 286.56864016 900 298 900 c 2
 333 900 l 2
 344.43135984 900 355.376804815 896.23117335 362.55741299 887.371981446 c 0
506.55741299 887.371981446 m 0
 512.19283348 880.419189933 514.5 871.663948788 514.5 862.5 c 2
 514.5 816.5 l 2
 514.5 804.711960809 510.807914482 793.571005345 501.681479294 786.461992673 c 0
 494.587996051 780.936542567 485.895291841 779 477 779 c 2
 442 779 l 2
 430.211960809 779 419.071005345 782.692085518 411.961992673 791.818520706 c 0
 406.436542567 798.912003949 404.5 807.604708159 404.5 816.5 c 2
 404.5 862.5 l 2
 404.5 871.663948788 406.80716652 880.419189933 412.44258701 887.371981446 c 0
 419.623195185 896.23117335 430.56864016 900 442 900 c 2
 477 900 l 2
 488.43135984 900 499.376804815 896.23117335 506.55741299 887.371981446 c 0
650.55741299 887.371981446 m 0
 656.19283348 880.419189933 658.5 871.663948788 658.5 862.5 c 2
 658.5 816.5 l 2
 658.5 804.711960809 654.807914482 793.571005345 645.681479294 786.461992673 c 0
 638.587996051 780.936542567 629.895291841 779 621 779 c 2
 586 779 l 2
 574.211960809 779 563.071005345 782.692085518 555.961992673 791.818520706 c 0
 550.436542567 798.912003949 548.5 807.604708159 548.5 816.5 c 2
 548.5 862.5 l 2
 548.5 871.663948788 550.80716652 880.419189933 556.44258701 887.371981446 c 0
 563.623195185 896.23117335 574.56864016 900 586 900 c 2
 621 900 l 2
 632.43135984 900 643.376804815 896.23117335 650.55741299 887.371981446 c 0
EndSplineSet
Refer: 41 70 N 1 0 0 1 0 0 2
PickledDataWithLists: "(dp0
Vcom.schriftgestaltung.Glyphs.lastChange
p1
V2016-06-09 18:35:33 +0000
p2
s."
EndChar

StartChar: G
Encoding: 71 71 43
GlifName: G_
Width: 575
VWidth: 0
Flags: W
AnchorPoint: "mark-top" 330 700 basechar 0
AnchorPoint: "mark-bottom" 248 0 basechar 0
LayerCount: 2
Fore
SplineSet
334.911926054 389.352620289 m 0
 342.638566345 397.650038385 353.472185349 401.5 365 401.5 c 2
 497 401.5 l 2
 505.025665469 401.5 512.64096053 400.033249962 519.070558213 395.736127549 c 0
 527.496474489 390.104796406 531.175 380.80007829 531.175 371.677588317 c 0
 531.175 368.832548358 530.868769774 365.987876356 530.320392209 363.103806219 c 2
 479.360030394 50.3881844767 l 2
 476.746394975 32.8874818907 465.110486392 18.7272884326 447.673259534 11.9042456127 c 0
 394.436814816 -9.59508783108 343.887885761 -20 297 -20 c 0
 249.368916489 -20 199.815976732 -9.54850511433 159.01754668 18.2552907862 c 0
 107.674987605 53.2448242483 72.5 114.775312519 72.5 210.602649007 c 0
 72.5 250.594685718 77.6776853888 284.20073379 94.6573380747 390.431050166 c 0
 117.26320729 527.039365786 174.319808805 611.000008324 242.745094566 658.306519911 c 0
 297.380962523 696.079578391 358.369638676 710 413 710 c 0
 459.866324258 710 505.660551627 699.551478185 551.049778462 678.937091843 c 0
 563.029873426 673.749837953 571.179117511 663.144669821 571.179117628 650.325829137 c 0
 571.179117628 642.764866057 568.753851093 634.984147084 564.805192756 628.215018507 c 2
 550.918009224 604.408418167 l 2
 543.786305874 591.173392443 532.02719497 581.524782204 517.100338323 581.524782204 c 0
 511.690220229 581.524782204 506.407502137 582.757593622 501.336918863 584.897700509 c 0
 460.372091159 600.482688887 404.982802344 605.707859386 399 607 c 1
 357.845769625 607 312.694950625 594.585651334 275.07544785 553.420621929 c 0
 244.84583215 520.341954552 218.869179398 467.6833132 205.335955384 386.01481099 c 0
 188.32908301 286.710566173 184.5 256.017132127 184.5 222.828779599 c 0
 184.5 158.368429496 204.743963228 123.309187908 231.218294789 104.302065836 c 0
 252.647580515 88.9170107407 279.976081692 83 308 83 c 0
 326.622675253 83 349.023162262 85.9525811806 374.959276035 92.0435073434 c 1
 410.322663051 299.5 l 1
 353 299.5 l 2
 344.974334531 299.5 337.35903947 301.013810037 330.929441787 305.448803638 c 0
 322.503525511 311.260813443 318.825 320.864069146 318.825 330.27925 c 0
 318.825 333.207149227 319.129475968 336.134670866 319.674894881 339.102504725 c 0
 322.684878589 358.667398825 323.608674114 377.214381201 334.911926054 389.352620289 c 0
EndSplineSet
PickledDataWithLists: "(dp0
Vcom.schriftgestaltung.Glyphs.lastChange
p1
V2016-06-09 18:35:33 +0000
p2
s."
EndChar

StartChar: Gamma
Encoding: 915 915 44
GlifName: G_amma
Width: 575
VWidth: 0
Flags: W
LayerCount: 2
Fore
SplineSet
141.166665533 692.927936419 m 0
 148.42183149 697.992863597 157.05214588 700 166 700 c 2
 551 700 l 2
 558.821325378 700 566.312146247 698.749380953 572.822231803 694.484551571 c 0
 581.475095158 688.815964644 585.175 679.078830155 585.175 669.545875 c 0
 585.175 666.554299007 584.872569846 663.545946904 584.334464255 660.458329661 c 2
 580.38586803 634.792454195 l 2
 578.961308623 623.103732359 573.963286771 612.55777354 564.523118558 606.036677177 c 0
 557.101987088 600.910294645 548.260157641 599 539 599 c 2
 224.675321907 599 l 1
 131.375355628 34.5748740622 l 2
 129.921693254 23.7785144798 124.92183713 13.8505027928 115.715010356 7.50112020155 c 0
 108.417251197 2.25558969734 99.5072837181 0 90 0 c 2
 55 0 l 2
 46.8876740636 0 39.0661047185 1.76175757322 32.6668178983 6.65646584612 c 0
 24.3992197941 12.7579452473 21.1666666667 22.2433448178 21.1666666667 31.5228196527 c 0
 21.1666666667 33.698127592 21.3372965337 35.9196719953 21.6223960851 38.1203022355 c 2
 124.688523934 665.676535587 l 2
 126.732026819 676.849372965 131.958165344 686.725314472 141.166665533 692.927936419 c 0
EndSplineSet
PickledDataWithLists: "(dp0
Vcom.schriftgestaltung.Glyphs.lastChange
p1
V2015-12-22 16:32:37 +0000
p2
s."
EndChar

StartChar: H
Encoding: 72 72 46
GlifName: H_
Width: 575
VWidth: 0
Flags: W
AnchorPoint: "mark-top" 330 700 basechar 0
AnchorPoint: "mark-bottom" 248 0 basechar 0
LayerCount: 2
Fore
SplineSet
493.166665533 692.927936419 m 0
 500.42183149 697.992863597 509.05214588 700 518 700 c 2
 553 700 l 2
 561.025665469 700 568.64096053 698.486189963 575.070558213 694.051196362 c 0
 583.496474489 688.443265916 587.175 679.177213063 587.175 670.092631113 c 0
 587.175 667.258276928 586.868524016 664.424289466 586.319732093 661.551020199 c 2
 483.311476066 34.3244511278 l 2
 481.267973181 23.1512092049 476.041834656 13.2749101115 466.833334467 7.07206358136 c 0
 459.57816851 2.00713640344 450.94785412 0 442 0 c 2
 407 0 l 2
 398.974334531 0 391.35903947 1.5138100365 384.929441787 5.94880363844 c 0
 376.503525511 11.5386765931 372.825 20.7748928303 372.825 29.8302224992 c 0
 372.825 32.6567078141 373.131748917 35.4828272619 373.68100098 38.3481545061 c 2
 420.352597748 320.5 l 1
 176.670129525 320.5 l 1
 129.311346012 34.2329970868 l 2
 127.267843126 23.0972582152 122.041834656 13.2540902212 112.833334467 7.07206358136 c 0
 105.57816851 2.00713640344 96.9478541199 0 88 0 c 2
 53 0 l 2
 44.9743345313 0 37.3590394701 1.5138100365 30.9294417868 5.94880363844 c 0
 22.5035255107 11.556734084 18.825 20.8227869368 18.825 29.9073688866 c 0
 18.825 32.7417230717 19.1314759841 35.5757105343 19.6802679067 38.4489798011 c 2
 122.688523934 665.675548872 l 2
 124.732026819 676.848790795 129.958165344 686.725089889 139.166665533 692.927936419 c 0
 146.42183149 697.992863597 155.05214588 700 164 700 c 2
 199 700 l 2
 207.025665469 700 214.64096053 698.486189963 221.070558213 694.051196362 c 0
 229.496474489 688.494950741 233.175 679.314297365 233.175 670.313442386 c 0
 233.175 667.505153023 232.868511429 664.697227018 232.319698285 661.850378839 c 2
 192.638713846 422.5 l 1
 436.323550305 422.5 l 1
 476.688530035 665.931650929 l 2
 478.732032921 676.999892878 483.958165344 686.783380824 493.166665533 692.927936419 c 0
EndSplineSet
PickledDataWithLists: "(dp0
Vcom.schriftgestaltung.Glyphs.lastChange
p1
V2016-06-09 18:35:33 +0000
p2
s."
EndChar

StartChar: I
Encoding: 73 73 48
GlifName: I_
Width: 575
VWidth: 0
Flags: W
AnchorPoint: "mark-top" 330 700 basechar 0
AnchorPoint: "mark-bottom" 248 0 basechar 0
AnchorPoint: "mark-ogonek" 416 0 basechar 0
LayerCount: 2
Fore
SplineSet
166.166665533 692.927936419 m 0
 173.42183149 697.992863597 182.05214588 700 191 700 c 2
 526 700 l 2
 534.025665469 700 541.64096053 698.486189963 548.070558213 694.051196362 c 0
 556.496474489 688.239186557 560.175 678.635930854 560.175 669.22075 c 0
 560.175 666.292850773 559.870524032 663.365329134 559.325105119 660.397495275 c 0
 557.988784543 651.71141153 556.836182414 642.967186162 555.309590252 634.31649724 c 0
 553.266087366 622.736647555 548.041834656 612.500639185 538.833334467 606.072063581 c 0
 531.57816851 601.007136403 522.94785412 599 514 599 c 2
 399.689827242 599 l 1
 317.620357406 102 l 1
 438 102 l 2
 446.025665469 102 453.64096053 100.486189963 460.070558213 96.0511963616 c 0
 468.496474489 90.2391865569 472.175 80.6359308543 472.175 71.22075 c 0
 472.175 68.3047289752 471.87298948 65.3890824805 471.331731352 62.4336139265 c 0
 469.994435433 53.406866472 468.894347782 44.2967899104 467.309590252 35.3164972402 c 0
 465.266087366 23.7366475549 460.041834656 13.5006391851 450.833334467 7.07206358136 c 0
 443.57816851 2.00713640344 434.94785412 0 426 0 c 2
 71 0 l 2
 62.9743345313 0 55.3590394701 1.5138100365 48.9294417868 5.94880363844 c 0
 40.5035255107 11.7608134431 36.825 21.3640691457 36.825 30.77925 c 0
 36.825 33.6952710248 37.1270105205 36.6109175195 37.6682686476 39.5663860735 c 0
 39.0055645668 48.593133528 40.1056522182 57.7032100896 41.6904097482 66.6835027598 c 0
 43.7339126339 78.2633524451 48.9581653437 88.4993608149 58.1666655328 94.9279364186 c 0
 65.4218314904 99.9928635966 74.0521458801 102 83 102 c 2
 207.310172758 102 l 1
 289.379642594 599 l 1
 179 599 l 2
 170.974334531 599 163.35903947 600.513810037 156.929441787 604.948803638 c 0
 148.503525511 610.760813443 144.825 620.364069146 144.825 629.77925 c 0
 144.825 632.707149227 145.129475968 635.634670866 145.674894881 638.602504725 c 0
 147.011215457 647.28858847 148.163817586 656.032813838 149.690409748 664.68350276 c 0
 151.733912634 676.263352445 156.958165344 686.499360815 166.166665533 692.927936419 c 0
EndSplineSet
PickledDataWithLists: "(dp0
Vcom.schriftgestaltung.Glyphs.lastChange
p1
V2016-06-09 18:35:33 +0000
p2
s."
EndChar

StartChar: IJ
Encoding: 306 306 49
GlifName: I_J_
Width: 575
VWidth: 0
Flags: W
LayerCount: 2
Fore
SplineSet
136.166665533 692.927936419 m 0
 143.42183149 697.992863597 152.05214588 700 161 700 c 2
 296 700 l 2
 303.652323885 700 311.121327036 698.645448157 317.589085066 694.349301455 c 0
 326.112190505 688.687909802 330.121463857 678.990765916 330.121463857 669.069942486 c 0
 330.121463857 666.237610599 329.843188884 663.381419086 329.334584922 660.459113992 c 2
 325.385668966 634.791160284 l 2
 323.91632329 622.771898489 318.392369528 612.336889992 309.027908147 605.979365752 c 0
 301.648957732 600.969803085 292.944529892 599 284 599 c 2
 269.689827242 599 l 1
 187.620357406 102 l 1
 208 102 l 2
 216.265976039 102 224.12817628 100.370843216 230.586942967 95.4811085158 c 0
 238.986937186 89.1217298294 241.869337461 79.2548979906 241.869337461 70.0483645575 c 0
 241.869337461 67.5048032513 241.750127712 64.6929675655 241.290916512 62.2132270882 c 2
 236.353087804 35.548952065 l 2
 234.8711471 24.3621936884 229.875397372 14.0854823972 220.715010356 7.50112020155 c 0
 213.417251197 2.25558969734 204.507283718 0 195 0 c 2
 40 0 l 2
 31.8876740636 0 24.0661047185 1.76175757322 17.6668178983 6.65646584612 c 0
 9.39921979407 12.9802144098 6.16666666667 22.8111550664 6.16666666667 32.4286694102 c 0
 6.16666666667 34.8154703276 6.27906268853 37.464660596 6.70908348774 39.7867729118 c 2
 11.6473229431 66.4532659705 l 1
 14.3440923674 86.7122907923 29.8078636195 102 53 102 c 2
 77.3101727582 102 l 1
 159.379642594 599 l 1
 149 599 l 2
 140.887674064 599 133.066104718 600.761757573 126.666817898 605.656465846 c 0
 118.399219794 611.98021441 115.166666667 621.811155066 115.166666667 631.42866941 c 0
 115.166666667 633.714381908 115.294062709 636.127095604 115.645739609 638.412995458 c 0
 116.99177055 647.162196571 118.152720042 655.969927757 119.690409748 664.68350276 c 0
 121.733912634 676.263352445 126.958165344 686.499360815 136.166665533 692.927936419 c 0
393.051774806 688.171855772 m 0
 400.755941346 696.181659562 411.471949151 700 423 700 c 2
 536 700 l 2
 543.821325378 700 551.312146247 698.749380953 557.822231803 694.484551571 c 0
 566.475095158 689.01320573 570.175 679.614879308 570.175 670.413627707 c 0
 570.175 667.517641465 569.870785936 664.605367333 569.329704033 661.615956172 c 2
 482.345687441 130.850989454 l 2
 473.103976547 74.5425973849 449.906615609 39.0955003251 412.032876093 20.1604970624 c 0
 382.245298245 5.26817613102 345.456820263 1 302 1 c 0
 293.705249096 1 285.828409382 2.44471269094 279.094182949 6.91110423151 c 0
 270.222466615 12.7951592422 266.198992424 22.8050862971 266.198992424 32.9181873838 c 0
 266.198992424 35.1523573259 266.309103796 37.6268825767 266.709083488 39.7867729118 c 2
 271.647322943 66.4532659705 l 1
 274.344092367 86.7122907923 289.80786362 102 313 102 c 0
 328.587554927 102 341.745217921 103.748384258 351.145325491 107.786308272 c 0
 362.38033789 112.612436698 369.850691656 120.32273676 372.654124001 137.672330994 c 2
 449.363802571 599 l 1
 411 599 l 2
 403.122265652 599 395.408970176 600.45622036 388.900791789 605.198530867 c 0
 380.382454423 611.40558273 377.166666667 621.387362668 377.166666667 631.165294925 c 0
 377.166666667 633.514359184 377.28116554 636.043264006 377.645739609 638.412995458 c 0
 380.662996237 658.025163538 381.514034191 676.176393573 393.051774806 688.171855772 c 0
EndSplineSet
PickledDataWithLists: "(dp0
Vcom.schriftgestaltung.Glyphs.lastChange
p1
V2016-06-09 18:35:33 +0000
p2
s."
EndChar

StartChar: J
Encoding: 74 74 57
GlifName: J_
Width: 575
VWidth: 0
Flags: W
AnchorPoint: "mark-top" 330 700 basechar 0
AnchorPoint: "mark-bottom" 248 0 basechar 0
LayerCount: 2
Fore
SplineSet
243.166665533 692.927936419 m 0
 250.42183149 697.992863597 259.05214588 700 268 700 c 2
 536 700 l 2
 544.025665469 700 551.64096053 698.486189963 558.070558213 694.051196362 c 0
 566.496474489 688.438487026 570.175 679.164537953 570.175 670.072214427 c 0
 570.175 667.237374922 569.868940901 664.402901952 569.320851883 661.529194144 c 2
 506.348461195 275.414949166 l 2
 486.532552387 153.488752285 435.736140628 77.908933818 364.083460879 35.636696021 c 0
 307.01921183 1.97105345235 238.234612589 -10 164 -10 c 0
 133.448418926 -10 86.6266230347 -7.97514647225 33.5363456577 3.24243502852 c 0
 27.0806088049 4.47177769058 21.0574095522 6.84724581902 16.110564302 11.0834296407 c 0
 9.70393523773 16.5696845835 6.41222446282 24.5831329459 6.41222446282 32.7108802571 c 0
 6.41222446282 38.7462035913 7.96558971929 44.5928046618 10.510126712 50.4278223769 c 2
 21.3884875392 76.1403116048 l 2
 27.9188459081 93.2849448776 42.0832927669 103.745433505 59.4090420656 103.745433505 c 0
 62.7036800969 103.745433505 66.0020891465 103.406826371 69.4610970344 102.757344926 c 0
 113.314584412 93.9866474509 155.74753049 92 176 92 c 0
 260.084953749 92 312.172923527 116.151332015 345.68327588 155.323919276 c 0
 372.697307069 186.902503794 388.397453443 229.662242263 396.652752144 280.178986018 c 2
 449.374266243 599 l 1
 256 599 l 2
 247.974334531 599 240.35903947 600.513810037 233.929441787 604.948803638 c 0
 225.503525511 610.760813443 221.825 620.364069146 221.825 629.77925 c 0
 221.825 632.707149227 222.129475968 635.634670866 222.674894881 638.602504725 c 0
 224.011215457 647.28858847 225.163817586 656.032813838 226.690409748 664.68350276 c 0
 228.733912634 676.263352445 233.958165344 686.499360815 243.166665533 692.927936419 c 0
EndSplineSet
PickledDataWithLists: "(dp0
Vcom.schriftgestaltung.Glyphs.lastChange
p1
V2016-06-09 18:35:33 +0000
p2
s."
EndChar

StartChar: K
Encoding: 75 75 59
GlifName: K_
Width: 575
VWidth: 0
Flags: W
AnchorPoint: "mark-top" 330 700 basechar 0
AnchorPoint: "mark-bottom" 248 0 basechar 0
LayerCount: 2
Fore
SplineSet
492.020343739 29.099219465 m 0
 492.020343739 9.79530590904 473.36946096 0 455 0 c 2
 403 0 l 2
 395.472843585 0 388.479376822 1.20109465427 382.21874207 4.44351706047 c 0
 374.31811703 8.53530082757 369.00519441 15.2407194742 365.061862179 22.4481087156 c 2
 195.69548696 323 l 1
 192.649284899 323 l 1
 146.309590252 35.3164972402 l 2
 144.266087366 23.7366475549 139.041834656 13.5006391851 129.833334467 7.07206358136 c 0
 122.57816851 2.00713640344 113.94785412 0 105 0 c 2
 70 0 l 2
 61.9743345313 0 54.3590394701 1.5138100365 47.9294417868 5.94880363844 c 0
 39.5035255107 11.556734084 35.825 20.8227869368 35.825 29.9073688866 c 0
 35.825 32.7417230717 36.1314759841 35.5757105343 36.6802679067 38.4489798011 c 2
 139.688523934 665.675548872 l 2
 141.732026819 676.848790795 146.958165344 686.725089889 156.166665533 692.927936419 c 0
 163.42183149 697.992863597 172.05214588 700 181 700 c 2
 216 700 l 2
 224.025665469 700 231.64096053 698.486189963 238.070558213 694.051196362 c 0
 246.496474489 688.239186557 250.175 678.635930854 250.175 669.22075 c 0
 250.175 666.288790293 249.869678937 663.357209222 249.32283453 660.385147456 c 2
 208.599786194 399 l 1
 210.327137037 399 l 1
 456.747660077 680.905078357 l 2
 468.479080448 693.809640765 481.869854715 700 498 700 c 2
 551 700 l 2
 565.75294145 700 583.16127887 693.293875223 583.16127887 675.900184537 c 0
 583.16127887 666.601730716 578.367714287 658.405840567 571.247822499 650.848899906 c 2
 295.463440798 358.135714144 l 1
 485.64452817 48.3305546611 l 2
 489.634345707 42.3099364933 492.020343739 35.8372324661 492.020343739 29.099219465 c 0
EndSplineSet
PickledDataWithLists: "(dp0
Vcom.schriftgestaltung.Glyphs.lastChange
p1
V2016-06-09 18:35:33 +0000
p2
s."
EndChar

StartChar: L
Encoding: 76 76 61
GlifName: L_
Width: 575
VWidth: 0
Flags: W
AnchorPoint: "mark-bottom" 248 0 basechar 0
AnchorPoint: "mark-top" 330 700 basechar 0
AnchorPoint: "mark-topright" 461 700 basechar 0
AnchorPoint: "mark-centerright" 394 400 basechar 0
LayerCount: 2
Fore
SplineSet
157.61991555 102 m 1
 502 102 l 2
 510.025665469 102 517.64096053 100.486189963 524.070558213 96.0511963616 c 0
 532.496474489 90.2391865569 536.175 80.6359308543 536.175 71.22075 c 0
 536.175 68.3047289752 535.87298948 65.3890824805 535.331731352 62.4336139265 c 0
 533.994435433 53.406866472 532.894347782 44.2967899104 531.309590252 35.3164972402 c 0
 529.266087366 23.7366475549 524.041834656 13.5006391851 514.833334467 7.07206358136 c 0
 507.57816851 2.00713640344 498.94785412 0 490 0 c 2
 70 0 l 2
 61.9743345313 0 54.3590394701 1.5138100365 47.9294417868 5.94880363844 c 0
 39.5035255107 11.556734084 35.825 20.8227869368 35.825 29.9073688866 c 0
 35.825 32.7417230717 36.1314759841 35.5757105343 36.6802679067 38.4489798011 c 2
 139.688523934 665.675548872 l 2
 141.732026819 676.848790795 146.958165344 686.725089889 156.166665533 692.927936419 c 0
 163.42183149 697.992863597 172.05214588 700 181 700 c 2
 216 700 l 2
 224.025665469 700 231.64096053 698.486189963 238.070558213 694.051196362 c 0
 246.496474489 688.474661743 250.175 679.260484603 250.175 670.226762407 c 0
 250.175 667.410810989 249.869075008 664.595223584 249.321212125 661.740679914 c 2
 157.61991555 102 l 1
EndSplineSet
PickledDataWithLists: "(dp0
Vcom.schriftgestaltung.Glyphs.lastChange
p1
V2016-06-09 18:35:33 +0000
p2
s."
EndChar

StartChar: Lambda
Encoding: 923 923 63
GlifName: L_ambda
Width: 575
VWidth: 0
Flags: W
LayerCount: 2
Fore
SplineSet
212.444297012 616.585224493 m 2
 238.332813286 677.005655851 291.59470505 710 361 710 c 0
 391.213367322 710 417.26013412 703.532172208 437.667314472 689.876997207 c 0
 463.416824695 673.249626405 478.420448006 646.343936956 481.448070339 612.451715855 c 2
 535.434241051 40.336104319 l 2
 535.632602488 38.6562083681 535.734058681 36.9857479458 535.734058681 35.3255749459 c 0
 535.734058681 13.9315039683 518.117397369 0 497 0 c 2
 461 0 l 2
 450.612749536 0 440.455295992 2.91614842964 433.460982783 10.9534732573 c 0
 427.982760561 16.9960278487 425.664003074 24.3701242997 424.575251175 32.208113885 c 2
 371.567733421 593.814395948 l 2
 370.781771291 599.980843813 368.450837648 603.212041042 364.794050309 605.486639364 c 0
 361.671958733 607.428645721 356.588154108 609 349 609 c 0
 331.763110096 609 321.715049492 601.758391935 317.6878753 590.797999084 c 2
 77.7180056763 28.9363692113 l 1
 70.7980265564 9.57098542473 53.0392466905 3.5527136788e-15 34 0 c 2
 -1 0 l 2
 -8.42461547403 0 -15.4460707422 1.37698000909 -21.474360118 5.30077722493 c 0
 -29.3885159342 10.2755926069 -33.3467478799 18.809749917 -33.3467478799 27.277554213 c 0
 -33.3467478799 32.8990804626 -31.9306588667 38.3315635003 -29.5787182023 43.8477272665 c 2
 212.444297012 616.585224493 l 2
EndSplineSet
PickledDataWithLists: "(dp0
Vcom.schriftgestaltung.Glyphs.lastChange
p1
V2015-12-22 12:18:02 +0000
p2
s."
EndChar

StartChar: Lslash
Encoding: 321 321 66
GlifName: L_slash
Width: 575
VWidth: 0
Flags: W
LayerCount: 2
Fore
SplineSet
314.248445754 516.578040094 m 0
 325.729511826 516.578040094 337.112721401 513.120077027 343.477757355 506.987119266 c 0
 348.531970077 499.329591063 353.80392651 491.773629254 358.653628244 483.986687858 c 0
 362.482196534 479.806886943 364.352668257 475.173098801 364.352668257 470.574421159 c 0
 364.352668257 456.601939858 356.805207648 443.815304551 345.103820321 435.714344095 c 0
 255.912977844 375.927224245 166.74012063 316.122119131 77.5379056783 256.346371756 c 0
 70.3604151555 251.929454511 62.5736676399 249.563641624 54.7795892259 249.563641624 c 0
 43.8968065772 249.563641624 33.3023265796 254.487020275 26.7316509411 263.873699758 c 0
 21.3545111692 271.60333818 15.8152553361 279.243862254 10.5919127144 287.078876187 c 0
 6.65536272973 292.983701164 4.88765962172 299.673908732 4.88765962172 306.201398062 c 0
 4.88765962172 320.582817054 12.8932925145 333.975427409 24.8964237046 342.285287464 c 0
 114.087486001 398.857133856 203.258108847 455.448213318 292.462094322 512.007899286 c 0
 299.358345945 515.026849426 306.836660843 516.578040094 314.248445754 516.578040094 c 0
EndSplineSet
Refer: 61 76 N 1 0 0 1 0 0 2
PickledDataWithLists: "(dp0
Vcom.schriftgestaltung.Glyphs.lastChange
p1
V2016-06-09 18:35:33 +0000
p2
s."
EndChar

StartChar: M
Encoding: 77 77 67
GlifName: M_
Width: 575
VWidth: 0
Flags: W
AnchorPoint: "mark-top" 330 700 basechar 0
AnchorPoint: "mark-bottom" 248 0 basechar 0
LayerCount: 2
Fore
SplineSet
554 700 m 2
 572 700 l 2
 580.317325479 700 588.074967313 698.539646941 594.661717972 694.165069398 c 0
 603.340694276 688.601319886 607.171662409 679.214799051 607.171662409 670.043381262 c 0
 607.171662409 667.274566155 606.877173415 664.514146999 606.353665466 661.722480368 c 2
 522.389880253 34.5893834436 l 2
 519.411612757 13.0288681518 499.094652251 0 479 0 c 2
 445 0 l 2
 434.872802122 0 425.196745699 3.58215170301 418.960334062 11.4454591028 c 0
 414.087885097 17.5889862192 412.165282064 25.1156622716 412.165282064 32.6632442259 c 0
 412.165282064 34.7957383565 412.316045879 36.9371785479 412.600651077 39.0935218311 c 2
 469.109137 501.02797025 l 1
 352.549140902 323.792907689 l 2
 342.50796814 307.592118594 327.487273341 300 310 300 c 2
 282 300 l 2
 274.494656128 300 267.22681961 301.139069185 260.653488656 304.792909824 c 0
 252.260100018 309.458444653 246.945623722 317.546791431 244.111754893 326.625307626 c 2
 183.40078778 503.965237878 l 1
 93.2573449265 35.0389029656 l 2
 89.2705880311 15.1051184887 73.301170052 0 52 0 c 2
 17 0 l 2
 9.04708971184 0 1.43440723282 2.04263641415 -4.79276285843 6.64658346589 c 0
 -12.7451491809 12.3179824047 -17.0748051223 21.3809637113 -17.0748051223 31.0529938222 c 0
 -17.0748051223 33.6228447616 -16.8139290332 36.0953407131 -16.2785304484 38.6776030395 c 2
 107.714178408 665.638903724 l 2
 109.334032577 673.972410287 112.606084727 681.879366829 118.762502785 688.121837841 c 0
 126.61059412 696.371560407 137.711226901 700 150 700 c 2
 168 700 l 2
 203.374958828 700 224.035735242 682.88799055 232.866709576 655.437947689 c 2
 315.626680263 414.433637447 l 1
 478.531826854 658.331173302 l 2
 496.587121554 686.475891675 522.281510037 700 554 700 c 2
EndSplineSet
PickledDataWithLists: "(dp0
Vcom.schriftgestaltung.Glyphs.lastChange
p1
V2016-06-09 18:35:33 +0000
p2
s."
EndChar

StartChar: N
Encoding: 78 78 69
GlifName: N_
Width: 575
VWidth: 0
Flags: W
AnchorPoint: "mark-top" 330 700 basechar 0
AnchorPoint: "mark-bottom" 248 0 basechar 0
LayerCount: 2
Fore
SplineSet
477.635614897 664.353016372 m 2
 480.548140503 685.500718127 498.2268489 700 519 700 c 2
 554 700 l 2
 561.830773824 700 569.253552773 698.743263976 575.710298129 694.610946948 c 0
 584.292458442 689.311076028 588.175 680.085690526 588.175 671.017881146 c 0
 588.175 668.197998285 587.864815479 665.382667759 587.316401828 662.517196926 c 2
 587.316401828 662.517196926 482.340177292 34.5002916474 482.309590252 34.3255185611 c 0
 480.266087366 23.1519572186 475.041834656 13.2750874379 465.833334467 7.07206358136 c 0
 458.57816851 2.00713640344 449.94785412 0 441 0 c 2
 423 0 l 2
 409.121090575 0 396.767014581 2.41142497883 386.194676009 8.39576756719 c 0
 372.821963644 15.9652273961 363.841583256 28.6975611767 358.199170092 44.370931076 c 2
 202.626024382 488.477992377 l 1
 131.311712625 35.3161632412 l 2
 129.26820974 23.7363135558 124.041834656 13.5006391851 114.833334467 7.07206358136 c 0
 107.57816851 2.00713640344 98.9478541199 0 90 0 c 2
 55 0 l 2
 46.9743345313 0 39.3590394701 1.5138100365 32.9294417868 5.94880363844 c 0
 24.5035255107 11.556734084 20.825 20.8227869368 20.825 29.9073688866 c 0
 20.825 32.7417230717 21.1314759841 35.5757105343 21.6802679067 38.4489798011 c 2
 124.688523934 665.675548872 l 2
 126.732026819 676.848790795 131.958165344 686.725089889 141.166665533 692.927936419 c 0
 148.42183149 697.992863597 157.05214588 700 166 700 c 2
 186 700 l 2
 221.379654464 700 242.041149835 682.883467787 250.870206127 655.427076635 c 2
 403.664102377 207.894658627 l 1
 477.635614897 664.353016372 l 2
EndSplineSet
PickledDataWithLists: "(dp0
Vcom.schriftgestaltung.Glyphs.lastChange
p1
V2016-06-09 18:35:33 +0000
p2
s."
EndChar

StartChar: O
Encoding: 79 79 74
GlifName: O_
Width: 575
VWidth: 0
Flags: W
AnchorPoint: "mark-top" 330 700 basechar 0
AnchorPoint: "mark-bottom" 248 0 basechar 0
LayerCount: 2
Fore
SplineSet
98.6491685028 455.279608656 m 0
 125.327205266 620.884520397 230.871620965 710 356 710 c 0
 415.656666834 710 468.553971398 689.116678803 503.618126145 647.65626543 c 0
 531.608109985 614.56046407 547.5 569.234196723 547.5 513.32885906 c 0
 547.5 484.139632132 544.043810773 463.482897053 529.091877357 372.362549405 c 0
 523.776405484 339.968902947 516.984990548 298.580084276 508.347280712 244.698482473 c 0
 481.680077824 81.1433093653 377.274990509 -10 252 -10 c 0
 138.50268106 -10 64.3998179726 60.0765922892 59.5093674972 167.837176186 c 0
 59.30235882 173.038790197 59.1879722365 178.076245403 59.1879722365 183.131789131 c 0
 59.1879722365 221.118444082 65.4916657255 257.935505189 85.3892077265 376.199571967 c 0
 89.2707543532 399.270134624 93.6646704415 425.384427231 98.6491685028 455.279608656 c 0
412.063318898 329.527054469 m 0
 432.428147461 450.324822799 436.5 475.401722528 436.5 495.965867159 c 0
 436.5 571.219186186 390.889529502 609 344 609 c 0
 287.960735339 609 225.858443348 554.152364095 208.341288753 450.184209146 c 0
 201.948178832 411.852510546 196.525455655 379.838875082 191.952852456 352.843834199 c 0
 175.782456848 257.379506442 170.420200264 224.869455283 170.420200264 200.673557476 c 0
 170.420200264 194.204098504 170.780367863 188.18694691 171.440067518 181.4088501 c 0
 177.863863127 122.121420506 220.545542365 92.000000034 264 92 c 0
 320.069255857 92 381.136202318 145.861982222 398.658711247 249.861916315 c 0
 403.761668342 280.2842966 408.202075032 306.623368317 412.063318898 329.527054469 c 0
EndSplineSet
PickledDataWithLists: "(dp0
Vcom.schriftgestaltung.Glyphs.lastChange
p1
V2016-06-09 18:35:33 +0000
p2
s."
EndChar

StartChar: OE
Encoding: 338 338 75
GlifName: O_E_
Width: 575
VWidth: 0
Flags: W
LayerCount: 2
Fore
SplineSet
360.611763988 102 m 1
 466 102 l 2
 474.265976039 102 482.12817628 100.370843216 488.586942967 95.4811085158 c 0
 496.986937186 89.1217298294 499.869337461 79.2548979906 499.869337461 70.0483645575 c 0
 499.869337461 67.5048032513 499.750127712 64.6929675655 499.290916512 62.2132270882 c 2
 494.353087804 35.548952065 l 2
 492.8711471 24.3621936884 487.875397372 14.0854823972 478.715010356 7.50112020155 c 0
 471.417251197 2.25558969734 462.507283718 0 453 0 c 2
 248 0 l 2
 178.320619902 0 128.852505545 24.189031703 99.5909870047 66.1672962143 c 0
 76.4016356129 99.4344940607 66.5 142.3646845 66.5 190.689655172 c 0
 66.5 225.637097988 71.6228561749 255.367785023 95.6566888926 398.042837646 c 0
 98.1197722494 412.664748004 100.771863415 428.40733359 103.650620031 445.532573173 c 0
 127.10821638 590.287395622 208.842503426 700 359 700 c 2
 553 700 l 2
 560.652323885 700 568.121327036 698.645448157 574.589085066 694.349301455 c 0
 583.112190505 688.687909802 587.121463857 678.990765916 587.121463857 669.069942486 c 0
 587.121463857 666.237610599 586.843188884 663.381419086 586.334584922 660.459113992 c 2
 582.385668966 634.791160284 l 2
 580.91632329 622.771898489 575.392369528 612.336889992 566.027908147 605.979365752 c 0
 558.648957732 600.969803085 549.944529892 599 541 599 c 2
 442.677708525 599 l 1
 411.636984543 415.5 l 1
 499 415.5 l 2
 506.872513468 415.5 514.454154348 413.869357656 520.83349708 409.411568657 c 0
 529.128573952 403.615093381 533.121463857 394.051640864 533.121463857 384.260814262 c 0
 533.121463857 381.502990479 532.843622359 378.735754319 532.331950865 375.935095634 c 0
 529.372145873 355.956411941 528.630542303 337.473918514 516.948225194 325.328144228 c 0
 509.244058654 317.318340438 498.528050849 313.5 487 313.5 c 2
 395.696101338 313.5 l 1
 360.611763988 102 l 1
203.795280835 385.728936397 m 0
 180.481997189 241.0917254 177.5 221.908530938 177.5 196 c 0
 177.5 167.494074838 182.190614683 142.771401884 192.23204444 124.918386384 c 0
 203.217882149 105.386274358 220.619870571 92.3717251914 250.376282988 89.920491809 c 1
 332.244704632 610.6417318 l 1
 260.738854825 602.096505613 227.331802129 530.812811447 213.336772293 444.976628455 c 0
 209.828755234 423.161147368 206.661641127 403.512032279 203.795280835 385.728936397 c 0
EndSplineSet
PickledDataWithLists: "(dp0
Vcom.schriftgestaltung.Glyphs.lastChange
p1
V2016-06-09 18:35:33 +0000
p2
s."
EndChar

StartChar: Oslash
Encoding: 216 216 83
GlifName: O_slash
Width: 575
VWidth: 0
Flags: W
LayerCount: 2
Fore
SplineSet
8.39915552324 -36.8758318484 m 2
 82.3088976533 79.9193770667 l 1
 66.8854894941 108.360065325 59.1879722365 141.342638348 59.1879722365 182.494811795 c 0
 59.1879722365 220.527392156 65.4916657255 257.388964647 85.3892077265 375.796011261 c 0
 89.2707543532 398.89446595 93.6646704415 425.040330424 98.6491685028 454.971654763 c 0
 125.327205266 620.776780853 230.871620965 710 356 710 c 0
 395.916897972 710 432.754624043 700.389396259 463.337548669 681.100478706 c 1
 515.329691638 766.010722928 l 2
 522.406633883 777.576705003 533.027513779 786.415089105 546.551768324 786.415089105 c 0
 552.846041512 786.415089105 558.810080454 784.483694411 564.205318779 781.351551324 c 2
 564.205318779 781.351551324 587.137388006 768.389946979 587.284981493 768.305192756 c 0
 597.400812026 762.404291612 604.596214102 752.288964746 604.596214102 740.092447595 c 0
 604.596214102 732.385464817 601.961460581 725.002390468 597.668202486 717.985836644 c 2
 528.427656815 608.660963559 l 1
 540.814426316 581.69767574 547.5 549.863087384 547.5 513.52157419 c 0
 547.5 484.321598369 544.043810773 463.657256476 529.091877357 372.503353886 c 0
 523.776405484 340.097778512 516.984990548 298.693718466 508.347280712 244.792274837 c 0
 481.680077824 81.1768727631 377.274990509 -10 252 -10 c 0
 215.305232613 -10 180.792868212 -2.11943059644 151.254174242 13.9309739502 c 1
 90.5250080685 -85.2480193272 l 2
 83.2977352348 -96.4904437352 72.8343287736 -105.373841463 59.2786737799 -105.373841463 c 0
 53.0462964913 -105.373841463 47.1408126728 -103.455117016 41.7947116986 -100.351568551 c 2
 41.7947116986 -100.351568551 18.8626119937 -87.3899469785 18.7150185067 -87.3051927558 c 0
 8.60469623894 -81.4075047662 1.26700051381 -71.2716381319 1.26700051381 -58.9491910627 c 0
 1.26700051381 -51.2350836898 3.95318873876 -43.8291503544 8.39915552324 -36.8758318484 c 2
403.664764678 583.646701445 m 1
 387.121373139 600.399915318 366.021133285 609 344 609 c 0
 287.960735339 609 225.858443348 551.50015733 208.341288753 442.504528737 c 0
 197.282052995 372.989332545 175.71399753 245.860985484 171.735467128 204.874594205 c 1
 403.664764678 583.646701445 l 1
210.247451084 110.275023705 m 1
 225.915840813 98.2337321147 244.794574913 92 264 92 c 0
 320.069255857 92 381.136202318 148.466526817 398.658711247 257.495471263 c 0
 408.668101746 320.054161882 428.025644529 439.135553291 432.756254283 473.662181591 c 1
 210.247451084 110.275023705 l 1
EndSplineSet
PickledDataWithLists: "(dp0
Vcom.schriftgestaltung.Glyphs.lastChange
p1
V2016-06-09 18:35:33 +0000
p2
s."
EndChar

StartChar: P
Encoding: 80 80 85
GlifName: P_
Width: 575
VWidth: 0
Flags: W
AnchorPoint: "mark-top" 330 700 basechar 0
AnchorPoint: "mark-bottom" 248 0 basechar 0
LayerCount: 2
Fore
SplineSet
156.166665533 692.927936419 m 0
 163.42183149 697.992863597 172.05214588 700 181 700 c 2
 316 700 l 2
 390.760514 700 448.94777067 683.467401596 490.814582844 654.434902874 c 0
 543.375587205 617.986527355 568.5 562.631780909 568.5 500.997311828 c 0
 568.5 347.965050901 422.085523107 247.5 247 247.5 c 2
 182.642689953 247.5 l 1
 146.309590252 33.9206236735 l 2
 144.266087366 22.9130639578 139.041834656 13.1829313187 129.833334467 7.07206358136 c 0
 122.57816851 2.00713640344 113.94785412 0 105 0 c 2
 70 0 l 2
 61.9743345313 0 54.3590394701 1.5138100365 47.9294417868 5.94880363844 c 0
 39.5035255107 11.556734084 35.825 20.8227869368 35.825 29.9073688866 c 0
 35.825 32.7417230717 36.1314759841 35.5757105343 36.6802679067 38.4489798011 c 2
 139.688523934 665.675548872 l 2
 141.732026819 676.848790795 146.958165344 686.725089889 156.166665533 692.927936419 c 0
259 349.5 m 2
 375.498002685 349.5 457.5 408.801223124 457.5 488.058206107 c 0
 457.5 564.986975653 394.672224369 599 304 599 c 2
 239.69432936 599 l 1
 198.614189987 349.5 l 1
 259 349.5 l 2
EndSplineSet
PickledDataWithLists: "(dp0
Vcom.schriftgestaltung.Glyphs.lastChange
p1
V2016-06-09 18:35:33 +0000
p2
s."
EndChar

StartChar: Phi
Encoding: 934 934 86
GlifName: P_hi
Width: 575
VWidth: 0
Flags: W
LayerCount: 2
Fore
SplineSet
613.219682464 606.441401705 m 0
 605.964923416 601.316480175 597.202058561 599 588 599 c 2
 399.78067912 599 l 1
 392.237207738 550.678775015 l 1
 436.26148597 544.41103079 473.250119948 530.484985105 501.520691649 509.09401456 c 0
 540.433885094 479.650288286 561.5 436.594638136 561.5 384.2791587 c 0
 561.5 256.345861276 461.664274061 167.505087649 324.849109287 148.898152194 c 1
 316.691918275 101 l 1
 501 101 l 2
 508.872513468 101 516.454154348 99.3693576559 522.83349708 94.9115686572 c 0
 531.128573952 89.1150933815 535.121463857 79.5516408639 535.121463857 69.7608142618 c 0
 535.121463857 66.9910645174 534.841214162 64.2118208131 534.325299717 61.3987601644 c 2
 530.385668966 35.7911602837 l 2
 528.91632329 23.7718984895 523.392369528 13.3368899925 514.027908147 6.97936575233 c 0
 506.648957732 1.96980308529 497.944529892 0 489 0 c 2
 7 0 l 2
 -1.26597603942 0 -9.12817627992 1.62915678414 -15.5869429675 6.51889148422 c 0
 -23.9869371865 12.8782701706 -26.8693374609 22.7451020094 -26.8693374609 31.9516354425 c 0
 -26.8693374609 34.3962818375 -26.7305537261 36.9670887788 -26.3542603909 39.4129954575 c 0
 -23.4009836505 58.6092942704 -22.6225103887 76.7978554023 -11.6066399788 88.9137186607 c 0
 -4.17151195031 97.0912834967 6.4574374369 101 18 101 c 2
 206.362135779 101 l 1
 214.596163448 149.349328815 l 1
 170.612291812 155.662312879 133.672327965 169.763688371 105.451662057 191.240445603 c 0
 66.5750022208 220.826727798 45.5 263.90183496 45.5 315.7208413 c 0
 45.5 444.492502693 144.343327139 532.524571291 281.141459147 550.211868156 c 1
 289.339432787 599 l 1
 105 599 l 2
 97.0147752708 599 89.2829667411 600.707099992 82.9994507812 605.663054822 c 0
 74.8909958579 612.058381355 72.128817458 621.766173687 72.128817458 630.912916197 c 0
 72.128817458 633.36426349 72.2669006885 635.950542474 72.6457396091 638.412995458 c 0
 75.6165736088 657.723416456 76.3066745997 675.902753312 87.5783548719 688.019411031 c 0
 95.2236874257 696.237873182 106.093900679 700 118 700 c 2
 600 700 l 2
 607.652323885 700 615.121327036 698.645448157 621.589085066 694.349301455 c 0
 630.112190505 688.687909802 634.121463857 678.990765916 634.121463857 669.069942486 c 0
 634.121463857 666.237610599 633.843188884 663.381419086 633.334584922 660.459113992 c 2
 629.379133557 634.748680122 l 2
 627.88385859 623.148748894 622.362666172 612.900206709 613.219682464 606.441401705 c 0
264.829821571 455.831975682 m 1
 196.678825592 437.703519665 156.5 389.939093436 156.5 329 c 0
 156.5 279.571717038 188.613885651 253.633686542 231.674366736 242.939055162 c 1
 264.829821571 455.831975682 l 1
342.170178429 244.168024318 m 1
 410.321174408 262.296480335 450.5 310.060906564 450.5 371 c 0
 450.5 414.485921216 425.112204149 444.621453897 375.321969986 457.037422737 c 1
 342.170178429 244.168024318 l 1
EndSplineSet
PickledDataWithLists: "(dp0
Vcom.schriftgestaltung.Glyphs.lastChange
p1
V2015-12-22 12:22:42 +0000
p2
s."
EndChar

StartChar: Pi
Encoding: 928 928 87
GlifName: P_i
Width: 575
VWidth: 0
Flags: W
LayerCount: 2
Fore
SplineSet
156.166665533 692.927936419 m 0
 163.42183149 697.992863597 172.05214588 700 181 700 c 2
 536 700 l 2
 543.821325378 700 551.312146247 698.749380953 557.822231803 694.484551571 c 0
 566.475095158 689.015006738 570.175 679.619773973 570.175 670.421551156 c 0
 570.175 667.525970304 569.87067078 664.614100761 569.329396809 661.625078874 c 2
 466.375468764 34.7291800571 l 2
 464.921952687 23.8712969608 459.922075995 13.886658371 450.715010356 7.50112020155 c 0
 443.417251197 2.25558969734 434.507283718 0 425 0 c 2
 390 0 l 2
 381.887674064 0 374.066104718 1.76175757322 367.666817898 6.65646584612 c 0
 359.399219794 12.7241273118 356.166666667 22.1569533 356.166666667 31.3849959067 c 0
 356.166666667 33.5484925251 356.337377027 35.7580962173 356.622498783 37.9466997287 c 2
 449.359736524 599 l 1
 239.675321907 599 l 1
 146.375355628 34.5748740622 l 2
 144.921693254 23.7785144798 139.92183713 13.8505027928 130.715010356 7.50112020155 c 0
 123.417251197 2.25558969734 114.507283718 0 105 0 c 2
 70 0 l 2
 61.8876740636 0 54.0661047185 1.76175757322 47.6668178983 6.65646584612 c 0
 39.3992197941 12.7579452473 36.1666666667 22.2433448178 36.1666666667 31.5228196527 c 0
 36.1666666667 33.698127592 36.3372965337 35.9196719953 36.6223960851 38.1203022355 c 2
 139.688523934 665.676535587 l 2
 141.732026819 676.849372965 146.958165344 686.725314472 156.166665533 692.927936419 c 0
EndSplineSet
PickledDataWithLists: "(dp0
Vcom.schriftgestaltung.Glyphs.lastChange
p1
V2015-12-22 12:20:26 +0000
p2
s."
EndChar

StartChar: Psi
Encoding: 936 936 88
GlifName: P_si
Width: 575
VWidth: 0
Flags: W
LayerCount: 2
Fore
SplineSet
501.051774806 688.171855772 m 0
 508.755941346 696.181659562 519.471949151 700 531 700 c 2
 566 700 l 2
 573.821325378 700 581.312146247 698.749380953 587.822231803 694.484551571 c 0
 596.475095158 689.015006738 600.175 679.619773973 600.175 670.421551156 c 0
 600.175 667.528784267 599.871261995 664.619760329 599.330974188 661.633792964 c 2
 561.340177292 428.188403046 l 2
 552.165237019 373.301173402 531.600085171 327.359164389 499.278459942 292.125152113 c 0
 460.570547773 249.929407223 405.771333923 224.060024558 336.822815847 215.583981361 c 1
 306.372161296 34.7045200604 l 2
 304.914379465 23.8561802904 299.915105329 13.8818238821 290.715010356 7.50112020155 c 0
 283.417251197 2.25558969734 274.507283718 0 265 0 c 2
 230 0 l 2
 221.887674064 0 214.066104718 1.76175757322 207.666817898 6.65646584612 c 0
 199.399219794 12.7564489882 196.166666667 22.2395224646 196.166666667 31.5167217041 c 0
 196.166666667 33.6987035914 196.339644665 35.9306161536 196.625392981 38.1357132016 c 2
 226.594345415 216.103685096 l 1
 183.358777626 222.419379819 148.148610646 236.209910824 121.751227362 257.80237947 c 0
 85.3020255797 287.617010648 67.5 331.168535096 67.5 384.634642651 c 0
 67.5 399.595578182 68.5225449105 415.705616699 71.6798298272 432.026646934 c 0
 84.3594821799 509.896491737 97.0266011835 587.778426398 109.714178408 665.64062675 c 0
 111.380292321 674.212139194 114.972638978 682.075193981 121.051774806 688.171855772 c 0
 128.755941346 696.181659562 139.471949151 700 151 700 c 2
 186 700 l 2
 193.652323885 700 201.121327036 698.645448157 207.589085066 694.349301455 c 0
 216.112190505 688.687909802 220.121463857 678.990765916 220.121463857 669.069942486 c 0
 220.121463857 666.231112034 219.841910459 663.368312344 219.331080428 660.438997945 c 0
 206.636790472 579.642011075 193.967317971 498.820206748 181.257344926 418.038902966 c 0
 179.591095301 409.70765484 179.5 399.472412621 179.5 390.5 c 0
 179.5 368.266726598 184.259262818 350.200952403 193.524230355 336.275706195 c 0
 203.362292325 321.489099054 218.920019132 310.148859248 242.731002249 303.632021893 c 1
 261.726854631 424.024592478 280.710782346 544.429087731 299.714178408 664.814114636 c 0
 301.380292321 673.700055506 304.972638978 681.851550397 311.051774806 688.171855772 c 0
 318.755941346 696.181659562 329.471949151 700 341 700 c 2
 376 700 l 2
 384.025665469 700 391.64096053 698.486189963 398.070558213 694.051196362 c 0
 406.496474489 688.239186557 410.175 678.635930854 410.175 669.22075 c 0
 410.175 666.284720766 409.868830785 663.349071219 409.320556092 660.372771656 c 2
 353.215797493 304.725657827 l 1
 410.765671241 320.749187725 442.222053414 362.44449856 451.651678559 422.451204027 c 0
 464.340714663 503.237304742 477.017217434 584.035938792 489.714178408 664.814114636 c 0
 491.380292321 673.700055506 494.972638978 681.851550397 501.051774806 688.171855772 c 0
EndSplineSet
PickledDataWithLists: "(dp0
Vcom.schriftgestaltung.Glyphs.lastChange
p1
V2015-12-22 12:24:48 +0000
p2
s."
EndChar

StartChar: Q
Encoding: 81 81 89
GlifName: Q_
Width: 575
VWidth: 0
Flags: W
AnchorPoint: "mark-top" 330 700 basechar 0
LayerCount: 2
Fore
SplineSet
464.805472142 -199.411988513 m 0
 430.948682085 -210.998241573 355.786313826 -220.103616366 352.726730978 -220.103616366 c 0
 248.836316502 -219.998376881 186.826990205 -160.286074125 186.826990205 -49.7351480611 c 0
 186.826990205 -11.0994348059 195.590975986 32.5808315569 201.373697364 68 c 1
 312.707935289 68 l 1
 309.254569673 46.8479872705 305.801044248 25.6961343505 302.347599067 4.54420118646 c 0
 299.455162716 -13.8312768077 298.115913208 -29.6429367169 298.115913208 -43.0675173646 c 0
 298.115913208 -78.5756570422 307.195714277 -96.2712958947 319.681784012 -105.62329664 c 0
 329.976248238 -113.333796353 345.068504277 -117 365 -117 c 0
 388.581857424 -117 410.880380153 -113.329168923 437.713180811 -103.755253095 c 0
 442.758817016 -101.871783066 453.432897909 -100.504441045 453.905311681 -100.524782204 c 0
 469.833255217 -100.524782204 480.344713362 -111.998053736 484.976971613 -125.894828487 c 0
 487.396420545 -134.950195486 489.874224657 -143.947207305 492.257344926 -153.038902966 c 0
 492.933806746 -156.421212065 493.319079927 -159.823652872 493.319079927 -163.262292605 c 0
 493.319079927 -171.980316735 490.637297318 -180.875581111 484.21895104 -187.874539814 c 0
 479.204275139 -193.342850189 472.503899245 -197.105893247 464.805472142 -199.411988513 c 0
EndSplineSet
Refer: 74 79 N 1 0 0 1 0 0 2
PickledDataWithLists: "(dp0
Vcom.schriftgestaltung.Glyphs.lastChange
p1
V2016-06-09 18:35:33 +0000
p2
s."
EndChar

StartChar: R
Encoding: 82 82 90
GlifName: R_
Width: 575
VWidth: 0
Flags: W
AnchorPoint: "mark-top" 330 700 basechar 0
AnchorPoint: "mark-bottom" 248 0 basechar 0
LayerCount: 2
Fore
SplineSet
156.166665533 692.927936419 m 0
 163.42183149 697.992863597 172.05214588 700 181 700 c 2
 339 700 l 2
 401.729422868 700 451.594008801 686.485803335 487.979679102 662.116284518 c 0
 533.70476959 631.491633552 556.5 584.359127264 556.5 530.60585854 c 0
 556.5 449.023751721 503.463715609 367.570630581 426.440789958 329.414209565 c 1
 527.861773703 45.0583187445 l 2
 529.394401134 40.6204023704 530.236739241 36.1834919093 530.236739241 31.7449836682 c 0
 530.236739241 21.4914771693 525.24379823 12.0481534261 516.541563934 6.42783338769 c 0
 509.775239726 1.90029842967 501.652791778 0 493 0 c 2
 451 0 l 2
 443.20078403 0 435.820350592 1.48818874307 429.386399582 5.2749283024 c 0
 421.207166396 9.89268107221 416.022593677 17.3824813485 413.162401926 25.6133714898 c 2
 316.045884828 299.5 l 1
 190.6576372 299.5 l 1
 146.309590252 34.158664918 l 2
 144.266087366 23.0535113945 139.041834656 13.2371107069 129.833334467 7.07206358136 c 0
 122.57816851 2.00713640344 113.94785412 0 105 0 c 2
 70 0 l 2
 61.9743345313 0 54.3590394701 1.5138100365 47.9294417868 5.94880363844 c 0
 39.5035255107 11.556734084 35.825 20.8227869368 35.825 29.9073688866 c 0
 35.825 32.7417230717 36.1314759841 35.5757105343 36.6802679067 38.4489798011 c 2
 139.688523934 665.675548872 l 2
 141.732026819 676.848790795 146.958165344 686.725089889 156.166665533 692.927936419 c 0
290 401.5 m 2
 378.814661727 401.5 444.5 452.206308616 444.5 512.946428571 c 0
 444.5 569.335910793 395.63903658 599 327 599 c 2
 239.687448251 599 l 1
 206.623618464 401.5 l 1
 290 401.5 l 2
EndSplineSet
PickledDataWithLists: "(dp0
Vcom.schriftgestaltung.Glyphs.lastChange
p1
V2016-06-09 18:35:33 +0000
p2
s."
EndChar

StartChar: S
Encoding: 83 83 94
GlifName: S_
Width: 575
VWidth: 0
Flags: W
AnchorPoint: "mark-top" 330 700 basechar 0
AnchorPoint: "mark-bottom" 248 0 basechar 0
LayerCount: 2
Back
SplineSet
531 652 m 258
 517 625 l 258
 510 610 498 605 484 611 c 256
 451 624 415 634 377 634 c 259
 294 634 210 586 210 511 c 259
 210 463 242 419 316 403 c 256
 446 375 507 307 507 220 c 259
 507 78 363 -10 209 -10 c 259
 161 -10 107 0 65 20 c 256
 51 26 48 38 57 53 c 258
 72 78 l 258
 80 93 92 98 106 92 c 264
 150.201684494 73.0564209313 192 69 226 69 c 259
 323 69 419 118 419 204 c 259
 419 256 382 299 295 318 c 256
 171 345 122 415 122 493 c 259
 122 623 248 710 389 710 c 259
 432 710 486 701 525 683 c 256
 538 676 538 668 531 652 c 258
EndSplineSet
Fore
SplineSet
61.1208177944 96.663517055 m 2
 68.2563343657 109.861554574 79.9998618963 119.475217796 94.8996616773 119.475217796 c 0
 100.399417401 119.475217796 105.767516493 118.20121624 110.914941489 115.995176955 c 0
 153.08027933 97.9243178813 193.013871057 94 226 94 c 0
 320.921129957 94 406.5 139.859565824 406.5 211.722308892 c 0
 406.5 274.675959654 354.165751628 291.033135346 284.35536769 311.825031727 c 0
 249.000499299 322.354908784 211.099555343 333.444761818 179.125587273 353.925417895 c 0
 138.683125198 379.830496516 109.5 421.034130918 109.5 489.450858034 c 0
 109.5 623.434007373 243.889247417 710 389 710 c 0
 433.849305617 710 489.12983031 700.824257168 530.575472082 681.695499427 c 0
 540.185059935 676.521105968 548.171370738 667.925477245 548.171370738 656.046809244 c 0
 548.171370738 648.460177479 545.707311452 640.707006368 542.104469228 633.758667794 c 2
 528.216146854 606.974046072 l 2
 521.783181658 593.375063656 510.028704611 583.524782204 495.07926922 583.524782204 c 0
 489.655389609 583.524782204 484.358602282 584.769055829 479.267430583 586.927090543 c 0
 447.136313279 599.571313652 412.702667368 609 377 609 c 0
 296.864276985 609 222.5 564.533412743 222.5 502.789596273 c 0
 222.5 438.2133406 275.922324557 421.06201212 346.236212899 399.469744891 c 0
 381.408121561 388.66901592 418.967858451 377.329027932 450.614279038 356.87339363 c 0
 490.627036958 331.009920661 519.5 290.263848057 519.5 223.086180124 c 0
 519.5 76.902279306 366.340065974 -10 209 -10 c 0
 159.372875722 -10 104.016939917 0.124304442787 59.8419562915 21.1099438839 c 0
 48.1235794359 26.2221713825 39.3834902 36.5819553591 39.383489572 49.8255276991 c 0
 39.383489572 57.5578760384 42.0545665743 64.8864316882 46.2733900451 71.9178041394 c 2
 61.1208177944 96.663517055 l 2
EndSplineSet
PickledDataWithLists: "(dp0
Vcom.schriftgestaltung.Glyphs.lastChange
p1
V2016-06-09 18:35:33 +0000
p2
s."
EndChar

StartChar: T
Encoding: 84 84 100
GlifName: T_
Width: 575
VWidth: 0
Flags: W
AnchorPoint: "mark-top" 330 700 basechar 0
AnchorPoint: "mark-bottom" 248 0 basechar 0
LayerCount: 2
Fore
SplineSet
93.1666655328 692.927936419 m 0
 100.42183149 697.992863597 109.05214588 700 118 700 c 2
 600 700 l 2
 608.025665469 700 615.64096053 698.486189963 622.070558213 694.051196362 c 0
 630.496474489 688.239186557 634.175 678.635930854 634.175 669.22075 c 0
 634.175 666.292850773 633.870524032 663.365329134 633.325105119 660.397495275 c 0
 631.988784543 651.71141153 630.836182414 642.967186162 629.309590252 634.31649724 c 0
 627.266087366 622.736647555 622.041834656 612.500639185 612.833334467 606.072063581 c 0
 605.57816851 601.007136403 596.94785412 599 588 599 c 2
 399.675321907 599 l 1
 306.31144754 34.1716549353 l 2
 304.267944654 23.0610598015 299.041834656 13.2401316273 289.833334467 7.07206358136 c 0
 282.57816851 2.00713640344 273.94785412 0 265 0 c 2
 230 0 l 2
 221.974334531 0 214.35903947 1.5138100365 207.929441787 5.94880363844 c 0
 199.503525511 11.5257192536 195.825 20.7405259183 195.825 29.7748653104 c 0
 195.825 32.5938154404 196.131535012 35.412400806 196.680426453 38.270062048 c 2
 289.359736524 599 l 1
 106 599 l 2
 97.9743345313 599 90.3590394701 600.513810037 83.9294417868 604.948803638 c 0
 75.5035255107 610.760813443 71.825 620.364069146 71.825 629.77925 c 0
 71.825 632.707149227 72.129475968 635.634670866 72.6748948809 638.602504725 c 0
 74.0112154572 647.28858847 75.1638175856 656.032813838 76.6904097482 664.68350276 c 0
 78.7339126339 676.263352445 83.9581653437 686.499360815 93.1666655328 692.927936419 c 0
EndSplineSet
PickledDataWithLists: "(dp0
Vcom.schriftgestaltung.Glyphs.lastChange
p1
V2016-06-09 18:35:33 +0000
p2
s."
EndChar

StartChar: Theta
Encoding: 920 920 104
GlifName: T_heta
Width: 575
VWidth: 0
Flags: W
LayerCount: 2
Fore
SplineSet
352.352677057 345.04673403 m 1
 349.655907633 324.787709208 334.19213638 309.5 311 309.5 c 2
 282 309.5 l 2
 273.887674064 309.5 266.066104718 311.261757573 259.666817898 316.156465846 c 0
 251.399219794 322.48021441 248.166666667 332.311155066 248.166666667 341.92866941 c 0
 248.166666667 344.315470328 248.279062689 346.964660596 248.709083488 349.286772912 c 2
 253.647322943 375.95326597 l 1
 256.344092367 396.212290792 271.80786362 411.5 295 411.5 c 2
 324 411.5 l 2
 332.112325936 411.5 339.933895282 409.738242427 346.333182102 404.843534154 c 0
 354.600780206 398.51978559 357.833333333 388.688844934 357.833333333 379.07133059 c 0
 357.833333333 376.684529672 357.720937311 374.035339404 357.290916512 371.713227088 c 2
 352.352677057 345.04673403 l 1
EndSplineSet
Refer: 74 79 N 1 0 0 1 0 0 2
PickledDataWithLists: "(dp0
Vcom.schriftgestaltung.Glyphs.lastChange
p1
V2016-05-30 08:32:14 +0000
p2
s."
EndChar

StartChar: Thorn
Encoding: 222 222 105
GlifName: T_horn
Width: 575
VWidth: 0
Flags: W
LayerCount: 2
Fore
SplineSet
130.219682464 7.44140170465 m 0
 122.964923416 2.31648017547 114.202058561 0 105 0 c 2
 70 0 l 2
 61.8876740636 0 54.0661047185 1.76175757322 47.6668178983 6.65646584612 c 0
 39.3992197941 12.7564489882 36.1666666667 22.2395224646 36.1666666667 31.5167217041 c 0
 36.1666666667 33.6914961951 36.3372965337 35.9124958115 36.6223960851 38.1125863935 c 2
 139.709296134 665.641373027 l 2
 141.375410047 674.212885472 144.972638978 682.075193981 151.051774806 688.171855772 c 0
 158.755941346 696.181659562 169.471949151 700 181 700 c 2
 216 700 l 2
 223.872513468 700 231.454154348 698.369357656 237.83349708 693.911568657 c 0
 246.128573952 688.318772873 250.121463857 679.091365806 250.121463857 669.644574241 c 0
 250.121463857 666.963990124 249.839500275 664.27418963 249.320567676 661.551488836 c 2
 245.872139799 640.478872149 l 1
 276.26226486 643.111728719 301.921811152 643.824095059 321 643.824095059 c 0
 383.562649232 643.824095059 432.41190848 633.902276226 467.808332239 608.495042642 c 0
 512.512596708 576.406724983 531.5 522.257636462 531.5 444.580196917 c 0
 531.5 359.951297606 515.343632508 286.092928601 478.327735559 229.551253325 c 0
 431.763025822 158.423794201 352.807892449 117.00972031 239 117.00972031 c 0
 220.713134325 117.00972031 193.611045434 117.797055698 160.502451517 120.769465933 c 1
 146.375309436 34.725448785 l 2
 144.874463953 23.5448592428 139.354889677 13.6679534851 130.219682464 7.44140170465 c 0
390.87536155 285.723877883 m 0
 411.428696402 323.724005193 420.5 375.300459258 420.5 435 c 0
 420.5 477.485774515 413.67887061 505.046992785 400.917728616 522.046656941 c 0
 385.35659216 542.77631372 357.845066904 552.5 309 552.5 c 0
 292.560157032 552.5 264.706888436 550.22516307 229.792923178 550.22516307 c 1
 176.468482298 213.439220672 l 1
 207.375878034 211.257536034 250.324017993 210.500248479 251 210.5 c 0
 322.790774094 210.473611003 365.50958722 238.826249796 390.87536155 285.723877883 c 0
EndSplineSet
PickledDataWithLists: "(dp0
Vcom.schriftgestaltung.Glyphs.lastChange
p1
V2016-06-09 18:35:33 +0000
p2
s."
EndChar

StartChar: U
Encoding: 85 85 106
GlifName: U_
Width: 575
VWidth: 0
Flags: W
AnchorPoint: "mark-top" 330 700 basechar 0
AnchorPoint: "mark-bottom" 248 0 basechar 0
AnchorPoint: "mark-ogonek" 326 5 basechar 0
LayerCount: 2
Fore
SplineSet
431.490136546 52.9679661689 m 0
 386.939274774 7.40943488913 326.690611197 -10 259 -10 c 0
 141.463557709 -10 54.5 42.4688382471 54.5 158.506961704 c 0
 54.5 177.720134313 56.1054308863 197.623622321 59.6123196639 219.055662977 c 2
 132.68842745 665.653833719 l 2
 134.731930335 676.835984364 139.958165344 686.720144195 149.166665533 692.927936419 c 0
 156.42183149 697.992863597 165.05214588 700 174 700 c 2
 209 700 l 2
 217.025665469 700 224.64096053 698.486189963 231.070558213 694.051196362 c 0
 239.496474489 688.470537514 243.175 679.249545859 243.175 670.209142607 c 0
 243.175 667.389475751 242.868720382 664.5701736 242.320259539 661.711818354 c 2
 169.360908751 218.349057892 l 2
 166.40050659 198.439283584 164.5 181.607848783 164.5 168.295643394 c 0
 164.5 135.021599873 177.503938447 116.38045701 199.025888322 104.929964485 c 0
 216.711949739 95.5203099115 241.566118253 91 271 91 c 0
 315.729392261 91 341.8656887 101.009575966 360.306577111 124.945132032 c 0
 375.452251888 144.603628939 386.219843021 175.838993494 393.653539343 222.021282694 c 2
 466.68842745 665.810106531 l 2
 468.731930335 676.928186649 473.958165344 686.75571307 483.166665533 692.927936419 c 0
 490.42183149 697.992863597 499.05214588 700 508 700 c 2
 543 700 l 2
 551.025665469 700 558.64096053 698.486189963 565.070558213 694.051196362 c 0
 573.496474489 688.438487026 577.175 679.164537953 577.175 670.072214427 c 0
 577.175 667.236353697 576.868720352 664.400859768 576.320259457 661.526088451 c 2
 503.350831497 215.555643352 l 2
 491.544247468 142.321501082 467.008741946 89.2899458286 431.490136546 52.9679661689 c 0
EndSplineSet
PickledDataWithLists: "(dp0
Vcom.schriftgestaltung.Glyphs.lastChange
p1
V2016-06-09 18:35:33 +0000
p2
s."
EndChar

StartChar: V
Encoding: 86 86 117
GlifName: V_
Width: 575
VWidth: 0
Flags: W
AnchorPoint: "mark-top" 330 700 basechar 0
AnchorPoint: "mark-bottom" 248 0 basechar 0
LayerCount: 2
Fore
SplineSet
236.480520169 105.597420076 m 0
 236.95955507 97.3182965705 245.267157989 91 259 91 c 0
 272.193728173 91 285.538197721 97.9721636977 290.343463791 109.263119973 c 2
 529.388913039 670.949335832 l 2
 532.607735726 678.674238938 537.152936043 685.431635099 543.487659941 690.473577475 c 0
 551.488828966 697.107458123 561.480113061 700 572 700 c 2
 608 700 l 2
 615.285532709 700 622.260714872 698.533265914 628.260251676 694.688739121 c 0
 636.049689752 689.868251336 640.619474479 681.45529864 640.619474479 672.46292984 c 0
 640.619474479 666.837579405 639.08367755 661.339323554 636.463019034 655.878136589 c 2
 394.624758763 83.5793343143 l 2
 369.816887679 23.1636997444 316.761161893 -10 253 -10 c 0
 190.030008703 -10 132.402777462 22.9594704968 125.551929661 86.9406451337 c 0
 107.543807796 278.015207772 89.5200544811 469.074670642 71.5218244226 660.15878863 c 0
 71.4577125563 661.211618869 71.4248745289 662.259448427 71.4248745289 663.302709068 c 0
 71.4248745289 672.026609092 73.7544795758 680.511362429 79.4270130523 687.320014565 c 0
 86.6551432015 695.995824762 97.8452892666 700 110 700 c 2
 145 700 l 2
 153.34772284 700 161.480274386 698.320383888 168.372615058 693.548057457 c 0
 177.227862016 687.660857522 181.697327759 678.006855496 182.460226321 667.591323138 c 0
 200.464505178 480.257635385 218.489090052 292.943444706 236.480520169 105.597420076 c 0
EndSplineSet
PickledDataWithLists: "(dp0
Vcom.schriftgestaltung.Glyphs.lastChange
p1
V2016-06-09 18:35:33 +0000
p2
s."
EndChar

StartChar: X
Encoding: 88 88 123
GlifName: X_
Width: 575
VWidth: 0
Flags: W
AnchorPoint: "mark-top" 330 700 basechar 0
AnchorPoint: "mark-bottom" 248 0 basechar 0
LayerCount: 2
Fore
SplineSet
512.045667438 44.4783273339 m 0
 513.220014976 40.3987870416 513.862981551 36.3491724562 513.862981551 32.3115560756 c 0
 513.862981551 22.273963207 509.429482634 12.6575904366 500.744192942 6.73830354777 c 0
 493.997207018 1.97308525417 485.780544792 0 477 0 c 2
 446 0 l 2
 425.638810078 0 412.302571709 10.6315108891 407.159591679 25.467030206 c 2
 313.198054773 291.70588107 l 2
 306.132268236 311.117382544 300.21924413 312.5 300 312.5 c 0
 296.742816436 312.5 287.13300093 307.78159776 275.586859418 289.278152044 c 2
 92.4080872856 22.6719963332 l 2
 82.6148460927 8.54712922797 68.1754443635 0 50 0 c 2
 19 0 l 2
 11.8844403826 0 5.18614828806 1.22134744554 -0.696833253497 4.72875993259 c 0
 -8.42502646729 9.17497382781 -12.9820726765 17.3050828119 -12.9820726765 25.8155929857 c 0
 -12.9820726765 33.3337408616 -10.3035162111 40.5245580946 -5.67688061628 47.4565290103 c 2
 184.417602239 332.270277439 l 2
 190.722203013 342.108895007 200.526963246 351.122018833 211.807269782 358.112273618 c 1
 203.185697762 365.303584202 196.267881664 374.341589265 193.043232595 385.04340144 c 2
 102.151579244 655.882870126 l 2
 100.563367437 660.271403451 99.6666471712 664.703024381 99.6666471712 669.186082822 c 0
 99.6666471712 679.072444111 104.586350125 688.358659598 113.323639463 693.819934349 c 0
 120.089437841 698.202347698 128.198954968 700 137 700 c 2
 168 700 l 2
 175.505343872 700 182.77318039 698.860930815 189.346511344 695.207090176 c 0
 197.733506896 690.736044157 203.046278618 682.987368913 205.881765276 674.288749184 c 2
 296.926857049 421.935141302 l 2
 302.806131166 404.079942751 308.326651768 402.5 310 402.5 c 0
 312.454588684 402.5 322.001406662 406.389168095 334.53097484 424.888158332 c 2
 506.44230931 677.153210607 l 2
 516.735773704 693.094073893 532.718532062 700 550 700 c 2
 581 700 l 2
 588.119723227 700 594.784779813 698.775106034 600.633893316 695.33411471 c 0
 608.294403686 690.985375963 612.982072677 682.972192391 612.982072677 674.46851641 c 0
 612.982072677 666.978285392 610.065548478 660.055660919 605.533405309 653.29682441 c 2
 425.522445727 382.124852557 l 2
 418.673680152 371.844454952 408.927715393 362.959187978 397.625693343 355.912273758 c 1
 406.515567411 348.518443676 412.997893521 339.453024266 416.795414962 329.92537707 c 0
 448.542882136 234.773835189 480.311699284 139.642895311 512.045667438 44.4783273339 c 0
EndSplineSet
PickledDataWithLists: "(dp0
Vcom.schriftgestaltung.Glyphs.lastChange
p1
V2016-06-09 18:35:33 +0000
p2
s."
EndChar

StartChar: Xi
Encoding: 926 926 124
GlifName: X_i
Width: 575
VWidth: 0
Flags: W
LayerCount: 2
Fore
SplineSet
553.027908147 605.979365752 m 0
 545.648957732 600.969803085 536.944529892 599 528 599 c 2
 165 599 l 2
 157.122265652 599 149.408970176 600.45622036 142.900791789 605.198530867 c 0
 134.382454423 611.40558273 131.166666667 621.387362668 131.166666667 631.165294925 c 0
 131.166666667 633.514359184 131.28116554 636.043264006 131.645739609 638.412995458 c 0
 132.99177055 647.162196571 134.152720042 655.969927757 135.690409748 664.68350276 c 0
 137.733912634 676.263352445 142.958165344 686.499360815 152.166665533 692.927936419 c 0
 159.42183149 697.992863597 168.05214588 700 177 700 c 2
 540 700 l 2
 547.652323885 700 555.121327036 698.645448157 561.589085066 694.349301455 c 0
 570.112190505 688.687909802 574.121463857 678.990765916 574.121463857 669.069942486 c 0
 574.121463857 666.237610599 573.843188884 663.381419086 573.334584922 660.459113992 c 2
 569.385668966 634.791160284 l 2
 567.91632329 622.771898489 562.392369528 612.336889992 553.027908147 605.979365752 c 0
121.051774806 403.671855772 m 0
 128.755941346 411.681659562 139.471949151 415.5 151 415.5 c 2
 472 415.5 l 2
 479.872513468 415.5 487.454154348 413.869357656 493.83349708 409.411568657 c 0
 502.128573952 403.615093381 506.121463857 394.051640864 506.121463857 384.260814262 c 0
 506.121463857 381.502990479 505.843622359 378.735754319 505.331950865 375.935095634 c 0
 502.372145873 355.956411941 501.630542303 337.473918514 489.948225194 325.328144228 c 0
 482.244058654 317.318340438 471.528050849 313.5 460 313.5 c 2
 139 313.5 l 2
 131.127486532 313.5 123.545845652 315.130642344 117.16650292 319.588431343 c 0
 108.871426048 325.384906619 104.878536143 334.948359136 104.878536143 344.739185738 c 0
 104.878536143 347.497009521 105.156377641 350.264245681 105.668049135 353.064904366 c 0
 108.627854127 373.043588059 109.369457697 391.526081486 121.051774806 403.671855772 c 0
15.6473229431 66.4532659705 m 1
 18.3440923674 86.7122907923 33.8078636195 102 57 102 c 2
 464 102 l 2
 472.112325936 102 479.933895282 100.238242427 486.333182102 95.3435341539 c 0
 494.600780206 89.0197855902 497.833333333 79.1888449336 497.833333333 69.5713305898 c 0
 497.833333333 67.1845296724 497.720937311 64.535339404 497.290916512 62.2132270882 c 2
 492.352677057 35.5467340295 l 1
 489.655907633 15.2877092077 474.19213638 0 451 0 c 2
 44 0 l 2
 35.8876740636 0 28.0661047185 1.76175757322 21.6668178983 6.65646584612 c 0
 13.3992197941 12.9802144098 10.1666666667 22.8111550664 10.1666666667 32.4286694102 c 0
 10.1666666667 34.8154703276 10.2790626885 37.464660596 10.7090834877 39.7867729118 c 2
 15.6473229431 66.4532659705 l 1
EndSplineSet
PickledDataWithLists: "(dp0
Vcom.schriftgestaltung.Glyphs.lastChange
p1
V2015-12-22 12:18:54 +0000
p2
s."
EndChar

StartChar: Y
Encoding: 89 89 125
GlifName: Y_
Width: 575
VWidth: 0
Flags: W
AnchorPoint: "mark-top" 330 700 basechar 0
AnchorPoint: "mark-bottom" 248 0 basechar 0
LayerCount: 2
Fore
SplineSet
523.452325772 676.209419252 m 2
 533.746140419 692.808575631 549.724136529 700 567 700 c 2
 603 700 l 2
 610.213736384 700 616.869707918 698.861035842 622.751223363 695.520194421 c 0
 630.504547848 691.270444246 635.213162824 683.260959703 635.213162824 674.868280046 c 0
 635.213162824 667.171891189 632.060284971 660.054836833 627.457664255 653.190947943 c 2
 436.408087286 372.315584987 l 2
 414.590392033 340.735815836 385.694242268 318.374632604 351.133378879 306.997905128 c 1
 306.311442736 34.326497959 l 2
 304.267939851 23.152418826 299.041834656 13.2753748903 289.833334467 7.07206358136 c 0
 282.57816851 2.00713640344 273.94785412 0 265 0 c 2
 230 0 l 2
 221.974334531 0 214.35903947 1.5138100365 207.929441787 5.94880363844 c 0
 199.503525511 11.5587412599 195.825 20.8281105942 195.825 29.9159440738 c 0
 195.825 32.7516319432 196.131544997 35.5869528762 196.680453273 38.4615829882 c 2
 241.051909611 308.468906173 l 1
 211.565397243 320.5559463 189.174010985 343.464742886 179.097163281 375.362764026 c 1
 80.2789034164 655.72963213 l 2
 78.3472497427 660.368338451 77.2627924145 665.091841561 77.2627924145 669.872505767 c 0
 77.2627924145 689.467616067 95.3271509335 700 114 700 c 2
 151 700 l 2
 158.505343872 700 165.77318039 698.860930815 172.346511344 695.207090176 c 0
 180.740651902 690.541137386 186.055328444 682.451759357 188.889006661 673.372252462 c 2
 281.781781014 401.685858654 l 2
 287.410441977 386.517146135 296.868234811 380 309 380 c 0
 321.445971273 380 333.536976782 387.622967156 344.421749855 404.162957524 c 2
 523.452325772 676.209419252 l 2
EndSplineSet
PickledDataWithLists: "(dp0
Vcom.schriftgestaltung.Glyphs.lastChange
p1
V2016-06-09 18:35:33 +0000
p2
s."
EndChar

StartChar: Z
Encoding: 90 90 130
GlifName: Z_
Width: 575
VWidth: 0
Flags: W
AnchorPoint: "mark-top" 330 700 basechar 0
AnchorPoint: "mark-bottom" 248 0 basechar 0
LayerCount: 2
Fore
SplineSet
138.556842447 102 m 1
 458 102 l 2
 466.025665469 102 473.64096053 100.486189963 480.070558213 96.0511963616 c 0
 488.496474489 90.2391865569 492.175 80.6359308543 492.175 71.22075 c 0
 492.175 68.2232858937 491.860978794 65.2535592553 491.290916512 62.2132270882 c 2
 486.309590252 35.3164972402 l 2
 484.266087366 23.7366475549 479.041834656 13.5006391851 469.833334467 7.07206358136 c 0
 462.57816851 2.00713640344 453.94785412 0 445 0 c 2
 50 0 l 2
 41.9743345313 0 34.3590394701 1.5138100365 27.9294417868 5.94880363844 c 0
 19.5035255107 11.5257192536 15.825 20.7405259183 15.825 29.7748653104 c 0
 15.825 32.6098896598 16.135040827 35.4445450729 16.689839749 38.3189507406 c 2
 21.6591068689 66.9273866948 l 2
 36.0501125837 152.739796381 76.2756304422 226.428119455 134.840792855 275.599810018 c 2
 411.844874639 504.93570401 l 2
 435.446763909 524.459151747 455.685438601 557.041259157 467.220880897 599 c 1
 180 599 l 2
 171.974334531 599 164.35903947 600.513810037 157.929441787 604.948803638 c 0
 149.503525511 610.760813443 145.825 620.364069146 145.825 629.77925 c 0
 145.825 632.707149227 146.129475968 635.634670866 146.674894881 638.602504725 c 0
 148.011215457 647.28858847 149.163817586 656.032813838 150.690409748 664.68350276 c 0
 152.733912634 676.263352445 157.958165344 686.499360815 167.166665533 692.927936419 c 0
 174.42183149 697.992863597 183.05214588 700 192 700 c 2
 556 700 l 2
 564.025665469 700 571.64096053 698.486189963 578.070558213 694.051196362 c 0
 586.496474489 688.474661743 590.175 679.260484603 590.175 670.226762407 c 0
 590.175 667.458642087 589.879379486 664.690873521 589.348920018 661.886106241 c 0
 588.014790459 652.285529259 586.970279025 642.586865868 585.334146981 633.036983352 c 0
 572.857787127 560.214150207 533.441605588 492.505687784 474.173591076 443.62023216 c 2
 199.053599303 215.16448408 l 2
 172.80249234 193.912500497 151.684162746 154.79844197 138.556842447 102 c 1
EndSplineSet
PickledDataWithLists: "(dp0
Vcom.schriftgestaltung.Glyphs.lastChange
p1
V2016-06-09 18:35:33 +0000
p2
s."
EndChar

StartChar: a
Encoding: 97 97 135
GlifName: a
Width: 575
VWidth: 0
Flags: W
AnchorPoint: "mark-top" 300 500 basechar 0
AnchorPoint: "mark-bottom" 248 0 basechar 0
AnchorPoint: "mark-ogonek" 417 0 basechar 0
LayerCount: 2
Fore
SplineSet
97.6977053603 46.1913970534 m 0
 76.2325262509 78.6360970003 64.5 125.630532658 64.5 191.798165138 c 0
 64.5 270.070191366 80.5079269242 341.342291191 117.34513486 396.946620258 c 0
 163.65527287 466.849967912 242.440450931 510 357 510 c 0
 386.553639569 510 441.366996259 507.928978334 502.977935943 499.848855097 c 0
 510.839654508 498.374782866 518.01164283 495.578629781 523.883649081 490.470087396 c 0
 531.255600181 484.367668793 535.121463857 475.503084698 535.121463857 466.065404797 c 0
 535.121463857 463.407601847 534.843313239 460.739367769 534.324936514 458.049359232 c 2
 466.37918521 38.77235897 l 2
 463.99090335 21.0607670604 452.02436305 0 427 0 c 2
 390 0 l 2
 382.127486532 0 374.545845652 1.63064234413 368.16650292 6.08843134283 c 0
 359.871426048 11.8849066185 355.878536143 21.4483591361 355.878536143 31.2391857382 c 0
 355.878536143 35.8436716828 356.833566649 40.6031907077 357.505589091 44.8593328447 c 1
 309.713964393 9.0309891458 258.522928558 -10 212 -10 c 0
 166.901353236 -10 124.887245806 5.09430315282 97.6977053603 46.1913970534 c 0
418.488656314 406.256803139 m 1
 386.800798932 408.293840398 360.41904205 409 345 409 c 0
 273.564352004 409 230.610941744 380.681791059 205.106077305 337.287779211 c 0
 184.496513208 302.222638179 175.5 256.364574686 175.5 207.352769679 c 0
 175.5 162.955741909 181.919123369 134.404414571 191.54529914 117.407345126 c 0
 203.092757932 97.0178401257 218.909270892 91 242 91 c 0
 276.779975854 91 326.302046502 114.530204029 376.264723305 163.549204536 c 1
 418.488656314 406.256803139 l 1
EndSplineSet
PickledDataWithLists: "(dp0
Vcom.schriftgestaltung.Glyphs.lastChange
p1
V2016-06-09 18:35:33 +0000
p2
s."
EndChar

StartChar: a.hex
Encoding: 65543 -1 136
GlifName: a.hex
Width: 575
VWidth: 0
Flags: W
LayerCount: 2
Fore
SplineSet
218.55741299 887.371981446 m 0
 224.19283348 880.419189933 226.5 871.663948788 226.5 862.5 c 2
 226.5 816.5 l 2
 226.5 804.711960809 222.807914482 793.571005345 213.681479294 786.461992673 c 0
 206.587996051 780.936542567 197.895291841 779 189 779 c 2
 154 779 l 2
 142.211960809 779 131.071005345 782.692085518 123.961992673 791.818520706 c 0
 118.436542567 798.912003949 116.5 807.604708159 116.5 816.5 c 2
 116.5 862.5 l 2
 116.5 871.663948788 118.80716652 880.419189933 124.44258701 887.371981446 c 0
 131.623195185 896.23117335 142.56864016 900 154 900 c 2
 189 900 l 2
 200.43135984 900 211.376804815 896.23117335 218.55741299 887.371981446 c 0
506.55741299 887.371981446 m 0
 512.19283348 880.419189933 514.5 871.663948788 514.5 862.5 c 2
 514.5 816.5 l 2
 514.5 804.711960809 510.807914482 793.571005345 501.681479294 786.461992673 c 0
 494.587996051 780.936542567 485.895291841 779 477 779 c 2
 442 779 l 2
 430.211960809 779 419.071005345 782.692085518 411.961992673 791.818520706 c 0
 406.436542567 798.912003949 404.5 807.604708159 404.5 816.5 c 2
 404.5 862.5 l 2
 404.5 871.663948788 406.80716652 880.419189933 412.44258701 887.371981446 c 0
 419.623195185 896.23117335 430.56864016 900 442 900 c 2
 477 900 l 2
 488.43135984 900 499.376804815 896.23117335 506.55741299 887.371981446 c 0
EndSplineSet
Refer: 135 97 N 1 0 0 1 0 0 2
PickledDataWithLists: "(dp0
Vcom.schriftgestaltung.Glyphs.lastChange
p1
V2016-06-09 18:35:34 +0000
p2
s."
EndChar

StartChar: acute
Encoding: 180 180 140
GlifName: acute
Width: 575
VWidth: 0
GlyphClass: 2
Flags: HMW
AnchorPoint: "top" 353 500 mark 0
LayerCount: 2
Fore
SplineSet
212.754566495 569.104512767 m 0
 212.754566495 586.217323111 223.614586203 599.289309038 239.909883641 606.418501667 c 2
 465.82195934 707.379208063 l 2
 471.289797195 709.919918196 483.462089251 711.880728011 484.145484703 711.876132977 c 0
 484.145484703 711.870215313 484.110887403 711.858545062 484.038880541 711.840909091 c 1
 498.54162565 711.840909091 510.136833293 701.180224447 514.030686495 687.401974656 c 2
 526.958341161 641.657965838 l 2
 528.322944062 637.475644988 529.081072487 633.212217325 529.081072487 628.899294072 c 0
 529.081072487 611.548114521 516.356724267 599.014399388 499.696999627 594.055653409 c 2
 267.728203908 519.066364521 l 2
 262.442874831 517.414699184 257.248941664 516.437618775 252.00980345 516.437618775 c 0
 237.318498256 516.437618775 224.911325132 525.729938255 220.138226297 540.049234758 c 0
 218.056861645 546.293328713 215.975496994 552.537422669 213.894132342 558.781516624 c 0
 213.228794658 562.108205041 212.754566495 565.656099665 212.754566495 569.104512767 c 0
EndSplineSet
PickledDataWithLists: "(dp0
Vcom.schriftgestaltung.Glyphs.lastChange
p1
V2015-12-22 16:32:39 +0000
p2
s."
EndChar

StartChar: ae
Encoding: 230 230 142
GlifName: ae
Width: 575
VWidth: 0
Flags: W
LayerCount: 2
Fore
SplineSet
140.585724205 458.030894203 m 2
 140.347920377 459.871139263 140.224190395 461.699327532 140.224190395 463.517337124 c 0
 140.224190395 482.951151153 155.339348927 495.507405309 173.780690146 498.803217361 c 0
 213.49922004 505.932184265 256.072368184 510 293 510 c 0
 357.562328173 510 406.866695383 496.196012181 441.884231261 469.904824687 c 0
 485.902545696 436.855847111 504.716765439 385.824990463 504.716765439 325.624627789 c 0
 504.716765439 306.625827296 502.87299611 286.654757174 499.369784362 265.837166045 c 0
 498.353755382 258.358695024 497.72883763 250.669432126 496.285821592 243.280698248 c 0
 494.619707679 234.749627222 491.027361022 226.923671265 484.948225194 220.855774251 c 0
 477.244058654 213.165850804 466.528050849 209.5 455 209.5 c 2
 331.647011913 209.5 l 1
 310.815421498 92.8441394272 l 1
 331.556956463 94.2643866718 356.155304484 96.9291461276 381.972846342 100.837007499 c 0
 385.308770042 101.41829166 388.552422404 101.745433115 391.768121327 101.745433505 c 0
 400.840827534 101.745433505 410.198483533 98.7587781371 416.368417846 91.0055157331 c 0
 421.099299012 85.0605961905 422.99012562 77.8586528065 423.469332822 70.3856692196 c 2
 425.441565245 44.746647725 l 2
 425.661184423 42.8942564617 425.7750242 41.0488413174 425.7750242 39.2103649197 c 0
 425.7750242 18.8464911186 410.949090483 4.67848083669 391.208446486 1.19483777833 c 0
 335.494675693 -8.75404986321 318.3679827 -9.05998661549 249 -10 c 0
 182.412428714 -10 133.235355662 -1.6380210818 98.1308368316 16.1041031682 c 0
 53.4619401963 38.6801458153 34.2347021485 76.5205008372 34.2347021485 123.674430579 c 0
 34.2347021485 133.728230452 35.0611202037 144.192740001 36.6143545156 155.084920425 c 0
 36.6268626928 155.177090192 36.6409410718 155.267763295 36.6565226687 155.357003581 c 0
 45.4741485662 208.026228286 72.6840858872 247.539766415 116.131784201 272.803385585 c 0
 148.482058972 291.614163913 189.10932189 302.45481869 237.163831711 306.615402791 c 1
 254.285744213 411.529877112 l 1
 233.991180271 410.409370501 209.756264028 408.461024703 185.056642481 404.787586565 c 0
 181.679370642 404.225315514 178.403266423 403.912449427 175.166666667 403.912449294 c 0
 166.175932376 403.912449294 156.981981388 406.629309093 150.786265429 413.734914278 c 0
 146.047538121 419.169560662 144.064425555 425.81729297 143.548497969 432.614750262 c 2
 140.585724205 458.030894203 l 2
395.237528524 311.5 m 1
 395.335142084 314.152578844 395.386599454 316.8037078 395.386599454 319.443383592 c 0
 395.386599454 354.503005938 386.953884225 384.147417563 360.983042612 397.805755127 c 1
 347.590770264 311.5 l 1
 395.237528524 311.5 l 1
145.342661925 138.013091952 m 0
 144.835033365 134.96732059 144.588139149 132.028503494 144.588139149 129.35364678 c 0
 144.588139149 105.913183872 163.639364978 88.2339548272 200.576944498 81.2247753962 c 1
 220.033415855 205.259780293 l 1
 178.943816594 197.69464159 151.943787033 179.270123872 145.342661925 138.013091952 c 0
EndSplineSet
PickledDataWithLists: "(dp0
Vcom.schriftgestaltung.Glyphs.lastChange
p1
V2016-06-09 18:35:33 +0000
p2
s."
EndChar

StartChar: alpha
Encoding: 945 945 144
GlifName: alpha
Width: 575
VWidth: 0
Flags: W
LayerCount: 2
Fore
SplineSet
495.998415119 248.254273705 m 1
 505.717519449 192.463294461 507.839843009 138.726175017 507.83984375 99.3899969379 c 0
 507.83984375 71.895054874 506.617420251 58.0892968108 506.500870401 40.0729708622 c 0
 506.541963059 39.1604724307 506.562866483 37.3646750935 506.562866483 37.3646750935 c 2
 506.562866483 24.8215833362 501.977168798 13.5977106672 491.908528224 6.9567966146 c 0
 484.205494695 1.61622538033 475.156553468 0 466 0 c 2
 439 0 l 2
 429.572767562 0 419.03892212 1.67217570028 411.92022297 10.4824469249 c 0
 405.241358682 18.7483680738 404.292893624 28.3288947471 404.292893219 40.7027192024 c 0
 404.292893219 58.5733629971 405.339772889 75.976427638 405.606711048 96.9165462109 c 1
 354.829912043 35.7298963576 290.737471136 -10 211 -10 c 0
 173.376620417 -10 132.829093683 -2.81290279713 98.8898261391 19.3660541643 c 0
 56.0487965373 47.3622196824 26.5 98.1191114221 26.5 180.348623853 c 0
 26.5 344.917287303 108.661906484 510 293 510 c 0
 373.340201767 510 424.54799126 463.034592373 456.242199279 400.969937896 c 1
 466.927583711 434.116300639 471.184860267 452.092155536 477.201673082 469.682049386 c 0
 480.962494989 480.676650706 487.168584071 489.365595556 496.323954155 494.720409285 c 0
 503.393248657 498.855114372 511.159077178 500 519 500 c 2
 546 500 l 2
 553.095717677 500 559.92890662 499.139363298 566.217877881 495.618056036 c 0
 574.754936566 491.070650598 579.17386604 482.271607659 579.17386604 473.343117716 c 0
 579.17386604 467.897227249 577.992502393 461.93044362 575.708549691 456.136330954 c 0
 574.882108117 454.039748309 572.861502297 447.488459003 570.166144239 438.521368623 c 0
 559.609091484 403.399487174 536.887834308 327.713535702 495.998415119 248.254273705 c 1
199.860943599 374.561415869 m 0
 157.162198079 332.710288126 137.5 257.08408919 137.5 197.17888563 c 0
 137.5 145.991836872 154.302446433 120.043810445 173.265055254 106.578703317 c 0
 188.663378926 95.6445497002 207.186884539 92 223 92 c 0
 253.731646109 92 282.575205885 106.069066914 310.759698455 130.595921995 c 0
 344.866445243 160.276471811 376.832194888 204.588783368 407.48457268 251.652511665 c 1
 389.855622419 308.274699315 368.944437839 359.850433876 337.883144924 386.711561743 c 0
 322.082471388 400.375639141 304.029661284 408 281 408 c 0
 247.38731693 408 221.045000458 395.324945544 199.860943599 374.561415869 c 0
EndSplineSet
PickledDataWithLists: "(dp0
Vcom.schriftgestaltung.Glyphs.lastChange
p1
V2015-12-22 12:26:38 +0000
p2
s."
EndChar

StartChar: ampersand
Encoding: 38 38 146
GlifName: ampersand
Width: 575
VWidth: 0
Flags: HMW
LayerCount: 2
Fore
SplineSet
463 -12.5 m 2
 431 -12.5 l 2
 420.566863452 -12.5 410.704035366 -9.47305491895 403.922830569 -1.77547109481 c 0
 398.723367098 4.12662257517 395.769677238 11.5934933891 394.638702748 19.1333233181 c 0
 392.576859866 32.8789425336 388.984074395 47.29289272 383.79683098 62.7614768803 c 1
 321.617700474 6.17135161911 254.091590843 -19.5 192 -19.5 c 0
 146.261356941 -19.5 108.017607894 -7.437209937 79.6007182013 15.5386633494 c 0
 43.9405279554 44.3709536292 25.5 89.0853994436 25.5 143 c 0
 25.5 241.989974311 84.3554623338 326.310987032 166.81938788 382.943282707 c 1
 132.181446429 428.855131414 114.5 474.752628334 114.5 519 c 0
 114.5 623.925452725 210.889595499 709.5 319 709.5 c 0
 410.958676342 709.5 475.5 647.262668578 475.5 564 c 0
 475.5 502.065767997 446.64225745 445.703564106 399.223539729 405.586611738 c 0
 392.453002356 399.488744671 384.157421548 395.232930994 374.785694036 395.232930994 c 0
 364.453337966 395.232930994 353.951857813 400.803433929 347.234478082 409.200158592 c 2
 331.307951445 429.108316889 l 2
 325.533242404 436.072286798 321.681818182 444.212223736 321.681818182 453.175807663 c 0
 321.681818182 464.149004139 327.587623588 473.591682293 336.005359358 480.606462101 c 0
 357.034789444 498.130987172 368.5 524.954935582 368.5 547 c 0
 368.5 579.8130925 343.84877705 605.5 305 605.5 c 0
 261.538790828 605.5 225.5 570.655584781 225.5 529 c 0
 225.5 503.9505089 236.694520198 473.709285126 268.557023588 436.053599303 c 0
 317.2414598 378.353526754 363.555366106 318.988588554 401.063036819 262.805794625 c 1
 404.739604749 271.153579728 408.220610327 279.689918769 411.410041948 288.726641694 c 0
 418.695880437 304.339152743 431.503132107 316.181906597 449.424010694 316.181906597 c 0
 452.407939097 316.181906597 455.394929303 315.865679039 458.382619864 315.272976861 c 2
 490.314114636 309.285821592 l 2
 497.034827909 308.025687853 503.287487659 305.519264771 508.340761109 301.051885662 c 0
 514.823920321 295.320406791 517.954545455 287.122550025 517.954545455 278.914350113 c 0
 517.954545455 273.370682508 516.757229456 267.538325541 514.552290697 262.220532063 c 0
 498.31924023 223.070233877 480.28726046 188.3989896 462.140537142 158.206803729 c 1
 483.015593893 112.514272717 496.44736218 70.2663775447 502.447514293 28.2653127541 c 0
 502.512304891 27.1638725874 502.562940954 26.0067927444 502.562940954 24.88985333 c 0
 502.562940954 12.8863745791 497.627016344 1.95068565762 488.397042918 -4.85902798171 c 0
 481.175548471 -10.1869208113 472.311186859 -12.5 463 -12.5 c 2
134.5 153 m 0
 134.5 130.615033243 140.08713471 114.33692782 149.11734698 103.202886913 c 0
 160.274714952 89.4461126871 178.239560975 81.5 204 81.5 c 0
 240.69746737 81.5 290.038152157 102.275989552 336.718227615 158.03088848 c 1
 309.945478171 201.304325635 274.128987732 250.634675252 229.306305302 307.293621292 c 1
 170.445424701 266.989811977 134.5 208.478740527 134.5 153 c 0
EndSplineSet
PickledDataWithLists: "(dp0
Vcom.schriftgestaltung.Glyphs.lastChange
p1
V2015-12-22 14:24:01 +0000
p2
s."
EndChar

StartChar: asciicircum
Encoding: 94 94 150
GlifName: asciicircum
Width: 575
VWidth: 0
Flags: HMW
LayerCount: 2
Fore
SplineSet
362 731.5 m 0
 397.818649858 731.5 417.750303586 709.279242187 434.142586784 690.53056828 c 2
 594.323130965 507.324070872 l 2
 600.342295646 500.712171908 604.176597683 492.653627882 604.176597683 483.907306427 c 0
 604.176597683 471.250322154 596.660661394 460.982265214 586.799841408 453.234478082 c 2
 561.713432287 433.165970114 l 2
 553.633861675 426.817736061 544.788361889 422.370922628 534.892199005 422.370922628 c 0
 524.285910841 422.370922628 515.02553194 428.048161365 508.305320742 436.112414802 c 0
 456.747452272 499.447836136 405.081865879 562.675539547 353.591912714 626.078876187 c 0
 351.589445065 629.08257766 351.820712684 629.499999595 350 629.5 c 0
 348.316326833 629.269520819 343.652198906 625.977995781 341.561185402 623.886982277 c 2
 127.367394486 434.715830487 l 2
 119.412947285 427.403322319 110.283293522 422.370922628 99.9922000336 422.370922628 c 0
 90.0722201513 422.370922628 81.4581572277 427.318041922 74.9677816249 434.35801525 c 2
 55.1628984375 454.162898438 l 2
 48.5708054064 460.754991469 44.3598595058 469.160618287 44.3598595058 478.346485153 c 0
 44.3598595058 490.206035942 50.9297289965 500.250946663 59.7436848485 508.386905911 c 0
 132.772384672 569.671852693 205.759770933 630.998113038 278.814504788 692.257025788 c 0
 303.153088722 711.729493051 327.059856926 731.5 362 731.5 c 0
EndSplineSet
PickledDataWithLists: "(dp0
Vcom.schriftgestaltung.Glyphs.lastChange
p1
V2015-12-22 14:26:04 +0000
p2
s."
EndChar

StartChar: asciitilde
Encoding: 126 126 151
GlifName: asciitilde
Width: 575
VWidth: 0
Flags: HMW
LayerCount: 2
Fore
SplineSet
533 380.5 m 2
 540.480656186 380.5 547.888068403 378.844698719 554.020038036 374.158651077 c 0
 561.946395789 368.101333072 565.181906597 358.617986581 565.181906597 349.207959007 c 0
 565.181906597 346.157640899 564.879366196 343.069182819 564.324243189 339.899842176 c 0
 557.385018075 297.405549732 542.714301788 262.524920431 520.19857394 236.713769013 c 0
 491.894016961 204.266529607 451.947958961 187.5 404 187.5 c 0
 354.445802566 187.5 302.710712138 219.425685494 256.472570908 274.911454971 c 0
 238.154893636 296.461663526 220.947823016 311.969041276 206.338523468 321.134689148 c 0
 194.596005561 328.501762697 184.814003144 331.5 178 331.5 c 0
 155.666943295 331.5 138.989239263 315.786731022 131.340253854 272.988427914 c 0
 129.770471621 262.41787558 124.2276919 252.728082528 114.807940194 246.918167949 c 0
 107.410470314 242.355556141 98.6228917211 240.5 89 240.5 c 2
 61 240.5 l 2
 53.3965900369 240.5 45.8954976863 242.206403193 39.6461511752 246.849661583 c 0
 31.5669429767 252.852505429 27.8758238161 262.460808048 27.8758238161 272.336532691 c 0
 27.8758238161 275.217500187 28.1558300351 278.132746039 28.6776513629 281.110946462 c 0
 35.6275945607 323.215814806 50.5301647195 358.059745064 73.3528752977 383.927881584 c 0
 102.026798542 416.428007352 142.474601057 433.5 191 433.5 c 0
 239.788084583 433.5 291.400835496 400.440837101 337.545634838 345.067077891 c 0
 355.326931601 324.052818081 372.309958541 308.474574688 386.979404097 299.157494403 c 0
 398.771473278 291.66793695 408.764888768 288.5 416 288.5 c 0
 437.077843492 288.5 454.977445827 305.150651503 461.638253921 347.865070569 c 0
 464.704007016 369.015705405 482.966970406 380.499999994 504 380.5 c 2
 533 380.5 l 2
EndSplineSet
PickledDataWithLists: "(dp0
Vcom.schriftgestaltung.Glyphs.lastChange
p1
V2015-12-22 16:32:54 +0000
p2
s."
EndChar

StartChar: asterisk
Encoding: 42 42 152
GlifName: asterisk
Width: 575
VWidth: 0
Flags: HMW
LayerCount: 2
Fore
SplineSet
566.833333333 356.150891632 m 0
 566.833333333 337.867417186 554.840506636 323.726536099 536.687445901 318.053704619 c 2
 402.429689154 276.605001194 l 1
 473.01363105 149.913227639 l 0
 476.157108129 144.075341636 477.908303154 137.777590146 477.908303154 131.350666734 c 0
 477.908303154 118.099292035 470.105752464 105.575920201 458.611756235 98.3921725579 c 2
 426.76065637 78.4852351418 l 2
 419.152419012 73.441609599 411.159546455 70.1757100522 402.608202644 70.1757100522 c 0
 390.26418157 70.1757100522 380.396152225 77.6312010595 374.215776109 87.6743122483 c 2
 291.752907498 234.476342083 l 1
 248.108059036 184.711440684 204.513972823 134.895777037 160.837101563 85.1628984375 c 0
 151.953693232 76.2794901074 141.702359841 69.9772727273 129.795736289 69.9772727273 c 0
 121.575066834 69.9772727273 113.157090995 73.2259569951 106.967522332 78.4251946726 c 2
 82.2074154497 99.2236844536 l 2
 74.0160645682 105.492879252 68.8709277575 114.593657659 68.8709277575 124.609960861 c 0
 68.8709277575 134.901415977 73.5082092855 144.229494399 80.4519576319 152.069210274 c 2
 192.219491853 278.258361814 l 1
 75.7998768577 318.224303431 l 0
 63.3039308513 322.68714129 52.6820140289 333.020278813 52.6820140289 347.754140033 c 0
 52.6820140289 354.240555701 54.6094139473 360.497852739 57.8080294769 366.577085783 c 2
 73.6660010188 400.275125418 l 2
 80.4459422612 414.803570937 93.0960719335 425.228783283 109.515057524 425.228783283 c 0
 114.333696592 425.228783283 119.17650561 424.356041197 123.935264758 422.868928963 c 2
 258.057681918 375.744836448 l 1
 282.621306064 526.765636758 l 2
 284.101092162 538.76097199 289.622384131 549.173126253 298.972091853 555.520634248 c 0
 306.351042268 560.530196915 315.055470108 562.5 324 562.5 c 2
 359 562.5 l 2
 366.877734348 562.5 374.591029824 561.04377964 381.099208211 556.301469133 c 0
 389.617545577 550.09441727 392.833333333 540.112637332 392.833333333 530.334705075 c 0
 392.833333333 528.017701057 392.660610985 525.623567898 392.381708692 523.252898411 c 2
 368.591229682 376.985508942 l 1
 515.271796092 422.933635479 l 2
 519.932859271 424.390217722 524.529501498 425.228783283 529.16151632 425.228783283 c 0
 537.72946562 425.228783283 546.072311878 421.955470491 551.870171638 415.428566139 c 0
 556.400502297 410.328574742 559.117650748 403.937826616 560.309590252 397.18350276 c 0
 562.334514908 385.708929709 564.848352978 374.226352167 566.389880253 362.6648976 c 0
 566.679865028 360.490011787 566.833333333 358.319300601 566.833333333 356.150891632 c 0
EndSplineSet
PickledDataWithLists: "(dp0
Vcom.schriftgestaltung.Glyphs.lastChange
p1
V2015-12-22 20:53:16 +0000
p2
s."
EndChar

StartChar: at
Encoding: 64 64 153
GlifName: at
Width: 575
VWidth: 0
Flags: HMW
LayerCount: 2
Fore
SplineSet
361 722.5 m 0
 422.16559722 722.5 471.437421818 710.213031133 507.678588521 684.085956093 c 0
 553.350629075 651.159951238 575.5 597.770960591 575.5 528 c 0
 575.5 507.601987229 574.476970824 485.818335224 570.330433337 461.936195392 c 2
 514.311346012 109.816217915 l 2
 512.267843126 98.2363682294 507.041834656 88.0006391851 497.833334467 81.5720635814 c 0
 490.57816851 76.5071364034 481.94785412 74.5 473 74.5 c 2
 413 74.5 l 2
 369.781695232 74.5 335.363552837 81.9996810154 310.000485484 100.303857741 c 0
 277.826999521 123.523019869 263.986382017 161.967879742 263.986382017 213.222236757 c 0
 263.986382017 232.70027458 265.929206722 254.198292137 269.651097518 277.947500077 c 0
 279.164580558 338.65258233 295.817838936 384.893528319 323.122628835 417.916318455 c 0
 355.658994245 457.266248293 402.010028648 475.444422595 462.27426332 477.334533272 c 1
 463.91583211 489.480718096 464.5 500.653705678 464.5 512 c 0
 464.5 554.649166186 452.173248388 582.752270508 429.780598978 599.851052996 c 0
 411.631036806 613.709860418 385.066221419 621.5 349 621.5 c 0
 295.543335639 621.5 256.111237602 605.061098409 228.211510588 573.169448968 c 0
 205.749822132 547.493918388 190.098869807 510.704825566 182.343477331 462.018195025 c 2
 122.311249269 85.8162325034 l 2
 119.461136443 69.6655931563 118.5 54.3933132738 118.5 41 c 0
 118.5 -2.24529636373 130.852424849 -30.5711441149 153.385829827 -47.7594158185 c 0
 171.654458308 -61.6945556834 198.464120742 -69.5 235 -69.5 c 0
 266.338226629 -69.5 292.551436102 -63.9550027028 326.790955252 -52.2262756914 c 0
 332.162741473 -50.2284090898 337.46192319 -49.024782714 342.884242578 -49.0247822044 c 0
 350.951356657 -49.0247822044 358.837168836 -52.1307393953 364.436402271 -58.159085255 c 0
 368.80077588 -62.8579344601 371.456860508 -68.692046826 373.101196598 -74.8583071626 c 2
 380.079350823 -101.775230595 l 2
 381.07763016 -105.518778107 381.609646549 -109.287904495 381.609646549 -113.056171074 c 0
 381.609646549 -130.176140914 370.054484585 -143.493867255 353.950765242 -148.861773703 c 0
 310.934936101 -163.200383416 270.313467549 -170.5 223 -170.5 c 0
 161.373577422 -170.5 111.842176611 -158.005084666 75.4687827709 -131.651531393 c 0
 29.6409991677 -98.4480051602 7.5 -44.7701095182 7.5 25 c 0
 7.5 45.8484892719 9.06265775785 67.460251543 12.6119076622 89.7022176009 c 2
 72.6563977819 465.98102219 l 2
 84.4795143024 540.102868069 110.033531748 599.275901459 149.955893118 642.174166836 c 0
 199.996591863 695.94501357 271.337542499 722.5 361 722.5 c 0
EndSplineSet
PickledDataWithLists: "(dp0
Vcom.schriftgestaltung.Glyphs.lastChange
p1
V2016-02-01 22:12:54 +0000
p2
s."
EndChar

StartChar: b
Encoding: 98 98 155
GlifName: b
Width: 575
VWidth: 0
Flags: W
AnchorPoint: "mark-bottom" 248 0 basechar 0
LayerCount: 2
Fore
SplineSet
212.433690694 455.095136118 m 1
 260.242673974 490.952887453 311.457368078 510 358 510 c 0
 403.849598494 510 445.520202108 491.452432356 472.392435156 449.580217325 c 0
 493.687356296 416.398549264 505.5 369.714476596 505.5 307.247706422 c 0
 505.5 225.2475346 489.535568932 153.670420368 452.601658488 98.8837080285 c 0
 406.136039071 29.9579296852 327.242427613 -10 213 -10 c 0
 183.446360431 -10 128.633003741 -7.92897833406 67.0220640574 0.15114490319 c 0
 58.8792006311 1.67793179563 51.5150296339 4.67843919026 45.6829242372 10.1732384912 c 0
 38.3798554193 16.8163606481 35.1666666667 26.0346876692 35.1666666667 35.4850796118 c 0
 35.1666666667 37.6718375061 35.3342169217 39.8980621825 35.6196681381 42.1028269486 c 2
 142.621351527 709.255537576 l 2
 145.010889072 727.869049029 156.977511026 750 182 750 c 2
 219 750 l 2
 226.872513468 750 234.454154348 748.369357656 240.83349708 743.911568657 c 0
 249.128573952 738.115093381 253.121463857 728.551640864 253.121463857 718.760814262 c 0
 253.121463857 715.98604179 252.840196818 713.201740895 252.32249068 710.383456027 c 2
 212.433690694 455.095136118 l 1
151.511343686 93.7431968615 m 1
 183.199201068 91.7061596024 209.58095795 91 225 91 c 0
 296.906002694 91 339.659610305 116.8249565 364.955185024 158.840950769 c 0
 385.451446959 192.885278029 394.5 238.895293843 394.5 291.720116618 c 0
 394.5 332.287549212 388.180572729 360.664577763 378.35234176 378.803153235 c 0
 366.345813474 400.961903895 349.841218656 409 328 409 c 0
 293.220024146 409 243.697953498 385.469795971 193.735276695 336.450795464 c 1
 151.511343686 93.7431968615 l 1
EndSplineSet
EndChar

StartChar: b.hex
Encoding: 65545 -1 156
GlifName: b.hex
Width: 575
VWidth: 0
Flags: W
LayerCount: 2
Fore
SplineSet
218.55741299 887.371981446 m 0
 224.19283348 880.419189933 226.5 871.663948788 226.5 862.5 c 2
 226.5 816.5 l 2
 226.5 804.711960809 222.807914482 793.571005345 213.681479294 786.461992673 c 0
 206.587996051 780.936542567 197.895291841 779 189 779 c 2
 154 779 l 2
 142.211960809 779 131.071005345 782.692085518 123.961992673 791.818520706 c 0
 118.436542567 798.912003949 116.5 807.604708159 116.5 816.5 c 2
 116.5 862.5 l 2
 116.5 871.663948788 118.80716652 880.419189933 124.44258701 887.371981446 c 0
 131.623195185 896.23117335 142.56864016 900 154 900 c 2
 189 900 l 2
 200.43135984 900 211.376804815 896.23117335 218.55741299 887.371981446 c 0
506.55741299 887.371981446 m 0
 512.19283348 880.419189933 514.5 871.663948788 514.5 862.5 c 2
 514.5 816.5 l 2
 514.5 804.711960809 510.807914482 793.571005345 501.681479294 786.461992673 c 0
 494.587996051 780.936542567 485.895291841 779 477 779 c 2
 442 779 l 2
 430.211960809 779 419.071005345 782.692085518 411.961992673 791.818520706 c 0
 406.436542567 798.912003949 404.5 807.604708159 404.5 816.5 c 2
 404.5 862.5 l 2
 404.5 871.663948788 406.80716652 880.419189933 412.44258701 887.371981446 c 0
 419.623195185 896.23117335 430.56864016 900 442 900 c 2
 477 900 l 2
 488.43135984 900 499.376804815 896.23117335 506.55741299 887.371981446 c 0
650.55741299 887.371981446 m 0
 656.19283348 880.419189933 658.5 871.663948788 658.5 862.5 c 2
 658.5 816.5 l 2
 658.5 804.711960809 654.807914482 793.571005345 645.681479294 786.461992673 c 0
 638.587996051 780.936542567 629.895291841 779 621 779 c 2
 586 779 l 2
 574.211960809 779 563.071005345 782.692085518 555.961992673 791.818520706 c 0
 550.436542567 798.912003949 548.5 807.604708159 548.5 816.5 c 2
 548.5 862.5 l 2
 548.5 871.663948788 550.80716652 880.419189933 556.44258701 887.371981446 c 0
 563.623195185 896.23117335 574.56864016 900 586 900 c 2
 621 900 l 2
 632.43135984 900 643.376804815 896.23117335 650.55741299 887.371981446 c 0
EndSplineSet
Refer: 155 98 N 1 0 0 1 0 0 2
PickledDataWithLists: "(dp0
Vcom.schriftgestaltung.Glyphs.lastChange
p1
V2016-06-09 18:35:34 +0000
p2
s."
EndChar

StartChar: backslash
Encoding: 92 92 157
GlifName: backslash
Width: 575
VWidth: 0
Flags: HMW
LayerCount: 2
Back
SplineSet
146 669 m 262
 141 684 146 695 161 700 c 262
 192 711 l 262
 207 716 218 710 223 695 c 262
 474 -33 l 262
 479 -48 474 -59 459 -64 c 262
 428 -75 l 262
 413 -80 402 -74 397 -59 c 262
 146 669 l 262
EndSplineSet
Fore
SplineSet
156.283499855 670.299435274 m 0
 156.283499855 686.15020674 166.070853863 699.279369884 180.588833729 706.269508338 c 2
 207.510163867 719.231630256 l 2
 213.282753294 722.105664587 219.2543161 723.873841463 225.489512193 723.873841463 c 0
 239.669853136 723.873841463 250.216990751 713.748436636 253.99130636 700.538332003 c 2
 467.020950039 -21.5637614539 l 2
 468.126003261 -25.4314477323 468.716500145 -29.358368771 468.716500145 -33.2994352736 c 0
 468.716500145 -49.0138866025 458.716937629 -62.6288981513 444.253050461 -69.3442743364 c 2
 416.407379539 -82.2726215502 l 2
 410.736883398 -85.0858735336 404.91617118 -86.8738414631 398.755975611 -86.8738414631 c 0
 384.419744248 -86.8738414631 374.624868527 -76.1949441094 371.00869364 -63.5383320033 c 2
 157.979049961 658.563761454 l 2
 156.873996739 662.431447732 156.283499855 666.358368771 156.283499855 670.299435274 c 0
EndSplineSet
PickledDataWithLists: "(dp0
Vcom.schriftgestaltung.Glyphs.lastChange
p1
V2015-12-22 16:32:37 +0000
p2
s."
EndChar

StartChar: bar
Encoding: 124 124 158
GlifName: bar
Width: 575
VWidth: 0
Flags: HMW
LayerCount: 2
Fore
SplineSet
349 762.5 m 2
 384 762.5 l 2
 392.025665469 762.5 399.64096053 760.986189963 406.070558213 756.551196362 c 0
 414.496474489 750.739186557 418.175 741.135930854 418.175 731.72075 c 0
 418.175 728.782994655 417.868470681 725.845619443 417.319588838 722.867522255 c 2
 296.311450282 -40.1837977317 l 2
 294.267947396 -51.7636474171 289.041834656 -61.9993608149 279.833334467 -68.4279364186 c 0
 272.57816851 -73.4928635966 263.94785412 -75.5 255 -75.5 c 2
 220 -75.5 l 2
 211.974334531 -75.5 204.35903947 -73.9861899635 197.929441787 -69.5511963616 c 0
 189.503525511 -63.7391865569 185.825 -54.1359308543 185.825 -44.72075 c 0
 185.825 -41.7829946547 186.131529319 -38.8456194435 186.680411162 -35.867522255 c 2
 307.688549718 727.183797732 l 2
 309.732052604 738.763647417 314.958165344 748.999360815 324.166665533 755.427936419 c 0
 331.42183149 760.492863597 340.05214588 762.5 349 762.5 c 2
EndSplineSet
PickledDataWithLists: "(dp0
Vcom.schriftgestaltung.Glyphs.lastChange
p1
V2015-12-22 16:32:56 +0000
p2
s."
EndChar

StartChar: beta
Encoding: 946 946 159
GlifName: beta
Width: 575
VWidth: 0
Flags: W
LayerCount: 2
Fore
SplineSet
193.013177701 632.224031707 m 0
 234.662682241 677.664530134 293.518008837 700 365 700 c 0
 412.303798753 700 450.840714362 691.126813112 479.622759933 672.550692464 c 0
 516.032087446 649.051874117 534.5 610.719946874 534.5 562.5 c 0
 534.5 498.895131208 502.872090063 456.473064329 465.712848289 413.16873589 c 0
 456.676826302 402.349260474 446.116408088 390.084663555 439.997337083 379.76550213 c 0
 435.644052162 372.424150837 433.5 366.025360536 433.5 361.303906769 c 0
 433.5 348.933821607 446.368281108 335.107456052 462.793042345 320.035081053 c 0
 486.370530781 298.399072984 518.5 269.2078166 518.5 218.550488238 c 0
 518.5 87.3312807586 389.609949681 -8.82616950736 256.999817666 -8.82616950736 c 0
 224.372716434 -8.82616950736 191.365606054 -2.78188796641 159.798065918 10.3121690702 c 1
 150.62578373 -48.0617247532 141.466006563 -106.448123596 132.285821592 -164.814114636 c 0
 130.664900756 -173.459025758 127.411430813 -181.580603222 121.421645128 -188.019411031 c 0
 113.776312574 -196.237873182 102.906099321 -200 91 -200 c 2
 56 -200 l 2
 48.1274865317 -200 40.545845652 -198.369357656 34.1665029199 -193.911568657 c 0
 25.8714260483 -188.115093381 21.8785361429 -178.551640864 21.8785361429 -168.760814262 c 0
 21.8785361429 -165.981458476 22.1607331323 -163.192542763 22.6800766655 -160.369490187 c 2
 128.644702123 487.956721712 l 2
 138.24256596 548.656755594 159.798631949 597.094315534 193.013177701 632.224031707 c 0
394.769601826 472.554007462 m 0
 416.120746482 498.640537178 427.5 512.710445621 427.5 539.5 c 0
 427.5 562.575476114 419.857270816 577.16859239 405.810004135 586.544139523 c 0
 394.24061954 594.265877356 376.768970095 599 353 599 c 0
 317.65741802 599 290.794808125 587.154849089 271.22097813 563.543802997 c 0
 255.420186062 544.484005813 243.912253372 516.782016334 238.362334648 479.640252571 c 2
 174.837779988 80.8979001671 l 1
 205.84388176 67.3119334971 236.598060244 61.0674113139 265.047592299 61.0674113139 c 0
 348.788423947 61.0674113139 412.5 113.818711895 412.5 196.5 c 0
 412.5 222.712435614 393.762017377 238.113382899 372.067441637 256.837408325 c 0
 349.645145668 274.381520498 321.5 295.945688137 321.5 336.5 c 0
 321.5 387.859203092 359.67909651 429.841724802 387.346884259 463.43832421 c 0
 389.943152931 466.657697364 392.368572167 469.620463028 394.769601826 472.554007462 c 0
EndSplineSet
PickledDataWithLists: "(dp0
Vcom.schriftgestaltung.Glyphs.lastChange
p1
V2015-12-22 12:27:37 +0000
p2
s."
EndChar

StartChar: block
Encoding: 9608 9608 160
GlifName: block
Width: 575
VWidth: 0
Flags: HMW
LayerCount: 2
Fore
SplineSet
-12.5 -262.5 m 1
 -12.5 912.5 l 1
 587.5 912.5 l 1
 587.5 -262.5 l 1
 -12.5 -262.5 l 1
EndSplineSet
PickledDataWithLists: "(dp0
Vcom.schriftgestaltung.Glyphs.lastChange
p1
V2016-06-10 08:26:49 +0000
p2
s."
EndChar

StartChar: braceleft
Encoding: 123 123 161
GlifName: braceleft
Width: 575
VWidth: 0
Flags: HMW
LayerCount: 2
Fore
SplineSet
558 661.5 m 2
 477 661.5 l 2
 445.737460983 661.5 428.083949821 653.746394629 416.228998207 639.296465127 c 0
 406.473951044 627.40609658 399.623793342 609.128285509 395.344401521 583.023995406 c 2
 367.354803071 407.089376576 l 2
 362.816977478 376.485427027 355.926186536 348.286106049 338.520779725 323.805454854 c 0
 328.041384326 309.066217427 313.943445164 296.112773731 295.244662221 285.011416351 c 1
 323.203467702 263.575086191 332.328876547 234.530704413 332.328876547 204.25121695 c 0
 332.328876547 190.348674516 330.620592286 176.250279261 328.346112556 162.034780948 c 2
 300.345089328 -14.9716763344 l 2
 298.654962559 -25.6194749757 297.810807757 -34.9716315196 297.810807757 -42.9654483212 c 0
 297.810807757 -63.9100908501 303.09008104 -74.3761842654 312.360810754 -80.6569012535 c 0
 320.263108541 -86.0105354857 333.618287692 -89.5 354 -89.5 c 2
 435 -89.5 l 2
 443.025665469 -89.5 450.64096053 -91.0138100365 457.070558213 -95.4488036384 c 0
 465.496474489 -101.260813443 469.175 -110.864069146 469.175 -120.27925 c 0
 469.175 -123.207149227 468.870524032 -126.134670866 468.325105119 -129.102504725 c 0
 466.988784543 -137.78858847 465.836182414 -146.532813838 464.309590252 -155.18350276 c 0
 462.266087366 -166.763352445 457.041834656 -176.999360815 447.833334467 -183.427936419 c 0
 440.57816851 -188.492863597 431.94785412 -190.5 423 -190.5 c 2
 342 -190.5 l 2
 296.467086591 -190.5 260.854883904 -183.892408287 234.539486047 -167.346928405 c 0
 200.933604953 -146.217647649 186.31971072 -110.24576349 186.31971072 -62.3652806772 c 0
 186.31971072 -46.7108002181 187.820039273 -29.6122300725 190.653887444 -11.0347809478 c 2
 190.653887444 -11.0347809478 218.653887444 165.965219052 218.676038576 166.10042219 c 0
 220.35573648 176.010639823 221.189192243 184.708916392 221.189192243 192.11656105 c 0
 221.189192243 211.468812364 216.146889714 221.025679822 206.879539605 226.997953891 c 0
 198.925525425 232.123858499 185.421150722 235.5 165 235.5 c 2
 85 235.5 l 2
 76.9743345313 235.5 69.3590394701 237.013810037 62.9294417868 241.448803638 c 0
 54.5035255107 247.260813443 50.825 256.864069146 50.825 266.27925 c 0
 50.825 269.207149227 51.129475968 272.134670866 51.6748948809 275.102504725 c 0
 53.0112154572 283.78858847 54.1638175856 292.532813838 55.6904097482 301.18350276 c 0
 57.7339126339 312.763352445 62.9581653437 322.999360815 72.1666655328 329.427936419 c 0
 79.4218314904 334.492863597 88.0521458801 336.5 97 336.5 c 2
 177 336.5 l 2
 207.878417384 336.5 225.740168081 343.831002179 237.469516621 357.431422456 c 0
 247.082479775 368.577850455 253.830157652 385.898114732 257.655598479 410.976004594 c 2
 285.656693808 586.982877147 l 2
 296.464783835 654.675651528 319.528694396 702.294375382 360.798659048 730.676952101 c 0
 393.611592081 753.243377758 436.065962914 762.5 489 762.5 c 2
 570 762.5 l 2
 578.025665469 762.5 585.64096053 760.986189963 592.070558213 756.551196362 c 0
 600.496474489 750.739186557 604.175 741.135930854 604.175 731.72075 c 0
 604.175 728.792850773 603.870524032 725.865329134 603.325105119 722.897495275 c 0
 601.988784543 714.21141153 600.836182414 705.467186162 599.309590252 696.81649724 c 0
 597.266087366 685.236647555 592.041834656 675.000639185 582.833334467 668.572063581 c 0
 575.57816851 663.507136403 566.94785412 661.5 558 661.5 c 2
EndSplineSet
PickledDataWithLists: "(dp0
Vcom.schriftgestaltung.Glyphs.lastChange
p1
V2016-04-11 09:42:36 +0000
p2
s."
EndChar

StartChar: bracketleft
Encoding: 91 91 163
GlifName: bracketleft
Width: 575
VWidth: 0
Flags: HMW
LayerCount: 2
Fore
SplineSet
394 -89.5 m 2
 402.025665469 -89.5 409.64096053 -91.0138100365 416.070558213 -95.4488036384 c 0
 424.496474489 -101.260813443 428.175 -110.864069146 428.175 -120.27925 c 0
 428.175 -123.207149227 427.870524032 -126.134670866 427.325105119 -129.102504725 c 0
 425.988784543 -137.78858847 424.836182414 -146.532813838 423.309590252 -155.18350276 c 0
 421.266087366 -166.763352445 416.041834656 -176.999360815 406.833334467 -183.427936419 c 0
 399.57816851 -188.492863597 390.94785412 -190.5 382 -190.5 c 2
 107 -190.5 l 2
 98.9743345313 -190.5 91.3590394701 -188.986189963 84.9294417868 -184.551196362 c 0
 76.5035255107 -178.739186557 72.825 -169.135930854 72.825 -159.72075 c 0
 72.825 -156.783556122 73.1314121616 -153.846742233 73.6800964799 -150.869229783 c 2
 212.688492842 727.183806233 l 2
 214.731995728 738.763655919 219.958165344 748.999360815 229.166665533 755.427936419 c 0
 236.42183149 760.492863597 245.05214588 762.5 254 762.5 c 2
 529 762.5 l 2
 537.025665469 762.5 544.64096053 760.986189963 551.070558213 756.551196362 c 0
 559.496474489 750.739186557 563.175 741.135930854 563.175 731.72075 c 0
 563.175 728.792850773 562.870524032 725.865329134 562.325105119 722.897495275 c 0
 560.988784543 714.21141153 559.836182414 705.467186162 558.309590252 696.81649724 c 0
 556.266087366 685.236647555 551.041834656 675.000639185 541.833334467 668.572063581 c 0
 534.57816851 663.507136403 525.94785412 661.5 517 661.5 c 2
 312.676296061 661.5 l 1
 193.638924927 -89.5 l 1
 394 -89.5 l 2
EndSplineSet
PickledDataWithLists: "(dp0
Vcom.schriftgestaltung.Glyphs.lastChange
p1
V2015-12-22 13:51:23 +0000
p2
s."
EndChar

StartChar: breve
Encoding: 728 728 165
GlifName: breve
Width: 575
VWidth: 0
GlyphClass: 2
Flags: HMW
AnchorPoint: "top" 328 500 mark 0
LayerCount: 2
Fore
SplineSet
580.846938776 674.221574344 m 0
 580.846938776 668.246163797 579.163864858 662.467114092 576.353190855 656.755720606 c 0
 540.214695145 573.110477272 463.984040905 526.54081025 364.132616234 525.500690431 c 0
 364.044205411 525.500690431 363.955794589 525.500690431 363.867383766 525.500690431 c 0
 319.548573466 525.962344705 282.062772744 535.211845168 252.78624141 553.503677962 c 0
 215.805342 576.60916204 193.526612477 613.592618758 187.549494728 660.811848976 c 0
 187.476638236 661.977552856 187.424748106 663.189302986 187.424748106 664.366538913 c 0
 187.424748106 675.408068368 191.496988902 685.725235657 199.631985054 692.907280039 c 0
 206.009050918 698.537322047 214.084952011 701.768631415 222.864750094 703.318007547 c 2
 251.71184234 708.291644141 l 2
 254.480566817 708.83613412 260.141009682 709.178448692 260.32512836 709.178413548 c 0
 269.586911264 709.176645732 278.567563767 705.259853112 284.19610789 697.608253735 c 0
 288.454396497 691.819417805 290.445062327 685.038017584 291.374241261 677.790483528 c 0
 295.457663404 652.51228572 305.788664555 635.159607538 321.342419464 624.331757575 c 0
 333.927102069 615.570847277 350.914876808 610.5 373 610.5 c 0
 421.100099466 610.5 458.393134698 635.110905232 479.591859712 681.114484403 c 0
 486.54794768 696.937991728 498.891942929 709.178413391 517.146007779 709.178413548 c 0
 520.188109445 709.178413548 523.209489453 708.867907161 526.286772912 708.290916512 c 2
 526.286772912 708.290916512 553.286772912 703.290916512 553.461097034 703.257344926 c 0
 566.987317639 700.552100806 580.846938776 691.070737997 580.846938776 674.221574344 c 0
EndSplineSet
PickledDataWithLists: "(dp0
Vcom.schriftgestaltung.Glyphs.lastChange
p1
V2015-12-22 16:32:39 +0000
p2
s."
EndChar

StartChar: brokenbar
Encoding: 166 166 166
GlifName: brokenbar
Width: 575
VWidth: 0
Flags: HMW
LayerCount: 2
Fore
SplineSet
237 -190.5 m 2
 202 -190.5 l 2
 194.347676115 -190.5 186.878672964 -189.145448157 180.410914934 -184.849301455 c 0
 171.887809495 -179.187909802 167.878536143 -169.490765916 167.878536143 -159.569942486 c 0
 167.878536143 -156.72732633 168.158835631 -153.860676965 168.670964448 -150.927278485 c 2
 219.68861062 170.183788602 l 2
 221.732113506 181.763638288 226.958165344 191.999360815 236.166665533 198.427936419 c 0
 243.42183149 203.492863597 252.05214588 205.5 261 205.5 c 2
 296 205.5 l 2
 303.652323885 205.5 311.121327036 204.145448157 317.589085066 199.849301455 c 0
 326.112190505 194.187909802 330.121463857 184.490765916 330.121463857 174.569942486 c 0
 330.121463857 171.72732633 329.841164369 168.860676965 329.329035552 165.927278485 c 2
 278.375122186 -154.782646824 l 2
 276.921158029 -166.034620857 271.921344354 -176.381491534 262.715010356 -182.998879798 c 0
 255.417251197 -188.244410303 246.507283718 -190.5 237 -190.5 c 2
325 366.5 m 2
 290 366.5 l 2
 281.887674064 366.5 274.066104718 368.261757573 267.666817898 373.156465846 c 0
 259.399219794 379.48021441 256.166666667 389.311155066 256.166666667 398.92866941 c 0
 256.166666667 401.184004787 256.337543078 403.487665869 256.622710646 405.769006412 c 2
 307.709436327 727.314868051 l 2
 309.37555024 736.200808921 312.972638978 744.351550397 319.051774806 750.671855772 c 0
 326.755941346 758.681659562 337.471949151 762.5 349 762.5 c 2
 384 762.5 l 2
 391.821325378 762.5 399.312146247 761.249380953 405.822231803 756.984551571 c 0
 414.475095158 751.315964644 418.175 741.578830155 418.175 732.045875 c 0
 418.175 729.044074824 417.870499108 726.025383672 417.328938817 722.926669623 c 2
 366.374921601 402.216090677 l 2
 364.873513268 390.629554933 359.35410298 380.394157482 350.219682464 373.941401705 c 0
 342.964923416 368.816480175 334.202058561 366.5 325 366.5 c 2
EndSplineSet
PickledDataWithLists: "(dp0
Vcom.schriftgestaltung.Glyphs.lastChange
p1
V2015-12-22 14:22:08 +0000
p2
s."
EndChar

StartChar: bullet
Encoding: 8226 8226 167
GlifName: bullet
Width: 575
VWidth: 0
Flags: HMW
LayerCount: 2
Fore
SplineSet
492.5 325 m 0
 492.5 220.335914208 411.007058638 137.5 308 137.5 c 0
 204.048884712 137.5 122.5 220.302510737 122.5 325 c 0
 122.5 429.697489263 204.048884712 512.5 308 512.5 c 0
 411.007058638 512.5 492.5 429.664085792 492.5 325 c 0
EndSplineSet
PickledDataWithLists: "(dp0
Vcom.schriftgestaltung.Glyphs.lastChange
p1
V2015-12-22 16:32:38 +0000
p2
s."
EndChar

StartChar: c
Encoding: 99 99 168
GlifName: c
Width: 575
VWidth: 0
Flags: W
AnchorPoint: "mark-bottom" 248 0 basechar 0
AnchorPoint: "mark-top" 300 500 basechar 0
LayerCount: 2
Fore
SplineSet
446.475730595 20.8261135479 m 0
 394.090847005 0.294432425022 339.631412003 -9.9999996458 287 -10 c 0
 149.843968193 -10 67.5 64.7264377861 67.5 204.201834862 c 0
 67.5 369.580573474 179.193586657 510 369 510 c 0
 421.578370084 510 474.182182352 499.774068061 519.102673527 478.91416315 c 0
 530.848878216 473.810442328 539.616509839 463.438895324 539.616510428 450.174472301 c 0
 539.616510428 442.467616807 536.963016985 435.161895856 532.76828667 428.151750931 c 2
 518.918009224 404.408418167 l 2
 511.786305874 391.173392443 500.02719497 381.524782204 485.100338323 381.524782204 c 0
 479.672528783 381.524782204 474.37295382 382.765669555 469.287182182 384.918724355 c 0
 429.457218145 400.4436417 364.467618242 405.531492788 357 407 c 1
 235.06145788 407 178.5 315.997526016 178.5 213.876106195 c 0
 178.5 159.854935727 194.89364188 129.561499992 219.309383724 112.707360614 c 0
 239.125176217 99.0285573772 266.316625819 93 299 93 c 0
 338.415561288 93 372.641924657 99.5733919639 419.843096375 115.293092261 c 0
 425.197035201 117.279367127 430.479467862 118.475217123 435.884242578 118.475217796 c 0
 443.951356657 118.475217796 451.837168836 115.369260605 457.436402271 109.340914745 c 0
 461.80077588 104.64206554 464.435014734 98.891029742 466.127802742 92.5372010955 c 0
 468.168783407 84.3732784326 470.604367366 76.225984838 472.257344926 67.9610970344 c 0
 472.940920751 64.5432179107 473.324949646 61.1114475453 473.324949646 57.6537719517 c 0
 473.324949646 41.3536042297 463.599293998 27.284699658 446.475730595 20.8261135479 c 0
EndSplineSet
PickledDataWithLists: "(dp0
Vcom.schriftgestaltung.Glyphs.lastChange
p1
V2016-06-09 18:35:33 +0000
p2
s."
EndChar

StartChar: c.hex
Encoding: 65548 -1 169
GlifName: c.hex
Width: 575
VWidth: 0
Flags: W
LayerCount: 2
Fore
SplineSet
218.55741299 887.371981446 m 0
 224.19283348 880.419189933 226.5 871.663948788 226.5 862.5 c 2
 226.5 816.5 l 2
 226.5 804.711960809 222.807914482 793.571005345 213.681479294 786.461992673 c 0
 206.587996051 780.936542567 197.895291841 779 189 779 c 2
 154 779 l 2
 142.211960809 779 131.071005345 782.692085518 123.961992673 791.818520706 c 0
 118.436542567 798.912003949 116.5 807.604708159 116.5 816.5 c 2
 116.5 862.5 l 2
 116.5 871.663948788 118.80716652 880.419189933 124.44258701 887.371981446 c 0
 131.623195185 896.23117335 142.56864016 900 154 900 c 2
 189 900 l 2
 200.43135984 900 211.376804815 896.23117335 218.55741299 887.371981446 c 0
362.55741299 887.371981446 m 0
 368.19283348 880.419189933 370.5 871.663948788 370.5 862.5 c 2
 370.5 816.5 l 2
 370.5 804.711960809 366.807914482 793.571005345 357.681479294 786.461992673 c 0
 350.587996051 780.936542567 341.895291841 779 333 779 c 2
 298 779 l 2
 286.211960809 779 275.071005345 782.692085518 267.961992673 791.818520706 c 0
 262.436542567 798.912003949 260.5 807.604708159 260.5 816.5 c 2
 260.5 862.5 l 2
 260.5 871.663948788 262.80716652 880.419189933 268.44258701 887.371981446 c 0
 275.623195185 896.23117335 286.56864016 900 298 900 c 2
 333 900 l 2
 344.43135984 900 355.376804815 896.23117335 362.55741299 887.371981446 c 0
EndSplineSet
Refer: 168 99 N 1 0 0 1 0 0 2
PickledDataWithLists: "(dp0
Vcom.schriftgestaltung.Glyphs.lastChange
p1
V2016-06-09 18:35:34 +0000
p2
s."
EndChar

StartChar: caron
Encoding: 711 711 171
GlifName: caron
Width: 575
VWidth: 0
GlyphClass: 2
Flags: HMW
AnchorPoint: "top" 328 500 mark 0
LayerCount: 2
Fore
SplineSet
364 529.5 m 0
 337.451870431 529.5 316.685640361 540.17565605 296.828967149 553.762913895 c 0
 265.390912155 575.841396063 233.941187361 597.908208432 202.510498795 619.99405703 c 0
 193.988595073 626.385484822 187.984393038 635.780720548 187.984393038 646.7512616 c 0
 187.984393038 656.604987877 192.600111475 665.608852397 199.680413686 673.328777628 c 0
 206.380394478 681.03375554 212.889236754 688.972136372 219.814128972 696.474102941 c 0
 228.361113612 705.733336301 238.850387649 712.022727273 250.701258452 712.022727273 c 0
 258.836415378 712.022727273 266.469759436 708.905120148 272.78421686 703.778894852 c 0
 303.229084066 680.014062908 333.699042499 656.274322191 364.128092342 632.493672883 c 0
 367.078348047 629.964882279 370.693486928 627.297867821 371.060502455 627.143438698 c 0
 371.730055348 626.861710927 372.798886889 626.5 376 626.5 c 0
 380.570680591 626.5 380.284521061 626.752843204 385.515863292 630.06443257 c 0
 425.117331096 655.133295181 464.92777461 679.814123301 504.580788949 704.728849125 c 0
 511.882612015 709.109942965 519.355997422 712.022727273 527.400826446 712.022727273 c 0
 539.618464679 712.022727273 549.267893711 704.372978137 554.842159273 694.228457817 c 2
 568.653628244 671.537905678 l 2
 572.288243239 665.631656312 574.5 659.061709414 574.5 652.148148148 c 0
 574.5 637.872601007 565.149753804 626.429720321 552.178116641 619.133174417 c 2
 438.261519598 554.180728735 l 2
 415.527399887 540.755427609 390.63224785 529.5 364 529.5 c 0
EndSplineSet
PickledDataWithLists: "(dp0
Vcom.schriftgestaltung.Glyphs.lastChange
p1
V2016-05-18 20:16:32 +0000
p2
s."
EndChar

StartChar: cedilla
Encoding: 184 184 175
GlifName: cedilla
Width: 575
VWidth: 0
Flags: HMW
AnchorPoint: "bottom" 202 0 mark 0
LayerCount: 2
Fore
SplineSet
239.423961363 25.5 m 0
 245.393966537 25.5 251.36397171 25.5 257.333976883 25.5 c 2
 257.666354518 25.4825064402 l 2
 264.596994321 25.1177359243 271.048655099 23.741072854 276.755455001 20.2962737903 c 0
 284.236600171 15.7804256235 288.982072677 7.56487643623 288.982072677 -1.306386112 c 0
 288.982072677 -9.07117601259 286.102626558 -16.2577742187 281.68945257 -23.4793316524 c 2
 264.975452251 -50.9765579834 l 1
 278.235126869 -49.2541703128 290.642724408 -48.5 302 -48.5 c 0
 334.251434134 -48.5 359.868102949 -54.6503860201 378.943940663 -66.1276288116 c 0
 403.06567196 -80.6408035815 415.5 -103.694333675 415.5 -129 c 0
 415.5 -156.953240514 400.873043909 -180.979134423 379.343798429 -199.847461923 c 0
 336.424122758 -237.462458578 263.739206597 -258.5 196 -258.5 c 0
 169.497028539 -258.5 144.107098838 -254.165698143 116.449690423 -246.995258925 c 0
 102.867103854 -242.467730068 92.4621692042 -231.742052795 92.4621692042 -217.030958214 c 0
 92.4621692042 -205.438427506 99.2100990609 -194.842886486 103.843770003 -186.347823092 c 0
 111.313996789 -170.664104838 125.113885213 -161.668990713 141.066201857 -161.668990713 c 0
 144.543814592 -161.668990713 148.006122589 -162.051660184 151.461097034 -162.742655074 c 0
 170.523854516 -166.55520657 192.015999491 -168.5 207 -168.5 c 0
 232.135541886 -168.5 257.76291022 -163.616612527 274.104836754 -156.038703045 c 0
 287.985030118 -149.602323058 291.5 -143.084237663 291.5 -140 c 0
 291.5 -139.918114925 290.571324522 -131.5 263 -131.5 c 0
 256.090228482 -131.5 246.438639679 -132.420184408 236.573277898 -133.405845186 c 0
 233.379156802 -133.884420207 226.840512216 -134.196951589 226.678190409 -134.196938457 c 0
 214.660511238 -134.195966209 202.871151062 -129.540230658 194.30513744 -118.887937551 c 0
 186.284836271 -109.196740305 178.092880937 -99.6228449766 170.234478082 -89.7998414078 c 0
 164.811517299 -83.0211404292 161.5 -74.8780772401 161.5 -66.125 c 0
 161.5 -57.444769259 164.608803572 -49.1616166375 169.406044788 -41.3660996612 c 2
 196.346371756 1.53790567834 l 2
 205.30559541 16.0966441161 218.784375917 25.6071428571 236.060495627 25.6071428571 c 0
 237.178344899 25.6071428571 238.299300176 25.5707334415 239.423961363 25.5 c 0
EndSplineSet
PickledDataWithLists: "(dp0
Vcom.schriftgestaltung.Glyphs.lastChange
p1
V2015-12-22 16:32:40 +0000
p2
s."
EndChar

StartChar: cent
Encoding: 162 162 176
GlifName: cent
Width: 575
VWidth: 0
Flags: HMW
LayerCount: 2
Fore
SplineSet
250 -190.5 m 2
 215 -190.5 l 2
 207.347676115 -190.5 199.878672964 -189.145448157 193.410914934 -184.849301455 c 0
 184.887809495 -179.187909802 180.878536143 -169.490765916 180.878536143 -159.569942486 c 0
 180.878536143 -156.730426411 181.158224591 -153.866929518 181.669289733 -150.936875503 c 2
 214.592378288 58.2840420878 l 1
 322.297281636 41.4145993947 l 1
 291.31165978 -155.183828935 l 2
 289.268156894 -166.763678621 284.041834656 -176.999360815 274.833334467 -183.427936419 c 0
 267.57816851 -188.492863597 258.94785412 -190.5 250 -190.5 c 2
351 690.5 m 2
 386 690.5 l 2
 393.652323885 690.5 401.121327036 689.145448157 407.589085066 684.849301455 c 0
 416.112190505 679.187909802 420.121463857 669.490765916 420.121463857 659.569942486 c 0
 420.121463857 656.721264798 419.839967685 653.848451296 419.325756234 650.908512231 c 2
 389.881611358 468.985759962 l 1
 276.934912678 452.10870478 l 1
 309.690409748 655.18350276 l 2
 311.733912634 666.763352445 316.958165344 676.999360815 326.166665533 683.427936419 c 0
 333.42183149 688.492863597 342.05214588 690.5 351 690.5 c 2
EndSplineSet
Refer: 168 99 N 1 0 0 1 0 0 2
PickledDataWithLists: "(dp0
Vcom.schriftgestaltung.Glyphs.lastChange
p1
V2015-12-22 14:01:47 +0000
p2
s."
EndChar

StartChar: chi
Encoding: 967 967 177
GlifName: chi
Width: 575
VWidth: 0
Flags: W
LayerCount: 2
Fore
SplineSet
125.258374529 501 m 1
 126 501 l 2
 134.78843381 501 142.763223781 502 152 502 c 0
 189.343009384 502 227.856634467 491.680606367 260.305058931 451.260165117 c 0
 285.242700889 420.195775757 306.412162208 372.586456615 323.701833064 299.658226805 c 1
 467.321389414 479.407265213 l 2
 478.492483728 493.06082493 493.506326948 500 510 500 c 2
 549 500 l 2
 555.931781818 500 562.36844818 498.872252513 568.075568807 495.670262383 c 0
 575.542460868 491.67573944 580.449500619 484.053946284 580.449500619 475.772848129 c 0
 580.449500619 466.958456113 576.084635047 459.152519065 569.702453134 451.763068053 c 2
 351.551298687 195.969689666 l 1
 370.185666872 118.679178049 l 2
 397.478983226 4.94351547869 425.21149127 -17 448 -17 c 0
 455.153682797 -17 461.577552032 -15.6979693856 468.631583875 -15.6979693856 c 0
 478.086491238 -15.6979693856 487.587734569 -18.9212380054 493.816799748 -26.7439632883 c 0
 498.680046318 -32.8514354065 500.575379283 -40.4107016514 500.575379283 -48.1428978209 c 0
 500.575379283 -49.0470755887 500.549811694 -49.9555999351 500.5 -50.8694064459 c 0
 500.5 -58.8706228778 500.5 -66.8718393098 500.5 -74.8730557417 c 0
 499.950626772 -84.2124006158 497.778355919 -92.8138958732 492.323794084 -100.036549064 c 0
 485.27521256 -109.369922007 474.673002206 -113.596308619 462.741625471 -115 c 1
 462 -115 l 2
 453.21156619 -115 445.236776219 -116 436 -116 c 0
 398.656990616 -116 360.143365533 -105.680606367 327.694941069 -65.2601651174 c 0
 302.047713972 -33.3118578191 280.386160914 16.1363263295 262.831692753 92.6288565135 c 2
 261.759490036 97.0708391988 l 1
 87.547243389 -116.568389584 l 2
 79.3611588977 -126.242853074 68.6912281831 -133.1732461 56.2264267758 -133.1732461 c 0
 48.4591379726 -133.1732461 41.0517610238 -130.366886138 34.6677726004 -125.62335011 c 0
 28.9556813411 -121.591285692 23.1025467465 -117.699978933 17.5104987953 -113.50594297 c 0
 8.94574582515 -107.082378242 3.37092262792 -97.6743867335 3.37092262792 -87.1078061394 c 0
 3.37092262792 -77.282708769 7.78833059913 -68.3522251144 14.3442849733 -60.5633595772 c 2
 234.455444893 199.564253329 l 1
 217.814333128 267.985845059 l 2
 190.521016774 381.164039307 162.78850873 403 140 403 c 0
 133.374363238 403 127.911136657 401.916320516 121.233335938 401.916320516 c 0
 113.149507001 401.916320516 105.368524996 403.642362474 98.9746061488 408.469508068 c 0
 90.6978805813 414.71809525 87.4166666667 424.503014465 87.4166666667 434.06515775 c 0
 87.4166666667 435.005180358 87.4451483621 435.947465042 87.5 436.893352147 c 0
 87.5 444.886586679 87.5 452.87982121 87.5 460.873055742 c 0
 88.0493732279 470.212400616 90.2216440813 478.813895873 95.676205916 486.036549064 c 0
 102.72478744 495.369922007 113.326997794 499.596308619 125.258374529 501 c 1
EndSplineSet
PickledDataWithLists: "(dp0
Vcom.schriftgestaltung.Glyphs.lastChange
p1
V2015-12-22 12:54:05 +0000
p2
s."
EndChar

StartChar: circumflex
Encoding: 710 710 178
GlifName: circumflex
Width: 575
VWidth: 0
GlyphClass: 2
Flags: HMW
AnchorPoint: "top" 328 500 mark 0
LayerCount: 2
Fore
SplineSet
225.602036994 528.906825286 m 0
 213.247461743 528.906825286 203.406172768 535.961011145 196.31621191 545.414292289 c 1
 192.196137418 553.654441272 188.076062926 561.894590256 183.955988435 570.134739239 c 0
 180.676112319 575.975417673 178.715285794 582.248447587 178.715285794 588.772710276 c 0
 178.715285794 603.424239589 188.351640063 614.710047411 200.581024633 621.72865073 c 2
 315.652909501 687.769906393 l 2
 339.35206113 702.180577161 362.60870414 712.5 389 712.5 c 0
 416.203421396 712.5 438.553735367 699.652814739 457.073387307 687.306579933 c 2
 550.103039638 621.284491422 l 2
 558.888566046 615.202203908 565.378751001 606.07431303 565.378751001 595.021609288 c 0
 565.378751001 584.880820471 560.323209307 575.342705079 553.232228955 567.576393266 c 2
 532.383728717 544.742321576 l 2
 524.534825269 535.538305305 514.493052496 528.977272727 502.658809166 528.977272727 c 0
 494.5194739 528.977272727 486.871508382 531.955815163 480.507893001 536.990763596 c 2
 389.482407708 609.010927784 l 2
 385.375561663 611.974797934 383.366667398 615.5 378 615.5 c 0
 373.151753706 615.5 372.536242642 614.881673171 366.5230472 611.260198711 c 0
 365.06181521 610.380165061 363.361517541 609.354546195 361.395221664 608.253641943 c 2
 248.746450357 536.477554273 l 2
 241.512048238 531.826867197 233.778886168 528.906825286 225.602036994 528.906825286 c 0
EndSplineSet
PickledDataWithLists: "(dp0
Vcom.schriftgestaltung.Glyphs.lastChange
p1
V2015-12-22 16:32:40 +0000
p2
s."
EndChar

StartChar: colon
Encoding: 58 58 179
GlifName: colon
Width: 575
VWidth: 0
Flags: HMW
LayerCount: 2
Fore
SplineSet
287 562.5 m 2
 387 562.5 l 2
 395.025665469 562.5 402.64096053 560.986189963 409.070558213 556.551196362 c 0
 417.496474489 550.739186557 421.175 541.135930854 421.175 531.72075 c 0
 421.175 528.766216084 420.864959285 525.812066656 420.310160552 522.81649133 c 2
 405.309590252 432.81649724 l 2
 403.266087366 421.236647555 398.041834656 411.000639185 388.833334467 404.572063581 c 0
 381.57816851 399.507136403 372.94785412 397.5 364 397.5 c 2
 264 397.5 l 2
 255.974334531 397.5 248.35903947 399.013810037 241.929441787 403.448803638 c 0
 233.503525511 409.260813443 229.825 418.864069146 229.825 428.27925 c 0
 229.825 431.233783916 230.135040715 434.187933344 230.689839448 437.18350867 c 2
 245.690409748 527.18350276 l 2
 247.733912634 538.763352445 252.958165344 548.999360815 262.166665533 555.427936419 c 0
 269.42183149 560.492863597 278.05214588 562.5 287 562.5 c 2
220 152.5 m 2
 320 152.5 l 2
 328.025665469 152.5 335.64096053 150.986189963 342.070558213 146.551196362 c 0
 350.496474489 140.739186557 354.175 131.135930854 354.175 121.72075 c 0
 354.175 118.766216084 353.864959285 115.812066656 353.310160552 112.81649133 c 2
 338.309590252 22.8164972402 l 2
 336.266087366 11.2366475549 331.041834656 1.00063918512 321.833334467 -5.42793641864 c 0
 314.57816851 -10.4928635966 305.94785412 -12.5 297 -12.5 c 2
 197 -12.5 l 2
 188.974334531 -12.5 181.35903947 -10.9861899635 174.929441787 -6.55119636156 c 0
 166.503525511 -0.739186556855 162.825 8.86406914573 162.825 18.27925 c 0
 162.825 21.2337839162 163.135040715 24.1879333437 163.689839448 27.1835086703 c 2
 178.690409748 117.18350276 l 2
 180.733912634 128.763352445 185.958165344 138.999360815 195.166665533 145.427936419 c 0
 202.42183149 150.492863597 211.05214588 152.5 220 152.5 c 2
EndSplineSet
PickledDataWithLists: "(dp0
Vcom.schriftgestaltung.Glyphs.lastChange
p1
V2015-12-22 20:53:35 +0000
p2
s."
EndChar

StartChar: comma
Encoding: 44 44 180
GlifName: comma
Width: 575
VWidth: 0
Flags: HMW
LayerCount: 2
Fore
SplineSet
38 -259.5 m 0
 29.9743345313 -259.5 22.3590394701 -257.986189963 15.9294417868 -253.551196362 c 0
 7.50352551069 -247.739186557 3.825 -238.135930854 3.825 -228.72075 c 0
 3.825 -225.792850773 4.12947596798 -222.865329134 4.67489488093 -219.897495275 c 0
 6.01121545719 -211.21141153 7.16381758563 -202.467186162 8.69040974822 -193.81649724 c 0
 10.7339126339 -182.236647555 15.9581653437 -172.000639185 25.1666655328 -165.572063581 c 0
 32.4218314904 -160.507136403 41.0521458801 -158.5 50 -158.5 c 0
 113.400326717 -158.5 153.903971829 -144.769904575 180.775079171 -114.462079052 c 0
 200.539220685 -92.1701747776 214.157167588 -59.2355299479 222.352175436 -12.5 c 1
 197 -12.5 l 2
 188.974334531 -12.5 181.35903947 -10.9861899635 174.929441787 -6.55119636156 c 0
 166.503525511 -0.739186556855 162.825 8.86406914573 162.825 18.27925 c 0
 162.825 21.2337839162 163.135040715 24.1879333437 163.689839448 27.1835086703 c 2
 178.690409748 117.18350276 l 2
 180.733912634 128.763352445 185.958165344 138.999360815 195.166665533 145.427936419 c 0
 202.42183149 150.492863597 211.05214588 152.5 220 152.5 c 2
 320 152.5 l 2
 328.025665469 152.5 335.64096053 150.986189963 342.070558213 146.551196362 c 0
 350.496474489 140.739186557 354.175 131.135930854 354.175 121.72075 c 0
 354.175 118.775083064 353.866817446 115.829798312 353.315149029 112.843460665 c 2
 334.349451397 -3.94399420914 l 2
 318.58181427 -104.744245845 286.948704064 -173.490762371 227.946284508 -214.069210107 c 0
 180.976938137 -246.372006861 118.802348036 -259.5 38 -259.5 c 0
EndSplineSet
PickledDataWithLists: "(dp0
Vcom.schriftgestaltung.Glyphs.lastChange
p1
V2015-12-22 20:53:49 +0000
p2
s."
EndChar

StartChar: copyright
Encoding: 169 169 181
GlifName: copyright
Width: 575
VWidth: 0
Flags: HMW
LayerCount: 2
Fore
SplineSet
381.932143754 438.870081621 m 0
 372.407703669 438.870081621 364.681077215 442.903920744 357.302161215 447.446462034 c 0
 348.525176723 453.031815801 336.766417046 456.5 324 456.5 c 2
 323 456.5 l 2
 303.838427583 456.5 280.38518512 446.833718672 263.579157935 430.912219234 c 0
 247.822601279 416.031026836 236.887979985 394.285280344 233.314917333 372.84690443 c 0
 232.538599924 368.383079328 232.155484342 363.871412165 232.155484342 359.400391891 c 0
 232.155484342 344.014847692 236.736691307 329.012901341 245.038750266 317.447982899 c 0
 255.478121517 303.893295281 273.941290123 294.419088925 293.288297175 293.5 c 2
 294 293.5 l 2
 306.246824581 293.5 320.649445989 297.854958251 332.130580794 304.037107761 c 0
 340.124123824 308.30033071 347.934267844 311.62994566 356.812697207 311.62994566 c 0
 366.415878061 311.62994566 374.982921676 306.827509226 381.240753767 299.433449358 c 0
 384.237251038 296.436952087 387.399948587 293.539158793 390.250541642 290.403506433 c 0
 396.180522277 283.880527734 400.059792188 275.704288967 400.059792188 266.724492904 c 0
 400.059792188 254.580232018 392.878436 243.896787505 381.921123813 236.591912714 c 0
 352.829587106 217.197554909 317.734653084 206.5 285 206.5 c 2
 281.682288793 206.5 l 1
 238.470260254 207.580300713 198.678471299 225.985633551 174.054573961 259.427139633 c 0
 154.175323942 284.580567877 143.301994502 316.32254857 143.301994502 349.883253111 c 0
 143.301994502 358.845103804 144.077733475 367.917623753 145.661263474 377.016618172 c 0
 152.162885286 420.097627458 175.55653024 462.401844632 209.611013768 493.263721185 c 0
 243.131162998 523.641356424 286.875866311 542.882905722 329.920185485 543.485423945 c 0
 330.93476154 543.823615963 331.949337594 544.161807982 332.963913649 544.5 c 2
 335 544.5 l 2
 368.012779165 544.5 399.690805612 532.556230266 423.066888802 512.546101377 c 0
 430.513084292 506.309791268 435.05706854 497.6714442 435.057070038 488.403004104 c 0
 435.057070038 476.161913351 427.942662054 465.964474838 418.784971473 458.215659731 c 0
 414.779848648 455.211817613 410.774725823 452.207975494 406.769602998 449.204133375 c 0
 399.253139833 442.918745934 391.023293923 438.870081621 381.932143754 438.870081621 c 0
30.22 334.256 m 0
 30.22 348.439425871 31.3492166984 362.718433057 33.6562277212 376.979955744 c 0
 45.1560725225 449.115345861 84.1743942271 520.106966697 142.864515753 570.488075449 c 0
 201.506422526 620.827795417 276.574161828 649.5 349 649.5 c 0
 420.327346059 649.5 488.839184742 620.315334014 531.59030363 569.013991348 c 0
 566.691844656 527.063369146 585.671494776 472.369950581 585.671494776 414.817814769 c 0
 585.671494776 400.995895414 584.571212627 386.992376668 582.339259249 372.991941845 c 0
 570.836931972 301.886645951 530.43539136 230.505053072 471.178516505 180.548228078 c 0
 419.708947675 134.747036581 275.825750139 99.0748330783 264.41380303 99.0748330783 c 0
 263.939019268 99.0748330783 263.693530118 99.1365781287 263.693530118 99.2619076622 c 0
 263.693530118 99.4795842314 264.434070632 99.8890692196 266 100.5 c 1
 193.609372436 100.5 127.058865833 129.893945822 82.3935378988 182.005359358 c 0
 48.2548879034 222.971739353 30.22 277.598323786 30.22 334.256 c 0
496.806881384 405.02187956 m 0
 496.806881384 443.869262339 484.306929089 480.657049351 461.414933813 507.979753391 c 0
 433.034129361 541.853616769 387.527138997 562.5 339 562.5 c 0
 290.49282054 562.5 238.057454926 541.724585506 197.146345419 506.522002908 c 0
 156.312472656 471.385879833 127.846129605 421.784154434 120.354260391 373.087004542 c 0
 118.905382612 363.669298982 118.193118616 354.261965925 118.193118616 344.97812044 c 0
 118.193118616 306.166615406 130.669992754 269.410903588 153.52166449 242.095971187 c 0
 182.947384412 208.118797934 227.396452742 188.500001801 276 188.5 c 0
 324.707942139 188.5 378.077964519 208.438646955 417.743047424 243.38169618 c 0
 458.576920186 278.517819255 487.153870395 328.215845566 494.645739609 376.912995458 c 0
 496.094617388 386.330701018 496.806881384 395.738034075 496.806881384 405.02187956 c 0
EndSplineSet
PickledDataWithLists: "(dp0
Vcom.schriftgestaltung.Glyphs.lastChange
p1
V2015-12-22 14:24:21 +0000
p2
s."
EndChar

StartChar: currency
Encoding: 164 164 182
GlifName: currency
Width: 575
VWidth: 0
Flags: HMW
LayerCount: 2
Fore
SplineSet
590.558408433 462.011622668 m 0
 590.558408433 450.006210493 583.526049137 439.950906464 573.953417593 432.355455887 c 2
 486.248181003 356.651988514 l 1
 496.405219564 332.725472235 501.782269343 306.638850154 501.782269343 279.623758278 c 0
 501.782269343 269.206571393 500.97504422 258.62273939 499.346676661 248.038350253 c 0
 493.469263473 210.814733397 476.980188848 173.277374887 453.078998442 141.302843005 c 1
 515.606462101 66.9946406417 l 2
 520.957575486 60.5733045804 524.679482965 52.9109256737 524.679482965 44.320505295 c 0
 524.679482965 31.8128306037 516.942412133 21.7285334118 506.628568618 14.0959659074 c 2
 506.628568618 14.0959659074 480.845635868 -6.72871054422 480.713432287 -6.83402988648 c 0
 472.64010879 -13.1773554918 463.842184084 -17.6290773721 454.009219077 -17.6290773721 c 0
 443.516110994 -17.6290773721 434.47090424 -11.9744108631 428.215464495 -3.78207467563 c 2
 368.055028791 68.0512813891 l 1
 332.633119771 49.2148530914 293.349849618 38.5 256 38.5 c 0
 217.989942147 38.5 182.529874705 49.1848214888 152.921711089 68.2395196317 c 1
 68.1280923419 -5.49367288322 l 2
 59.7177981618 -12.7024964661 50.4567834579 -17.6290773721 40.1092201062 -17.6290773721 c 0
 30.076935551 -17.6290773721 21.3718507439 -12.6383725879 14.8557622204 -5.52003744781 c 0
 8.15883476334 1.51173638213 1.2813738271 8.41138655164 -5.2505416416 15.5964935672 c 0
 -11.0188638693 21.9416480176 -14.8242899478 29.8023332837 -14.8242899478 38.4608121863 c 0
 -14.8242899478 50.2883452975 -8.15856420641 60.1694452446 0.680095424721 68.328207981 c 2
 88.6996481092 144.302979772 l 1
 78.8591178207 167.316378362 74.0454545455 192.86942033 74.0454545455 218.84823441 c 0
 74.0454545455 229.86988468 74.9081862118 240.908490608 76.6457396091 251.912995458 c 0
 82.5053973301 290.000770644 98.2168723751 326.941464132 122.010131727 359.591213143 c 1
 59.3213894139 434.092734787 l 0
 54.2396789669 440.303714222 51.0438947422 447.842446631 51.0438947422 455.966946197 c 0
 51.0438947422 468.178297232 58.14455848 478.864464922 68.3885017 486.913277452 c 2
 94.2865677125 506.834029886 l 2
 102.557794483 513.33285092 111.55866289 517.75 121.5 517.75 c 0
 131.797769703 517.75 140.708593295 512.599649614 147.453839132 505.179879194 c 2
 207.087264601 432.896939231 l 1
 243.211955726 451.626130005 281.885334542 461.5 320 461.5 c 0
 356.822770259 461.5 392.956134468 451.872399423 422.205001245 432.801692935 c 1
 507.932922109 506.545634838 l 2
 515.99898945 513.370768742 525.07946533 517.879465974 535.044240851 517.879465974 c 0
 544.635623872 517.879465974 553.601370253 513.390048351 560.051575485 506.617332857 c 2
 579.954488475 485.719274218 l 2
 586.34583894 479.279849468 590.558408433 471.08130217 590.558408433 462.011622668 c 0
175.902269688 230.471657542 m 0
 175.902269688 178.88030821 214.092406873 140.5 269 140.5 c 0
 330.543649295 140.5 387.629489701 189.996688029 397.660740751 252.008058155 c 0
 398.651790732 258.134548951 399.125035043 264.1040197 399.125035043 269.876909202 c 0
 399.125035043 321.690426519 361.581246518 360.5 307 360.5 c 0
 245.508083262 360.5 187.367135684 309.982450712 177.339259249 247.991941845 c 0
 176.366187708 241.9765905 175.902269688 236.124817537 175.902269688 230.471657542 c 0
EndSplineSet
PickledDataWithLists: "(dp0
Vcom.schriftgestaltung.Glyphs.lastChange
p1
V2015-12-22 14:02:18 +0000
p2
s."
EndChar

StartChar: d
Encoding: 100 100 183
GlifName: d
Width: 575
VWidth: 0
Flags: W
AnchorPoint: "mark-bottom" 248 0 basechar 0
AnchorPoint: "mark-topright" 560 700 basechar 0
LayerCount: 2
Fore
SplineSet
478.051774806 738.171855772 m 0
 485.755941346 746.181659562 496.471949151 750 508 750 c 2
 543 750 l 2
 550.872513468 750 558.454154348 748.369357656 564.83349708 743.911568657 c 0
 573.128573952 738.115093381 577.121463857 728.551640864 577.121463857 718.760814262 c 0
 577.121463857 715.981817983 576.839339867 713.193264249 576.320124852 710.370585661 c 2
 466.375830255 39.338120054 l 2
 463.979714747 21.3617973304 452.01266726 0 427 0 c 2
 390 0 l 2
 382.127486532 0 374.545845652 1.63064234413 368.16650292 6.08843134283 c 0
 359.871426048 11.8849066185 355.878536143 21.4483591361 355.878536143 31.2391857382 c 0
 355.878536143 35.8436716828 356.833566649 40.6031907077 357.505589091 44.8593328447 c 1
 309.713964393 9.0309891458 258.522928558 -10 212 -10 c 0
 166.150401506 -10 124.479797892 8.5475676441 97.6075648444 50.4197826748 c 0
 76.3126437044 83.601450736 64.5 130.285523404 64.5 192.752293578 c 0
 64.5 274.7524654 80.4644310675 346.329579632 117.398341512 401.116291972 c 0
 163.863960929 470.042070315 242.757572387 510 357 510 c 0
 375.202971254 510 402.835970571 509.195459657 434.424247827 506.868757207 c 1
 445.189283047 576.182151323 455.940251869 645.509611839 466.714178408 714.814114636 c 0
 468.380292321 723.700055506 471.972638978 731.851550397 478.051774806 738.171855772 c 0
418.488656314 406.256803139 m 1
 386.800798932 408.293840398 360.41904205 409 345 409 c 0
 273.093997306 409 230.340389695 383.1750435 205.044814976 341.159049231 c 0
 184.548553041 307.114721971 175.5 261.104706157 175.5 208.279883382 c 0
 175.5 167.712450788 181.819427271 139.335422237 191.64765824 121.196846765 c 0
 203.654186526 99.0380961053 220.158781344 91 242 91 c 0
 276.779975854 91 326.302046502 114.530204029 376.264723305 163.549204536 c 1
 418.488656314 406.256803139 l 1
EndSplineSet
EndChar

StartChar: d.hex
Encoding: 65549 -1 184
GlifName: d.hex
Width: 575
VWidth: 0
Flags: W
LayerCount: 2
Fore
SplineSet
218.55741299 887.371981446 m 0
 224.19283348 880.419189933 226.5 871.663948788 226.5 862.5 c 2
 226.5 816.5 l 2
 226.5 804.711960809 222.807914482 793.571005345 213.681479294 786.461992673 c 0
 206.587996051 780.936542567 197.895291841 779 189 779 c 2
 154 779 l 2
 142.211960809 779 131.071005345 782.692085518 123.961992673 791.818520706 c 0
 118.436542567 798.912003949 116.5 807.604708159 116.5 816.5 c 2
 116.5 862.5 l 2
 116.5 871.663948788 118.80716652 880.419189933 124.44258701 887.371981446 c 0
 131.623195185 896.23117335 142.56864016 900 154 900 c 2
 189 900 l 2
 200.43135984 900 211.376804815 896.23117335 218.55741299 887.371981446 c 0
362.55741299 887.371981446 m 0
 368.19283348 880.419189933 370.5 871.663948788 370.5 862.5 c 2
 370.5 816.5 l 2
 370.5 804.711960809 366.807914482 793.571005345 357.681479294 786.461992673 c 0
 350.587996051 780.936542567 341.895291841 779 333 779 c 2
 298 779 l 2
 286.211960809 779 275.071005345 782.692085518 267.961992673 791.818520706 c 0
 262.436542567 798.912003949 260.5 807.604708159 260.5 816.5 c 2
 260.5 862.5 l 2
 260.5 871.663948788 262.80716652 880.419189933 268.44258701 887.371981446 c 0
 275.623195185 896.23117335 286.56864016 900 298 900 c 2
 333 900 l 2
 344.43135984 900 355.376804815 896.23117335 362.55741299 887.371981446 c 0
650.55741299 887.371981446 m 0
 656.19283348 880.419189933 658.5 871.663948788 658.5 862.5 c 2
 658.5 816.5 l 2
 658.5 804.711960809 654.807914482 793.571005345 645.681479294 786.461992673 c 0
 638.587996051 780.936542567 629.895291841 779 621 779 c 2
 586 779 l 2
 574.211960809 779 563.071005345 782.692085518 555.961992673 791.818520706 c 0
 550.436542567 798.912003949 548.5 807.604708159 548.5 816.5 c 2
 548.5 862.5 l 2
 548.5 871.663948788 550.80716652 880.419189933 556.44258701 887.371981446 c 0
 563.623195185 896.23117335 574.56864016 900 586 900 c 2
 621 900 l 2
 632.43135984 900 643.376804815 896.23117335 650.55741299 887.371981446 c 0
EndSplineSet
Refer: 183 100 N 1 0 0 1 0 0 2
PickledDataWithLists: "(dp0
Vcom.schriftgestaltung.Glyphs.lastChange
p1
V2016-06-09 18:35:34 +0000
p2
s."
EndChar

StartChar: dagger
Encoding: 8224 8224 185
GlifName: dagger
Width: 575
VWidth: 0
Flags: HMW
LayerCount: 2
Fore
SplineSet
553 601.5 m 2
 561.265976039 601.5 569.12817628 599.870843216 575.586942967 594.981108516 c 0
 583.986937186 588.621729829 586.869337461 578.754897991 586.869337461 569.548364557 c 0
 586.869337461 567.004803251 586.750127712 564.192967565 586.290916512 561.713227088 c 2
 581.353087804 535.048952065 l 2
 579.8711471 523.862193688 574.875397372 513.585482397 565.715010356 507.001120202 c 0
 558.417251197 501.755589697 549.507283718 499.5 540 499.5 c 2
 381.689705982 499.5 l 1
 348.886900084 290.896806222 316.096441645 82.2812649861 283.285821592 -126.314114636 c 0
 281.664900756 -134.959025758 278.411430813 -143.080603222 272.421645128 -149.519411031 c 0
 264.776312574 -157.737873182 253.906099321 -161.5 242 -161.5 c 2
 207 -161.5 l 2
 199.127486532 -161.5 191.545845652 -159.869357656 185.16650292 -155.411568657 c 0
 176.871426048 -149.615093381 172.878536143 -140.051640864 172.878536143 -130.260814262 c 0
 172.878536143 -127.483989943 173.16021931 -124.697623102 173.678658185 -121.8772039 c 2
 271.379476408 499.5 l 1
 117 499.5 l 2
 108.887674064 499.5 101.066104718 501.261757573 94.6668178983 506.156465846 c 0
 86.3992197941 512.48021441 83.1666666667 522.311155066 83.1666666667 531.92866941 c 0
 83.1666666667 534.338742801 83.2771194269 537.042116589 83.7249392323 539.370779577 c 2
 88.6449003649 564.954577466 l 2
 90.1499187421 576.822965598 95.517855553 587.258787357 104.656468022 593.882185385 c 0
 111.963667673 599.178229169 120.802389653 601.5 130 601.5 c 2
 288.305273172 601.5 l 1
 297.443141163 659.769805299 306.568242439 718.052377315 315.714178408 776.314114636 c 0
 317.380292321 785.200055506 320.972638978 793.351550397 327.051774806 799.671855772 c 0
 334.755941346 807.681659562 345.471949151 811.5 357 811.5 c 2
 392 811.5 l 2
 399.821325378 811.5 407.312146247 810.249380953 413.822231803 805.984551571 c 0
 422.475095158 800.315964644 426.175 790.578830155 426.175 781.045875 c 0
 426.175 778.048382849 425.871372488 775.034048169 425.331269008 771.940010461 c 2
 398.613645747 601.5 l 1
 553 601.5 l 2
EndSplineSet
PickledDataWithLists: "(dp0
Vcom.schriftgestaltung.Glyphs.lastChange
p1
V2015-12-22 14:26:24 +0000
p2
s."
EndChar

StartChar: daggerdbl
Encoding: 8225 8225 186
GlifName: daggerdbl
Width: 575
VWidth: 0
Flags: HMW
LayerCount: 2
Fore
SplineSet
540 499.5 m 2
 381.684209761 499.5 l 1
 326.628060029 150.5 l 1
 481 150.5 l 2
 488.821325378 150.5 496.312146247 149.249380953 502.822231803 144.984551571 c 0
 511.475095158 139.315964644 515.175 129.578830155 515.175 120.045875 c 0
 515.175 117.054299007 514.872569846 114.045946904 514.334464255 110.958329661 c 2
 510.379299279 85.249757314 l 2
 508.930752596 73.9852460897 503.930181331 63.6248603657 494.715010356 57.0011202015 c 0
 487.417251197 51.7555896973 478.507283718 49.5 469 49.5 c 2
 310.703624104 49.5 l 1
 283.312050428 -126.183886336 l 2
 281.716187804 -135.227107873 278.482246129 -143.545491107 272.335875543 -150.022218245 c 0
 264.487486749 -158.29244406 253.556527186 -161.5 242 -161.5 c 2
 207 -161.5 l 2
 199.127486532 -161.5 191.545845652 -159.869357656 185.16650292 -155.411568657 c 0
 176.871426048 -149.615093381 172.878536143 -140.051640864 172.878536143 -130.260814262 c 0
 172.878536143 -127.486743586 173.159660924 -124.703149305 173.677116551 -121.885594422 c 2
 200.398526434 49.5 l 1
 46 49.5 l 2
 37.8876740636 49.5 30.0661047185 51.2617575732 23.6668178983 56.1564658461 c 0
 15.3992197941 62.4802144098 12.1666666667 72.3111550664 12.1666666667 81.9286694102 c 0
 12.1666666667 84.2143819076 12.2940627085 86.627095604 12.6457396091 88.9129954575 c 0
 13.9917705496 97.6621965706 15.1527200419 106.469927757 16.6904097482 115.18350276 c 0
 18.7339126339 126.763352445 23.9581653437 136.999360815 33.1666655328 143.427936419 c 0
 40.4218314904 148.492863597 49.0521458801 150.5 58 150.5 c 2
 216.315790239 150.5 l 1
 271.371939971 499.5 l 1
 117 499.5 l 2
 108.887674064 499.5 101.066104718 501.261757573 94.6668178983 506.156465846 c 0
 86.3992197941 512.48021441 83.1666666667 522.311155066 83.1666666667 531.92866941 c 0
 83.1666666667 534.338742801 83.2771194269 537.042116589 83.7249392323 539.370779577 c 2
 88.6449003649 564.954577466 l 2
 90.1499187421 576.822965598 95.517855553 587.258787357 104.656468022 593.882185385 c 0
 111.963667673 599.178229169 120.802389653 601.5 130 601.5 c 2
 288.305273172 601.5 l 1
 297.443141163 659.769805299 306.568242439 718.052377315 315.714178408 776.314114636 c 0
 317.380292321 785.200055506 320.972638978 793.351550397 327.051774806 799.671855772 c 0
 334.755941346 807.681659562 345.471949151 811.5 357 811.5 c 2
 392 811.5 l 2
 399.821325378 811.5 407.312146247 810.249380953 413.822231803 805.984551571 c 0
 422.475095158 800.315964644 426.175 790.578830155 426.175 781.045875 c 0
 426.175 778.048382849 425.871372488 775.034048169 425.331269008 771.940010461 c 2
 398.613645747 601.5 l 1
 553 601.5 l 2
 561.265976039 601.5 569.12817628 599.870843216 575.586942967 594.981108516 c 0
 583.986937186 588.621729829 586.869337461 578.754897991 586.869337461 569.548364557 c 0
 586.869337461 567.004803251 586.750127712 564.192967565 586.290916512 561.713227088 c 2
 581.353087804 535.048952065 l 2
 579.8711471 523.862193688 574.875397372 513.585482397 565.715010356 507.001120202 c 0
 558.417251197 501.755589697 549.507283718 499.5 540 499.5 c 2
EndSplineSet
PickledDataWithLists: "(dp0
Vcom.schriftgestaltung.Glyphs.lastChange
p1
V2015-12-22 14:32:11 +0000
p2
s."
EndChar

StartChar: degree
Encoding: 176 176 189
GlifName: degree
Width: 575
VWidth: 0
Flags: HMW
LayerCount: 2
Fore
SplineSet
134.5 498 m 0
 134.5 622.289456272 240.379932305 722.5 364 722.5 c 0
 461.405618028 722.5 529.5 654.705077941 529.5 560 c 0
 529.5 439.271994967 429.25735234 333.5 306 333.5 c 0
 203.819661789 333.5 134.5 402.140205297 134.5 498 c 0
245.5 509 m 0
 245.5 464.822263738 272.197719719 435.5 315 435.5 c 0
 370.948673116 435.5 418.5 489.019450497 418.5 548 c 0
 418.5 591.900803334 391.028082343 620.5 349 620.5 c 0
 292.740276524 620.5 245.5 569.842789982 245.5 509 c 0
EndSplineSet
PickledDataWithLists: "(dp0
Vcom.schriftgestaltung.Glyphs.lastChange
p1
V2016-05-30 08:37:06 +0000
p2
s."
EndChar

StartChar: delta
Encoding: 948 948 190
GlifName: delta
Width: 575
VWidth: 0
Flags: W
LayerCount: 2
Fore
SplineSet
308 393 m 0
 214.204106035 393 156.5 310.595654995 156.5 204.5 c 0
 156.5 170.295473006 164.067249684 143.183744323 177.225733651 124.018335475 c 0
 193.468047504 100.361310365 218.881346483 87 255 87 c 0
 361.866900506 87 414.5 183.082675579 414.5 300.5 c 0
 414.5 327.729557643 410.447677079 356.018664044 403.035465547 383.696069581 c 1
 371.226236202 389.655474441 339.548324929 392.999999998 308 393 c 0
561.219682464 605.441401705 m 0
 553.964923416 600.316480175 545.202058561 598 536 598 c 2
 358.704239323 598 l 1
 469.549322394 507.412142517 524.5 391.512861425 524.5 286.215517241 c 0
 524.5 116.271216757 421.018274645 -15 243 -15 c 0
 174.617415154 -15 120.5374777 7.53368147046 86.4066986811 49.9051576524 c 0
 59.2278133334 83.6462419838 45.5 128.763610676 45.5 182.353763723 c 0
 45.5 345.582316194 148.912435735 475.743422203 320 475.743422203 c 0
 329.38880649 475.743422203 338.228006117 475.538172458 346.699735243 475.017051835 c 1
 313.145104383 517.981270752 268.64276905 557.693834542 211.771183452 590.659340782 c 0
 199.398631771 597.508693011 191.068467562 609.462599281 191.068467562 624.744012088 c 0
 191.068467562 627.230031297 191.262731288 629.737031823 191.650220682 632.441896686 c 0
 194.95006107 653.560875173 195.615586193 675.242302631 208.051774806 688.171855772 c 0
 215.755941346 696.181659562 226.471949151 700 238 700 c 2
 548 700 l 2
 555.872513468 700 563.454154348 698.369357656 569.83349708 693.911568657 c 0
 578.128573952 688.115093381 582.121463857 678.551640864 582.121463857 668.760814262 c 0
 582.121463857 666.002990479 581.843622359 663.235754319 581.331950865 660.435095634 c 2
 577.383885228 633.785652586 l 2
 575.895584851 622.170527265 570.372378782 611.907067911 561.219682464 605.441401705 c 0
EndSplineSet
PickledDataWithLists: "(dp0
Vcom.schriftgestaltung.Glyphs.lastChange
p1
V2016-05-30 08:32:37 +0000
p2
s."
EndChar

StartChar: dieresis
Encoding: 168 168 191
GlifName: dieresis
Width: 575
VWidth: 0
GlyphClass: 2
Flags: HMW
AnchorPoint: "top" 328 500 mark 0
LayerCount: 2
Fore
SplineSet
268 712.5 m 2
 303 712.5 l 2
 311.025665469 712.5 318.64096053 710.986189963 325.070558213 706.551196362 c 0
 333.496474489 700.739186557 337.175 691.135930854 337.175 681.72075 c 0
 337.175 678.796333836 336.871248018 675.872294363 336.327050606 672.908086814 c 0
 333.991372696 657.559346261 332.00684943 642.100965916 329.309590252 626.81649724 c 0
 327.713727628 617.773275703 324.482246129 609.454508893 318.335875543 602.977781755 c 0
 310.487486749 594.70755594 299.556527186 591.5 288 591.5 c 2
 253 591.5 l 2
 245.127486532 591.5 237.545845652 593.130642344 231.16650292 597.588431343 c 0
 222.871426048 603.384906619 218.878536143 612.948359136 218.878536143 622.739185738 c 0
 218.878536143 625.505438415 219.158078602 628.281161093 219.672747239 631.090584742 c 0
 222.012600022 646.466760174 223.849752748 662.037177782 226.714178408 677.314114636 c 0
 228.380292321 686.200055506 231.972638978 694.351550397 238.051774806 700.671855772 c 0
 245.755941346 708.681659562 256.471949151 712.5 268 712.5 c 2
475 712.5 m 2
 510 712.5 l 2
 517.872513468 712.5 525.454154348 710.869357656 531.83349708 706.411568657 c 0
 540.128573952 700.615093381 544.121463857 691.051640864 544.121463857 681.260814262 c 0
 544.121463857 678.494561585 543.841921398 675.718838907 543.327252761 672.909415258 c 0
 540.99150753 657.560232315 539.006927193 642.101406573 536.309590252 626.81649724 c 0
 534.266087366 615.236647555 529.041834656 605.000639185 519.833334467 598.572063581 c 0
 512.57816851 593.507136403 503.94785412 591.5 495 591.5 c 2
 460 591.5 l 2
 451.974334531 591.5 444.35903947 593.013810037 437.929441787 597.448803638 c 0
 429.503525511 603.260813443 425.825 612.864069146 425.825 622.27925 c 0
 425.825 625.203666164 426.128751982 628.127705637 426.672949394 631.091913186 c 0
 429.012734928 646.467646696 430.84983512 662.037617098 433.714178408 677.314114636 c 0
 435.380292321 686.200055506 438.972638978 694.351550397 445.051774806 700.671855772 c 0
 452.755941346 708.681659562 463.471949151 712.5 475 712.5 c 2
EndSplineSet
PickledDataWithLists: "(dp0
Vcom.schriftgestaltung.Glyphs.lastChange
p1
V2015-12-22 16:32:41 +0000
p2
s."
EndChar

StartChar: divide
Encoding: 247 247 192
GlifName: divide
Width: 575
VWidth: 0
Flags: HMW
LayerCount: 2
Fore
SplineSet
320 582.5 m 2
 355 582.5 l 2
 363.025665469 582.5 370.64096053 580.986189963 377.070558213 576.551196362 c 0
 385.496474489 570.739186557 389.175 561.135930854 389.175 551.72075 c 0
 389.175 548.796333836 388.871248018 545.872294363 388.327050606 542.908086814 c 0
 385.991372696 527.559346261 384.00684943 512.100965916 381.309590252 496.81649724 c 0
 379.713727628 487.773275703 376.482246129 479.454508893 370.335875543 472.977781755 c 0
 362.487486749 464.70755594 351.556527186 461.5 340 461.5 c 2
 305 461.5 l 2
 297.127486532 461.5 289.545845652 463.130642344 283.16650292 467.588431343 c 0
 274.871426048 473.384906619 270.878536143 482.948359136 270.878536143 492.739185738 c 0
 270.878536143 495.505438415 271.158078602 498.281161093 271.672747239 501.090584742 c 0
 274.012600022 516.466760174 275.849752748 532.037177782 278.714178408 547.314114636 c 0
 280.380292321 556.200055506 283.972638978 564.351550397 290.051774806 570.671855772 c 0
 297.755941346 578.681659562 308.471949151 582.5 320 582.5 c 2
253 159.5 m 2
 288 159.5 l 2
 296.025665469 159.5 303.64096053 157.986189963 310.070558213 153.551196362 c 0
 318.496474489 147.739186557 322.175 138.135930854 322.175 128.72075 c 0
 322.175 125.803084565 321.872648762 122.885794082 321.330815441 119.928613921 c 0
 318.994868525 104.244398914 317.064262117 88.4263044767 314.309590252 72.8164972402 c 0
 312.713727628 63.7732757026 309.482246129 55.4545088932 303.335875543 48.9777817547 c 0
 295.487486749 40.7075559395 284.556527186 37.5 273 37.5 c 2
 238 37.5 l 2
 230.347676115 37.5 222.878672964 38.8545518427 216.410914934 43.1506985452 c 0
 207.887809495 48.8120901981 203.878536143 58.5092340838 203.878536143 68.4300575137 c 0
 203.878536143 71.2523338019 204.154838709 74.0983005984 204.660006715 77.0097634148 c 0
 206.997065866 92.7014462799 209.334125016 108.393129145 211.671184166 124.08481201 c 0
 213.361795193 133.101404153 216.904088091 141.280279981 223.051774806 147.671855772 c 0
 230.755941346 155.681659562 241.471949151 159.5 253 159.5 c 2
468 259.5 m 2
 113 259.5 l 2
 105.127486532 259.5 97.545845652 261.130642344 91.1665029199 265.588431343 c 0
 82.8714260483 271.384906619 78.8785361429 280.948359136 78.8785361429 290.739185738 c 0
 78.8785361429 293.508935483 79.1587858383 296.288179187 79.6747002826 299.101239836 c 0
 82.6847388343 318.666490422 83.6084766515 337.214169151 94.9119260545 349.352620289 c 0
 102.638566345 357.650038385 113.472185349 361.5 125 361.5 c 2
 480 361.5 l 2
 488.025665469 361.5 495.64096053 359.986189963 502.070558213 355.551196362 c 0
 510.496474489 349.739186557 514.175 340.135930854 514.175 330.72075 c 0
 514.175 327.804728975 513.87298948 324.889082481 513.331731352 321.933613926 c 0
 510.423864496 302.305512645 509.810769996 283.723495475 498.421645128 271.480588969 c 0
 490.776312574 263.262126818 479.906099321 259.5 468 259.5 c 2
EndSplineSet
PickledDataWithLists: "(dp0
Vcom.schriftgestaltung.Glyphs.lastChange
p1
V2015-12-22 14:06:58 +0000
p2
s."
EndChar

StartChar: dkshade
Encoding: 9619 9619 193
GlifName: dkshade
Width: 575
VWidth: 0
Flags: HMW
LayerCount: 2
Fore
SplineSet
-12.5 -262.5 m 1
 -12.5 -141.046716109 l 1
 48.2266419456 -262.5 l 1
 -12.5 -262.5 l 1
-12.5 -110.953283891 m 1
 -12.5 0.953283891277 l 1
 119.226641946 -262.5 l 1
 63.2733580544 -262.5 l 1
 -12.5 -110.953283891 l 1
-12.5 31.0467161087 m 1
 -12.5 142.953283891 l 1
 190.226641946 -262.5 l 1
 134.273358054 -262.5 l 1
 -12.5 31.0467161087 l 1
-12.5 173.046716109 m 1
 -12.5 284.953283891 l 1
 261.226641946 -262.5 l 1
 205.273358054 -262.5 l 1
 -12.5 173.046716109 l 1
-12.5 315.046716109 m 1
 -12.5 426.953283891 l 1
 332.226641946 -262.5 l 1
 312 -262.5 l 1
 284 -262.5 l 1
 276.273358054 -262.5 l 1
 -12.5 315.046716109 l 1
-12.5 457.046716109 m 1
 -12.5 568.953283891 l 1
 403.226641946 -262.5 l 1
 383 -262.5 l 1
 355 -262.5 l 1
 347.273358054 -262.5 l 1
 -12.5 457.046716109 l 1
-12.5 599.046716109 m 1
 -12.5 710.953283891 l 1
 474.226641946 -262.5 l 1
 454 -262.5 l 1
 426 -262.5 l 1
 418.273358054 -262.5 l 1
 -12.5 599.046716109 l 1
-12.5 741.046716109 m 1
 -12.5 852.953283891 l 1
 545.226641946 -262.5 l 1
 525 -262.5 l 1
 497 -262.5 l 1
 489.273358054 -262.5 l 1
 -12.5 741.046716109 l 1
0 912.5 m 1
 28 912.5 l 1
 35.7266419456 912.5 l 1
 587.5 -191.046716109 l 1
 587.5 -302.953283891 l 1
 -20.2266419456 912.5 l 1
 0 912.5 l 1
71 912.5 m 1
 99 912.5 l 1
 106.726641946 912.5 l 1
 587.5 -49.0467161087 l 1
 587.5 -160.953283891 l 1
 50.7733580544 912.5 l 1
 71 912.5 l 1
142 912.5 m 1
 170 912.5 l 1
 177.726641946 912.5 l 1
 587.5 92.9532838913 l 1
 587.5 -18.9532838913 l 1
 121.773358054 912.5 l 1
 142 912.5 l 1
213 912.5 m 1
 241 912.5 l 1
 248.726641946 912.5 l 1
 587.5 234.953283891 l 1
 587.5 123.046716109 l 1
 192.773358054 912.5 l 1
 213 912.5 l 1
263.773358054 912.5 m 1
 319.726641946 912.5 l 1
 587.5 376.953283891 l 1
 587.5 265.046716109 l 1
 263.773358054 912.5 l 1
334.773358054 912.5 m 1
 390.726641946 912.5 l 1
 587.5 518.953283891 l 1
 587.5 407.046716109 l 1
 334.773358054 912.5 l 1
405.773358054 912.5 m 1
 461.726641946 912.5 l 1
 587.5 660.953283891 l 1
 587.5 549.046716109 l 1
 405.773358054 912.5 l 1
476.773358054 912.5 m 1
 492.84890537 912.5 508.924452685 912.5 525 912.5 c 2
 532.726641946 912.5 l 1
 587.5 802.953283891 l 1
 587.5 691.046716109 l 1
 476.773358054 912.5 l 1
EndSplineSet
PickledDataWithLists: "(dp0
Vcom.schriftgestaltung.Glyphs.lastChange
p1
V2016-06-10 08:26:49 +0000
p2
s."
EndChar

StartChar: dnblock
Encoding: 9604 9604 194
GlifName: dnblock
Width: 575
VWidth: 0
Flags: HMW
LayerCount: 2
Fore
SplineSet
-12.5 -262.5 m 1
 -12.5 337.5 l 1
 587.5 337.5 l 1
 587.5 -262.5 l 1
 -12.5 -262.5 l 1
EndSplineSet
PickledDataWithLists: "(dp0
Vcom.schriftgestaltung.Glyphs.lastChange
p1
V2016-06-10 08:26:49 +0000
p2
s."
EndChar

StartChar: dollar
Encoding: 36 36 195
GlifName: dollar
Width: 575
VWidth: 0
Flags: W
LayerCount: 2
Back
SplineSet
507 187 m 256
 507 78 416 10 289 -6 c 257
 263 -175 l 258
 260 -191 251 -200 234 -200 c 258
 199 -200 l 258
 183 -200 175 -192 178 -175 c 258
 204 -10 l 257
 165 -9 99 -7 43 3 c 256
 27 6 22 17 28 33 c 257
 38 59 l 258
 44 75 55 81 71 79 c 257
 130 68 201 67 230 67 c 256
 333 67 421 103 421 177 c 256
 421 229 375 257 291 266 c 256
 160 280 87 315 87 413 c 256
 87 526 172 594 302 607 c 257
 328 775 l 258
 331 792 341 800 357 800 c 258
 392 800 l 258
 408 800 416 792 413 775 c 258
 387 609 l 257
 422 608 468 605 509 598 c 257
 524 594 530 583 523 567 c 258
 512 541 l 258
 506 526 495 520 479 523 c 256
 430 532 366 534 342 534 c 256
 246 534 174 502 174 431 c 256
 174 372 223 352 303 343 c 256
 436 328 507 280 507 187 c 256
EndSplineSet
Fore
SplineSet
331.109070674 792.986799543 m 0
 338.41518225 798.025529286 347.067611146 800 356 800 c 2
 391 800 l 2
 399.025665469 800 406.64096053 798.486189963 413.070558213 794.051196362 c 0
 421.496474489 788.239186557 425.175 778.635930854 425.175 769.22075 c 0
 425.175 766.290090084 424.869949586 763.359808467 424.323561665 760.389100137 c 2
 395.711459919 576 l 1
 285.409229736 576 l 1
 314.648204046 764.428945556 l 2
 316.478114685 776.221703005 321.809651857 786.573366391 331.109070674 792.986799543 c 0
263.875462459 -157.972139912 m 0
 256.582491213 -163.017559418 247.936032117 -165 239 -165 c 2
 204 -165 l 2
 195.974334531 -165 188.35903947 -163.486189963 181.929441787 -159.051196362 c 0
 173.503525511 -153.239186557 169.825 -143.635930854 169.825 -134.22075 c 0
 169.825 -131.278571097 170.132453134 -128.336773474 170.682892265 -125.35406907 c 2
 199.34693908 53 l 1
 309.670918063 53 l 1
 280.341247356 -129.495728828 l 2
 278.454625591 -141.233139316 273.15146869 -151.554818194 263.875462459 -157.972139912 c 0
61.1208177944 96.663517055 m 2
 68.2563343657 109.861554574 79.9998618963 119.475217796 94.8996616773 119.475217796 c 0
 100.399417401 119.475217796 105.767516493 118.20121624 110.914941489 115.995176955 c 0
 153.08027933 97.9243178813 193.013871057 94 226 94 c 0
 320.921129957 94 406.5 141.720749502 406.5 216.5 c 0
 406.5 230.255630428 401.694351556 239.438765763 392.540928837 247.546096796 c 0
 373.575892217 264.343729186 333.648542661 273.959269013 288.170363385 283.76240371 c 0
 203.960129007 301.914499587 93.5 324.738649554 93.5 443.5 c 0
 93.5 582.920777153 227.889247417 673 373 673 c 0
 417.849305617 673 473.12983031 663.824257168 514.575472082 644.695499427 c 0
 524.185059935 639.521105968 532.171370738 630.925477245 532.171370738 619.046809244 c 0
 532.171370738 611.460177479 529.707311452 603.707006368 526.104469228 596.758667794 c 2
 512.216146854 569.974046072 l 2
 505.783181658 556.375063656 494.028704611 546.524782204 479.07926922 546.524782204 c 0
 473.655389609 546.524782204 468.358602282 547.769055829 463.267430583 549.927090543 c 0
 431.136313279 562.571313652 396.702667368 572 361 572 c 0
 280.864276985 572 206.5 525.737508573 206.5 461.5 c 0
 206.5 411.75614322 261.276375439 396.700836591 337.0401769 379.051268577 c 0
 417.87198847 360.221081488 519.5 337.866874435 519.5 232.5 c 0
 519.5 80.0008176673 358.018845759 -10 201 -10 c 0
 151.310058481 -10 103.525947285 0.346557932806 59.8412776122 21.1102404824 c 0
 48.1232420795 26.2225719257 39.383490402 36.5822115315 39.383489572 49.8255276991 c 0
 39.383489572 57.5578760384 42.0545665743 64.8864316882 46.2733900451 71.9178041394 c 2
 61.1208177944 96.663517055 l 2
EndSplineSet
PickledDataWithLists: "(dp0
Vcom.schriftgestaltung.Glyphs.lastChange
p1
V2015-12-22 14:03:19 +0000
p2
s."
EndChar

StartChar: dotaccent
Encoding: 729 729 196
GlifName: dotaccent
Width: 575
VWidth: 0
GlyphClass: 2
Flags: HMW
AnchorPoint: "top" 325 500 mark 0
LayerCount: 2
Fore
SplineSet
358 712.5 m 2
 393 712.5 l 2
 401.025665469 712.5 408.64096053 710.986189963 415.070558213 706.551196362 c 0
 423.496474489 700.739186557 427.175 691.135930854 427.175 681.72075 c 0
 427.175 678.796333836 426.871248018 675.872294363 426.327050606 672.908086814 c 0
 423.991372696 657.559346261 422.00684943 642.100965916 419.309590252 626.81649724 c 0
 417.713727628 617.773275703 414.482246129 609.454508893 408.335875543 602.977781755 c 0
 400.487486749 594.70755594 389.556527186 591.5 378 591.5 c 2
 343 591.5 l 2
 335.127486532 591.5 327.545845652 593.130642344 321.16650292 597.588431343 c 0
 312.871426048 603.384906619 308.878536143 612.948359136 308.878536143 622.739185738 c 0
 308.878536143 625.505438415 309.158078602 628.281161093 309.672747239 631.090584742 c 0
 312.012600022 646.466760174 313.849752748 662.037177782 316.714178408 677.314114636 c 0
 318.380292321 686.200055506 321.972638978 694.351550397 328.051774806 700.671855772 c 0
 335.755941346 708.681659562 346.471949151 712.5 358 712.5 c 2
EndSplineSet
PickledDataWithLists: "(dp0
Vcom.schriftgestaltung.Glyphs.lastChange
p1
V2015-12-22 16:32:41 +0000
p2
s."
EndChar

StartChar: dotlessi
Encoding: 305 305 198
GlifName: dotlessi
Width: 575
VWidth: 0
Flags: W
AnchorPoint: "mark-top" 300 500 basechar 0
AnchorPoint: "mark-bottom" 248 0 basechar 0
AnchorPoint: "mark-ogonek" 423 25 basechar 0
LayerCount: 2
Back
SplineSet
455 57 m 257
 459 31 l 257
 463 16 455 4 437 0 c 256
 399 -9 368 -10 348 -10 c 256
 262 -10 218 25 218 98 c 256
 218 114 220 131 224 150 c 258
 266 350 l 258
 269 363 270 374 270 384 c 256
 270 417 254 432 215 433 c 256
 199 433 175 432 149 426 c 257
 132 423 123 428 120 443 c 257
 116 469 l 257
 112 484 120 496 138 500 c 256
 176 509 207 510 227 510 c 256
 313 510 357 475 357 402 c 256
 357 386 355 369 351 350 c 258
 309 150 l 258
 306 137 305 126 305 116 c 256
 305 83 321 68 360 67 c 256
 376 67 400 68 426 74 c 257
 443 77 452 72 455 57 c 257
EndSplineSet
Fore
SplineSet
253.817112731 347.736297302 m 2
 256.608542011 359.265833359 257.5 368.744118059 257.5 377.45712769 c 0
 257.5 392.946894784 253.467878653 400.362505048 246.733359569 404.94525829 c 0
 240.94775759 408.882285699 230.819569626 411.838410924 214.835812044 412.247182545 c 0
 199.987287096 412.234100933 181.723563407 410.445868788 152.184554185 405.756278628 c 0
 148.811003257 405.1594073 142.020859785 404.783050176 141.812533217 404.783092746 c 0
 133.290797038 404.784834119 124.593158774 407.193127515 118.118585379 413.40632429 c 0
 113.025706705 418.293604953 109.725299077 424.922921531 108.635373175 431.935275834 c 2
 108.635373175 431.935275834 104.635373175 457.670435607 104.610119747 457.841473421 c 0
 104.24563376 460.447058171 104.034311868 463.032902823 104.034311868 465.62809593 c 0
 104.034311868 472.009469946 105.335924084 478.59780439 109.270651498 484.468448404 c 0
 114.296444034 491.966970096 122.631505995 496.523935462 132.112498012 498.664241114 c 0
 171.327267343 507.95194964 206.174784704 510 227 510 c 0
 266.651672728 510 299.077202209 503.289781745 323.4514468 488.031257519 c 0
 354.415434211 468.647487478 369.5 436.494725589 369.5 395.144935088 c 0
 369.5 378.877526809 367.368181445 361.843932367 363.233409254 343.123826476 c 2
 321.182887269 152.263702698 l 2
 318.391457989 140.734166641 317.5 131.255881941 317.5 122.54287231 c 0
 317.5 107.053105216 321.532121347 99.6374949517 328.266640431 95.0547417099 c 0
 334.05224241 91.1177143009 344.180430376 88.1615890753 360.164187959 87.7528174546 c 0
 375.012712906 87.7658990676 393.276436595 89.5541312119 422.815445815 94.2437213723 c 0
 426.188996743 94.8405926998 432.979140215 95.2169498241 433.187466783 95.2169072536 c 0
 441.709202962 95.2151658814 450.406841226 92.8068724851 456.881414621 86.59367571 c 0
 461.974293295 81.7063950469 465.274700923 75.0770784688 466.364626825 68.0647241657 c 2
 466.364626825 68.0647241657 470.364626825 42.329564393 470.389880253 42.1585265795 c 0
 470.75437236 39.552898078 470.965701115 36.9670122097 470.965701115 34.3717739534 c 0
 470.965701115 27.9904747529 469.664114723 21.4021754343 465.729380041 15.5315558631 c 0
 460.703584403 8.03307461439 452.368438419 3.47615461438 442.887501988 1.33575888585 c 0
 403.672732657 -7.95194964006 368.825215296 -10 348 -10 c 0
 308.348327272 -10 275.922797791 -3.28978174514 251.5485532 11.9687424812 c 0
 220.584565789 31.3525125217 205.5 63.5052744107 205.5 104.855064912 c 0
 205.5 121.122473191 207.631818555 138.156067633 211.766590746 156.876173524 c 2
 253.817112731 347.736297302 l 2
EndSplineSet
PickledDataWithLists: "(dp0
Vcom.schriftgestaltung.Glyphs.lastChange
p1
V2016-06-09 18:35:33 +0000
p2
s."
EndChar

StartChar: e
Encoding: 101 101 199
GlifName: e
Width: 575
VWidth: 0
Flags: W
AnchorPoint: "mark-bottom" 248 0 basechar 0
AnchorPoint: "mark-top" 300 500 basechar 0
AnchorPoint: "mark-ogonek" 429 25 basechar 0
LayerCount: 2
Fore
SplineSet
286.748457526 -10.1783939913 m 1
 286.819063235 -10.1629137527 286.902841876 -10.0183208074 287 -10 c 1
 154.021035722 -10 60.5 59.7701440308 60.5 191.798165138 c 0
 60.5 353.29751481 173.41414717 510 333 510 c 0
 428.934532994 510 519.5 445.537306079 519.5 326.532718121 c 0
 519.5 305.130679642 516.293032782 286.978245413 511.308969961 258.328246715 c 0
 509.62966577 249.747640965 506.064284305 241.923966986 499.948225194 235.831997239 c 0
 492.244058654 228.158175152 481.528050849 224.5 470 224.5 c 2
 173.022647527 224.5 l 1
 172.002530445 215.936605971 171.5 208.029992978 171.5 201.213541667 c 0
 171.5 154.857582002 189.218157502 127.748269457 215.768510834 111.864514769 c 0
 237.355978419 98.9498075648 266.355406022 93 299 93 c 0
 338.45232079 93 376.853928062 99.6479614858 423.843296489 115.29316706 c 0
 429.197166772 117.279397446 434.479535091 118.47521762 439.884242578 118.475217796 c 0
 447.951356657 118.475217796 455.837168836 115.369260605 461.436402271 109.340914745 c 0
 465.82765482 104.613126658 468.446997827 98.8460931406 470.10430828 92.631178944 c 0
 472.15143563 84.4039334424 474.229535488 76.2076604484 476.257344926 67.9610970344 c 0
 476.940920751 64.5432179107 477.324949646 61.1114475453 477.324949646 57.6537719517 c 0
 477.324949646 41.3536035366 467.599293171 27.2846984615 450.475728221 20.8261132271 c 0
 401.373323745 1.58240024455 293.056259711 -10.1783939913 286.748457526 -10.1783939913 c 1
410.795178436 326.5 m 1
 410.966819841 328.756690946 411.049845553 330.957295574 411.049845553 333.102004167 c 0
 411.049845553 383.799807836 364.259451009 409 322 409 c 0
 278.32506405 409 220.120216294 380.474509969 197.787814709 326.5 c 1
 410.795178436 326.5 l 1
EndSplineSet
EndChar

